<svg xmlns="http://www.w3.org/2000/svg" viewBox="0 0 276.28 323.17"><title>accounting</title><g id="48f4d219-c8b9-44ea-821f-7de5ebcde87d" data-name="Layer 2"><g id="b055adcb-76c1-477e-994a-0158bab3722a" data-name="Layer 1"><g style="opacity:0.6"><path d="M56.13,94.57l-39,6.21a42.53,42.53,0,0,0,45.21,32.79Z" style="fill:#e040fb"/><path d="M23.05,67.68a42.38,42.38,0,0,0-7,27.33l36.6-5.83Z" style="fill:#fdd835"/><path d="M61.65,92l6.48,40.7A42.52,42.52,0,0,0,85.85,58.59Z" style="fill:#29b6f6"/><path d="M58.63,86.13l22.47-31A42.48,42.48,0,0,0,26.74,63Z" style="fill:#dce775"/></g><path d="M224.93,109c-4.25-1.07-9.67,1.3-12.57,6.81l-10,30.3,50.18,18,13-41Z" style="fill:#ffcc80"/><path d="M267.91,144.61" style="fill:#bdbdbd"/><path d="M270.3,158.68" style="fill:#bdbdbd"/><path d="M243.53,239.57" style="fill:#bdbdbd"/><path d="M274.08,125.95a9.85,9.85,0,0,1,2.17,5.72,11.73,11.73,0,0,1-.86,5.05l-32.25,102-48-15.89,32.68-99.57c2.23-5.47,1-11.38-2.4-14.06l48.74,16.55" style="fill:#ffecb3"/><line x1="227.49" y1="141.42" x2="250.21" y2="148.93" style="fill:none;stroke:#bdbdbd;stroke-miterlimit:10;stroke-width:2px"/><line x1="256.43" y1="150.99" x2="264.87" y2="153.79" style="fill:none;stroke:#ffb300;stroke-miterlimit:10;stroke-width:2px"/><line x1="225.43" y1="147.64" x2="248.15" y2="155.16" style="fill:none;stroke:#bdbdbd;stroke-miterlimit:10;stroke-width:2px"/><line x1="254.37" y1="157.21" x2="262.81" y2="160.01" style="fill:none;stroke:#ff5722;stroke-miterlimit:10;stroke-width:2px"/><line x1="223.5" y1="153.46" x2="246.23" y2="160.98" style="fill:none;stroke:#bdbdbd;stroke-miterlimit:10;stroke-width:2px"/><line x1="252.44" y1="163.04" x2="260.89" y2="165.83" style="fill:none;stroke:#bdbdbd;stroke-miterlimit:10;stroke-width:2px"/><line x1="221.57" y1="159.28" x2="244.3" y2="166.8" style="fill:none;stroke:#bdbdbd;stroke-miterlimit:10;stroke-width:2px"/><line x1="250.52" y1="168.86" x2="258.96" y2="171.65" style="fill:none;stroke:#c0ca33;stroke-miterlimit:10;stroke-width:2px"/><path d="M275.64,121.25" style="fill:#bdbdbd"/><line x1="233.75" y1="117.56" x2="256.48" y2="125.08" style="fill:none;stroke:#bdbdbd;stroke-miterlimit:10;stroke-width:2px"/><line x1="261.96" y1="126.9" x2="270.41" y2="129.69" style="fill:none;stroke:#ffb300;stroke-miterlimit:10;stroke-width:2px"/><line x1="233.16" y1="124.27" x2="255.88" y2="131.79" style="fill:none;stroke:#bdbdbd;stroke-miterlimit:10;stroke-width:2px"/><line x1="262.1" y1="133.84" x2="270.55" y2="136.64" style="fill:none;stroke:#ff5722;stroke-miterlimit:10;stroke-width:2px"/><line x1="231.23" y1="130.09" x2="253.96" y2="137.61" style="fill:none;stroke:#bdbdbd;stroke-miterlimit:10;stroke-width:2px"/><line x1="260.18" y1="139.67" x2="268.62" y2="142.46" style="fill:none;stroke:#bdbdbd;stroke-miterlimit:10;stroke-width:2px"/><line x1="229.31" y1="135.91" x2="252.03" y2="143.43" style="fill:none;stroke:#bdbdbd;stroke-miterlimit:10;stroke-width:2px"/><line x1="258.25" y1="145.49" x2="266.69" y2="148.28" style="fill:none;stroke:#c0ca33;stroke-miterlimit:10;stroke-width:2px"/><line x1="219.84" y1="164.52" x2="242.56" y2="172.04" style="fill:none;stroke:#bdbdbd;stroke-miterlimit:10;stroke-width:2px"/><line x1="248.78" y1="174.1" x2="257.23" y2="176.89" style="fill:none;stroke:#bdbdbd;stroke-miterlimit:10;stroke-width:2px"/><line x1="217.83" y1="170.61" x2="240.55" y2="178.13" style="fill:none;stroke:#bdbdbd;stroke-miterlimit:10;stroke-width:2px"/><line x1="246.77" y1="180.19" x2="255.21" y2="182.98" style="fill:none;stroke:#ffd54f;stroke-miterlimit:10;stroke-width:2px"/><line x1="215.88" y1="176.48" x2="238.61" y2="184" style="fill:none;stroke:#bdbdbd;stroke-miterlimit:10;stroke-width:2px"/><line x1="244.82" y1="186.06" x2="253.27" y2="188.86" style="fill:none;stroke:#bdbdbd;stroke-miterlimit:10;stroke-width:2px"/><line x1="213.94" y1="182.36" x2="236.66" y2="189.88" style="fill:none;stroke:#c0ca33;stroke-miterlimit:10;stroke-width:2px"/><line x1="242.88" y1="191.94" x2="251.32" y2="194.73" style="fill:none;stroke:#c0ca33;stroke-miterlimit:10;stroke-width:2px"/><line x1="211.85" y1="188.66" x2="234.58" y2="196.18" style="fill:none;stroke:#bdbdbd;stroke-miterlimit:10;stroke-width:2px"/><line x1="240.8" y1="198.24" x2="249.24" y2="201.03" style="fill:none;stroke:#ffd54f;stroke-miterlimit:10;stroke-width:2px"/><line x1="209.91" y1="194.54" x2="232.63" y2="202.06" style="fill:none;stroke:#bdbdbd;stroke-miterlimit:10;stroke-width:2px"/><line x1="238.85" y1="204.11" x2="247.29" y2="206.91" style="fill:none;stroke:#bdbdbd;stroke-miterlimit:10;stroke-width:2px"/><line x1="227.42" y1="211.26" x2="244.03" y2="216.76" style="fill:none;stroke:#9e9d24;stroke-miterlimit:10;stroke-width:2px"/><rect x="14.03" y="190.15" width="57.05" height="75.31" transform="translate(-85.18 34.44) rotate(-22.87)" style="fill:#90a4ae"/><rect x="3.17" y="188.13" width="57.05" height="27.87" transform="translate(-76.03 28.2) rotate(-22.87)" style="fill:#546e7a"/><rect x="7.08" y="193.28" width="48.7" height="18.1" transform="translate(-76.16 28.12) rotate(-22.87)" style="fill:#eceff1"/><polygon points="27.64 213.75 36.3 210.1 38.62 189.48 29.96 193.13 27.64 213.75" style="fill:#b0bec5;opacity:0.28"/><polygon points="40.54 208.32 44.38 206.69 47.21 185.86 43.36 187.48 40.54 208.32" style="fill:#b0bec5;opacity:0.2"/><rect x="21.35" y="226.23" width="18" height="4.78" transform="translate(-86.46 29.77) rotate(-22.87)" style="fill:#bdbdbd"/><rect x="44.4" y="216.51" width="18" height="4.78" transform="translate(-80.87 37.96) rotate(-22.87)" style="fill:#bdbdbd"/><rect x="20.94" y="226.05" width="18" height="4.78" transform="translate(-86.42 29.59) rotate(-22.87)" style="fill:#ffd54f"/><rect x="24.94" y="235.91" width="6.52" height="4.78" transform="translate(-90.39 29.69) rotate(-22.87)" style="fill:#bdbdbd"/><rect x="24.53" y="235.72" width="6.52" height="4.78" transform="translate(-90.35 29.52) rotate(-22.87)" style="fill:#f5f5f5"/><rect x="35.52" y="231.45" width="6.52" height="4.78" transform="translate(-87.83 33.45) rotate(-22.87)" style="fill:#bdbdbd"/><rect x="48" y="226.19" width="6.52" height="4.78" transform="translate(-84.8 37.89) rotate(-22.87)" style="fill:#bdbdbd"/><rect x="58.58" y="221.73" width="6.52" height="4.78" transform="translate(-82.24 41.65) rotate(-22.87)" style="fill:#bdbdbd"/><rect x="61.74" y="229.23" width="6.52" height="4.78" transform="translate(-84.9 43.47) rotate(-22.87)" style="fill:#bdbdbd"/><rect x="51.14" y="233.63" width="6.52" height="4.78" transform="translate(-87.45 39.69) rotate(-22.87)" style="fill:#bdbdbd"/><rect x="38.68" y="238.95" width="6.52" height="4.78" transform="translate(-90.49 35.27) rotate(-22.87)" style="fill:#bdbdbd"/><rect x="28.11" y="243.41" width="6.52" height="4.78" transform="translate(-93.06 31.51) rotate(-22.87)" style="fill:#bdbdbd"/><rect x="31.27" y="250.91" width="6.52" height="4.78" transform="translate(-95.72 33.33) rotate(-22.87)" style="fill:#bdbdbd"/><rect x="41.84" y="246.45" width="6.52" height="4.78" transform="translate(-93.16 37.09) rotate(-22.87)" style="fill:#bdbdbd"/><rect x="54.32" y="241.18" width="6.52" height="4.78" transform="translate(-90.13 41.52) rotate(-22.87)" style="fill:#bdbdbd"/><rect x="34.6" y="258.41" width="6.52" height="4.78" transform="translate(-98.38 35.21) rotate(-22.87)" style="fill:#bdbdbd"/><rect x="45.17" y="253.94" width="6.52" height="4.78" transform="translate(-95.81 38.97) rotate(-22.87)" style="fill:#bdbdbd"/><rect x="57.65" y="248.68" width="6.52" height="4.78" transform="translate(-92.78 43.41) rotate(-22.87)" style="fill:#bdbdbd"/><rect x="35.1" y="231.26" width="6.52" height="4.78" transform="translate(-87.79 33.28) rotate(-22.87)" style="fill:#f5f5f5"/><rect x="47.58" y="225.99" width="6.52" height="4.78" transform="translate(-84.76 37.71) rotate(-22.87)" style="fill:#f5f5f5"/><rect x="58.16" y="221.53" width="6.52" height="4.78" transform="translate(-82.19 41.47) rotate(-22.87)" style="fill:#f5f5f5"/><rect x="61.32" y="229.03" width="6.52" height="4.78" transform="translate(-84.86 43.29) rotate(-22.87)" style="fill:#f5f5f5"/><rect x="50.72" y="233.43" width="6.52" height="4.78" transform="translate(-87.4 39.51) rotate(-22.87)" style="fill:#f5f5f5"/><rect x="38.27" y="238.75" width="6.52" height="4.78" transform="translate(-90.45 35.09) rotate(-22.87)" style="fill:#f5f5f5"/><rect x="27.69" y="243.21" width="6.52" height="4.78" transform="translate(-93.02 31.33) rotate(-22.87)" style="fill:#f5f5f5"/><rect x="30.85" y="250.71" width="6.52" height="4.78" transform="translate(-95.68 33.15) rotate(-22.87)" style="fill:#f5f5f5"/><rect x="41.43" y="246.25" width="6.52" height="4.78" transform="translate(-93.11 36.91) rotate(-22.87)" style="fill:#f5f5f5"/><rect x="53.91" y="240.99" width="6.52" height="4.78" transform="translate(-90.09 41.35) rotate(-22.87)" style="fill:#f5f5f5"/><rect x="66.3" y="236.13" width="6.52" height="13.42" transform="translate(-88.9 46.12) rotate(-22.87)" style="fill:#bdbdbd"/><rect x="65.99" y="235.78" width="6.52" height="13.42" transform="translate(-88.8 45.97) rotate(-22.87)" style="fill:#546e7a"/><rect x="34.18" y="258.21" width="6.52" height="4.78" transform="translate(-98.33 35.03) rotate(-22.87)" style="fill:#f5f5f5"/><rect x="44.76" y="253.75" width="6.52" height="4.78" transform="translate(-95.77 38.79) rotate(-22.87)" style="fill:#f5f5f5"/><rect x="57.24" y="248.48" width="6.52" height="4.78" transform="translate(-92.74 43.23) rotate(-22.87)" style="fill:#f5f5f5"/><rect x="44" y="216.33" width="18" height="4.78" transform="translate(-80.83 37.79) rotate(-22.87)" style="fill:#ff9100"/><path d="M92.73,70.41c1.69,21.69-.16,32.7,0,34.11,1.66,12.67,4.61,14.45,15.67,23,21.41,16.55,57.79,11.83,66.07-3.38,4.71-8.66,1.21-12.58,3.6-30.62,1-7.66,4.15-10.79,5.66-17.59,0,0,.69-25.95-4.66-14.74C175,69.67,90,35.27,92.73,70.41Z" style="fill:#414042"/><path d="M98.75,79c-.43.13-5.3,17,2,32.15,6.22,13,14.32,18.31,14.67,18.09s-6.57-4.85-13.11-18.71C94.4,93.91,99.16,78.92,98.75,79Z" style="fill:#616161"/><rect x="78.89" y="131.38" width="16.7" height="111.17" rx="8.35" ry="8.35" transform="translate(31.04 -11.55) rotate(9.21)" style="fill:#fdc"/><rect x="179.52" y="132.68" width="16.7" height="98.5" rx="8.35" ry="8.35" transform="translate(-27.63 33.77) rotate(-9.57)" style="fill:#edbba9"/><rect x="113.27" y="224.68" width="16.7" height="98.5" style="fill:#616161"/><rect x="146.6" y="224.68" width="16.7" height="98.5" style="fill:#616161"/><path d="M164.73,124.44a69.07,69.07,0,0,0-19.58-4V98H130.23v23.11c-6.49.92-3.57,0-6.49.92-12.88,4-12.58,3.45-19.32,9.19L102.88,201l68.77,1.86,7.7-71.06C174.78,127.51,176.35,128.64,164.73,124.44Z" style="fill:#edbba9"/><path d="M164.73,124.22a65.1,65.1,0,0,0-12.62-3.47,4.13,4.13,0,0,1,.44,1.8c0,4-6,7.21-13.5,7.21s-13.5-3.23-13.5-7.21a4,4,0,0,1,.17-1.1,88.67,88.67,0,0,0-10,2.77c-12.31,4.11-11.92,3-19.15,6.26a2.05,2.05,0,0,0-1.2,1.65c-2.4,22.47-4.79,33.68-4.6,46.72.51,34.32-2.34,69.12-7.4,96-3.07,16.34.43,25.63-3.41,34,38.56-2.19,68.53-.77,107.09-3L181.8,133.46C177.22,128.91,176.35,128.7,164.73,124.22Z" style="fill:#da544f"/><path d="M80,308.85l107.09-3L181.8,133.46c-4.11-3.83-3.85-4-13.62-8.1,0,0,12.74,37.06,6.65,51.7-7.81,48.06,12.87,94.49-2.12,103.84-23.94,14.95-27.37,1-55.17,15.45C106.36,302.18,102.29,293.42,80,308.85Z" style="fill:#231f20;opacity:0.06"/><rect x="183.33" y="211.68" width="16.7" height="78.53" rx="8.35" ry="8.35" transform="translate(24.99 -17.25) rotate(5.51)" style="fill:#fdc"/><path d="M183.87,44.81a6.92,6.92,0,0,0-2.75.57C177.55,20.19,159.22,1,137.14,1,113.93,1,94.87,22.18,92.73,49.26a6.91,6.91,0,0,0-2.59-.51,7.39,7.39,0,0,0,0,14.77,6.91,6.91,0,0,0,3-.67c3.4,25.43,21.83,44.86,44.05,44.86,23.28,0,42.39-21.33,44.43-48.53a6.91,6.91,0,0,0,2.3.4,7.39,7.39,0,0,0,0-14.77Z" style="fill:#fdc"/><path d="M173.48,51c-1.62-.26-.48,26.8-11.95,38.7-11.64,12.07-28.07,10.63-27.86,12.6.19,1.76,13.34,4.16,24.63-2.63a33.68,33.68,0,0,0,11.41-11.95C176.75,75.45,175,51.19,173.48,51Z" style="fill:#efc3b6;opacity:0.42"/><ellipse cx="111.09" cy="75.92" rx="10.84" ry="10.73" style="fill:#ff958d"/><ellipse cx="167.02" cy="72.2" rx="10.35" ry="10.24" style="fill:#ff958d"/><path d="M111.4,77.17a31.25,31.25,0,0,0,55.89-5.28" style="fill:none;stroke:#6d5145;stroke-miterlimit:10"/><path d="M177.36,38" style="fill:#6d6e71"/><path d="M93.64,59.09a25.31,25.31,0,0,1,.67-15.85c3.17-7.85,9.78-11.17,14.1-13.34,5-2.53,10.12-3.54,10.36-2.94s-6.06,2.59-12.43,8.64c-2.58,2.45-6.64,6.31-8.55,12.1-3.47,10.5,2.28,20.78,1.07,21.24C98,69.26,95,64.46,93.64,59.09Z" style="fill:#efc3b6;opacity:0.45"/><path d="M75.92,216.36l-4.5,10.82-1,6.08a8.35,8.35,0,0,0,16.48,2.67l2.54-15.67Z" style="fill:#edbba9"/><path d="M98.51,259.91,156,267a2,2,0,0,0,2.2-1.72l7.35-59.77L154.63,189l-46.7-5.74a2,2,0,0,0-2.2,1.72l-8.94,72.71A2,2,0,0,0,98.51,259.91Z" style="fill:#bbdefb"/><path d="M154.76,204.16l10.81,1.33L154.63,189,153,202A2,2,0,0,0,154.76,204.16Z" style="fill:#42a5f5"/><path d="M96.16,263.33l57.51,7.07a2,2,0,0,0,2.2-1.72l7.35-59.77-10.94-16.47-46.7-5.74a2,2,0,0,0-2.2,1.72l-8.94,72.71A2,2,0,0,0,96.16,263.33Z" style="fill:#ffebee"/><path d="M152.41,207.58l10.81,1.33-10.94-16.47-1.59,12.94A2,2,0,0,0,152.41,207.58Z" style="fill:#ef9a9a"/><g style="opacity:0.46"><path d="M144.93,221.23l-4.48-3.33-4.54-3.38a5.53,5.53,0,0,0-5.55-.68L125.12,216,120,218.15a5.53,5.53,0,0,0-3.45,4.54l-.67,5.44-.67,5.44a5.53,5.53,0,0,0,2.24,5.24l4.48,3.33,4.54,3.38a5.53,5.53,0,0,0,5.55.68l5.23-2.17,5.16-2.14a5.53,5.53,0,0,0,3.45-4.54l.67-5.44.67-5.44A5.53,5.53,0,0,0,144.93,221.23Zm-7.86,1.14,1.82.22a.76.76,0,0,1,.66.84l-3.32-.41A.76.76,0,0,1,137.07,222.37Zm-10.71-1.12c1-.3,2.55.25,4,1.63s1.34,2.33,1.34,2.33a5.84,5.84,0,0,0-1.85-1.29c-.76-.19-1.05-.27-1.59.19a2,2,0,0,0-.58,1.27l-2-.27a3.2,3.2,0,0,0-.65-1.55c-.5-.48-.71-.43-.71-.43l.13-1.83A4.22,4.22,0,0,0,126.35,221.25Zm-3.53,1.8.13-1.79,1.08.08-.13,1.79Zm13.05,16.5-.42-1.08,1.1.14Zm1-1.41-.1.14-1.48-.18-.06-.16-.64-1.62,1.65.2,1.65.2Zm2.54-5.65a8.79,8.79,0,0,1-1,0l-.49,3.94-.59-.07.48-3.9-.36,0-.48,3.89-1.45-.18.47-3.82-.36,0-.47,3.8-.57-.07.46-3.77c-2.92-.23-6.46-.54-7.8-.66l-.41,6.15s-.29.35-1.43.21-1.3-.68-1.3-.68l.75-6.18a3,3,0,0,1-1.65-1.83c-.12-.8.51-1.4,1-1.09a1.54,1.54,0,0,0,1,.23l.36-2.94,2.09.34-.16,2.42,7.9,1.42.76-6.19.57.07-.77,6.22.35.06.77-6.24,1.45.18-.78,6.32.35.06.78-6.34.59.07-.78,6.37.91.16s.6,0,.76.82A1.1,1.1,0,0,1,139.43,232.47Z" style="fill:#da544f"/><path d="M126,228.85c-1.49.6-1.92-.1-1.92-.1.08.51.19.73,1.12,1.63s1.7.75,2.26.1A1.12,1.12,0,0,0,126,228.85Z" style="fill:#da544f"/><path d="M139.37,231,131,229.54a.81.81,0,0,1-.17,1.37l8.39,1a.38.38,0,0,0,.29-.09.5.5,0,0,0,.17-.57A.39.39,0,0,0,139.37,231Z" style="fill:#da544f"/><path d="M130.24,229.31l-2.13-.38a1.29,1.29,0,0,1-.24,1.85l0,0,2.2.15a1,1,0,0,0,.2-1.64Z" style="fill:#da544f"/></g><path d="M94.4,229.95c2.44-.4,3.08,1.09,8.87,2.43,1.59.37,1.47.89,2.53,1.18,3.54,1,4.05,1.88,6.15,1.85,1,0,1.52-.23,2,.17a2.34,2.34,0,0,1,0,2.84c-1.16,1.49-4.44.68-6.27.23-3.86-.95-3.57-2.05-7.1-2.89-2-.48-2.75-.28-7.11-1.13-2.66-.52-3.38-.79-3.45-1.23C89.89,232.59,92.25,230.3,94.4,229.95Z" style="fill:#f7d1c4"/><path d="M77.91,220c-1.42-5.85,2.65-9.66,5.4-11.52-6.67,1.67-10.2,7.41-4.72,13.53" style="fill:#edbba9"/><path d="M94.09,225.22c2.93-.48,4.12,1,11.07,2.58,1.91.44,1.78.32,3.05.67,4.25,1.15,4.86,2.26,7.38,2.22,1.18,0,1.82-.27,2.37.21a2.81,2.81,0,0,1,.05,3.41c-1.39,1.79-5.33.82-7.53.28-4.64-1.14-4.69-1.18-8.92-2.18-2.41-.57-2.9-1.62-8.14-2.65-3.2-.63-4.05-.95-4.14-1.48C89.12,227.31,91.51,225.64,94.09,225.22Z" style="fill:#f7ccba"/><path d="M85.73,235.27l-.41-.29Z" style="fill:#fdc"/><path d="M85,234.73l-.29-.23Z" style="fill:#fdc"/><path d="M86.48,235.75l-.49-.31Z" style="fill:#fdc"/><path d="M105.54,203.58c-5.93-.16-13.31,1.59-14,2.22-3.44-.08-7.75,1.59-10.44,3.06-2.23,2.37-4.52,5-4.34,11,.13,4.34,4.55,8.59,5.16,9.59,2.2,3.65,2.75,4.95,4.53,6.34.25.15.52.31.79.45,3.46,1.8,5,.86,9.53,2.45,3.7,1.29,3.63,2.22,7.27,3.13,1.5.37,5.78,1.44,7.15-.41a1.78,1.78,0,0,0,.38-1.35c-.3-1.4-3-1.63-6.26-2.67a32,32,0,0,1-5.89-2.53l-2.52-.66a1.6,1.6,0,0,0,1.14-.31,1.51,1.51,0,0,0,.57-.91c.1-.62-.34-.85-.23-1.36s.35-.4.9-1a4.11,4.11,0,0,0,1.13-1.77c.21-.78-.09-1.12.22-1.57a1.68,1.68,0,0,1,1.25-.59c4.56,1.85,8.79,1.87,11.28,3.26.64.36,7.11,2.22,7.91-.14.44-1.31-1.14-2.94-1.63-3.45-1.83-1.89-3.92-2.11-8.09-3.21-3.78-1-5.71-1.44-6.59-2-5.78-3.9-8.55-8.35-6-10.61,1.29-1.12,3.71-.72,8.35-2,1.78-.49,3.23,0,3.45-1.42s.67-1.84.16-2.2C109,203.64,106.59,203.61,105.54,203.58Z" style="fill:#fdc"/><path d="M79.51,228.55" style="fill:#edbba9"/><path d="M95.67,237.35c0-.09.67-.12,1.14-.65.63-.73.13-1.6.55-2s1.91.47,4.19,1.5c2.57,1.16,4.47,1.57,4.44,1.69s-1-.21-3-.48a23.82,23.82,0,0,0-3.66-.3C97.36,237.14,95.7,237.5,95.67,237.35Z" style="fill:#f7d1c4"/><path d="M97.14,204.29c-.52.31-1,.09-1.55.4a6.17,6.17,0,0,0-1.26,1.14A5.37,5.37,0,0,0,93,209c0,1.24,1,2,2.43,3.31a41,41,0,0,1,6.48,8,20.59,20.59,0,0,1,1.56,3.42,3.13,3.13,0,0,1-.69,2.38,2.74,2.74,0,0,1-.87.64c4.56,1.85,8.79,1.87,11.28,3.26.64.36,7.11,2.22,7.91-.14.44-1.31-1.14-2.94-1.63-3.45-1.83-1.89-3.92-2.11-8.09-3.21-3.78-1-5.71-1.44-6.59-2-5.78-3.9-8.55-8.35-6-10.61,1.29-1.12,3.71-.72,8.35-2,1.78-.49,3.23,0,3.45-1.42s.67-1.84.16-2.2c-1.84-1.33-5.24-1.31-5.24-1.31A45.13,45.13,0,0,0,97.14,204.29Z" style="fill:#efc0af"/><polygon points="101.73 201.84 100.4 212.62 112.1 213.35 114.42 199.48 101.73 201.84" style="fill:#ffebee"/><circle cx="116.04" cy="53.54" r="6.33" style="fill:#414042"/><circle cx="157.65" cy="53.21" r="6.33" style="fill:#414042"/><path d="M122.37,44.88c-.26-.32-3.92-4.63-9.67-4a11,11,0,0,0-9,7" style="fill:none;stroke:#414042;stroke-miterlimit:10;stroke-width:2px"/><g style="opacity:0.14"><polygon points="113.47 42.23 104.71 70.41 110.71 71.1 119.87 42.1 113.47 42.23" style="fill:#fafafa"/><polygon points="121.22 42.85 112.09 71.1 114.22 71.1 122.93 43.35 121.22 42.85" style="fill:#fafafa"/></g><g style="opacity:0.15"><polygon points="162.08 41.84 153.32 70.02 159.32 70.71 168.48 41.71 162.08 41.84" style="fill:#fafafa"/><polygon points="169.83 42.46 160.7 70.71 162.83 70.71 171.54 42.96 169.83 42.46" style="fill:#fafafa"/></g><path d="M183.6,42.77a.55.55,0,0,0-.45-.56c-.2-.05-.4-.11-.61-.14-2.91-.46-5.83-.9-8.77-1.11-2.35-.16-4.7-.27-7.05-.37a79.5,79.5,0,0,0-13.56.47,44.45,44.45,0,0,0-8.13,1.7c-1.34.43-2.65.94-4,1.36a13.06,13.06,0,0,1-6.4.55,31.46,31.46,0,0,1-3.86-1,55,55,0,0,0-7-1.91,71.51,71.51,0,0,0-13.6-1.2,82.91,82.91,0,0,0-9.87.51c-2.59.31-5.18.66-7.77,1a13.8,13.8,0,0,0-1.63.38.59.59,0,0,0-.49.59c-.05,1.53-.1,3.06-.14,4.59a4.06,4.06,0,0,0,.09.69.51.51,0,0,0,.32.41,3.4,3.4,0,0,1,.58.29,4.59,4.59,0,0,1,1.59,2.42c.23.67.38,1.36.57,2,.12.42.28.84.37,1.26.45,2,.87,4,1.33,6a22.82,22.82,0,0,0,1.92,5.5,8.88,8.88,0,0,0,4.52,4.29,16.89,16.89,0,0,0,3.87,1.06,31.27,31.27,0,0,0,7.17.25,32.83,32.83,0,0,0,7.17-1.25,13,13,0,0,0,4.77-2.44,21.89,21.89,0,0,0,5.15-6.43A44.23,44.23,0,0,0,132.8,54c.24-.76.46-1.53.74-2.28a2.86,2.86,0,0,1,2.37-2,5.45,5.45,0,0,1,1.14-.05,3,3,0,0,1,2.32,1,4.84,4.84,0,0,1,.66,1.05,21.82,21.82,0,0,1,.87,2.23,45.81,45.81,0,0,0,4.15,9.39,15.16,15.16,0,0,0,5.87,5.84,19.54,19.54,0,0,0,5.68,2,38.45,38.45,0,0,0,9,.59,22.15,22.15,0,0,0,5.41-.84,8.83,8.83,0,0,0,4.59-2.94,13.19,13.19,0,0,0,1.81-3.21,46.72,46.72,0,0,0,2.2-7.46q.42-1.86.87-3.71c.16-.65.36-1.28.54-1.92a5.11,5.11,0,0,1,.69-1.73,3.12,3.12,0,0,1,1.41-1.26.71.71,0,0,0,.48-.56,2.87,2.87,0,0,0,.09-.62c0-.92,0-1.83,0-2.74,0-.66-.09-1.31-.13-2m-89.36,2.9c-1,0-1.79-.2-1.79-.44s.8-.44,1.79-.44S96,45,96,45.23s-.8.44-1.79.44m34.6,9.68a27.12,27.12,0,0,1-3,7.54,15.86,15.86,0,0,1-2.7,3.54A11.25,11.25,0,0,1,118,69.1a28.77,28.77,0,0,1-11.66.67c-.77-.12-1.53-.32-2.29-.51a6.11,6.11,0,0,1-3.64-2.65,14.58,14.58,0,0,1-2-4.83,51.12,51.12,0,0,1-1.06-6.83,17.85,17.85,0,0,1,.06-4,19.4,19.4,0,0,1,.29-2,5.55,5.55,0,0,1,4.28-4.4,37.14,37.14,0,0,1,6.42-1.05c1.61-.13,3.22-.2,4.26-.26a45.59,45.59,0,0,1,9.86,1,14.47,14.47,0,0,1,3.65,1.15,9.63,9.63,0,0,1,1.6,1.06,4.12,4.12,0,0,1,1.4,2.61,15.76,15.76,0,0,1-.33,6.29m47.87-1a28.27,28.27,0,0,1-1.77,9.4,8.78,8.78,0,0,1-2,3.28A8.36,8.36,0,0,1,169.11,69a21.06,21.06,0,0,1-5.37.61,37.22,37.22,0,0,1-8.1-.88,11,11,0,0,1-6.43-4,22.35,22.35,0,0,1-4.3-9.08,18.78,18.78,0,0,1-.62-4.69,13.23,13.23,0,0,1,.21-2.05,4.4,4.4,0,0,1,2.9-3.42,26.67,26.67,0,0,1,4.85-1.35,42.61,42.61,0,0,1,5.56-.76c1.46-.09,2.92-.13,3.91-.18a46.67,46.67,0,0,1,10.67,1.43,11.91,11.91,0,0,1,1.78.72,2.61,2.61,0,0,1,1.24,1.22,20.05,20.05,0,0,1,.85,1.83,7.24,7.24,0,0,1,.37,2.3c0,1.24.11,2.48.08,3.71m3.09-8.69c-1,0-1.79-.2-1.79-.44s.8-.44,1.79-.44,1.79.2,1.79.44-.8.44-1.79.44"/><path d="M109.36,27.31a83.21,83.21,0,0,0,23.25,14.25c10.67,4.32,21.34,6.06,21.5,5.5a66.49,66.49,0,0,1-18.62-6.62c-5.31-2.88-10-6.47-9.75-6.87s6.4,3.88,14.5,7.13C156.54,47.2,171,45.55,171,45.43a61.48,61.48,0,0,1-23.12-4.25c-8.06-3.16-14.46-7.69-14.12-8.37s9,4,22.88,7.5c16,4,29.53,3.81,29.63,3.13,0-.24-1.61-.29-3.12-1.62-2.71-2.39-2.5-6.65-2.5-7.75,0-8.26-10.28-19.2-14.75-23.17C151.33-2,132.2,0,130.69.22c-16.32,2-26.9,12.87-26.88,15.4a6.49,6.49,0,0,0,.1,1.82,3.58,3.58,0,0,0-1.46-.2c-1.71-.15-5.79,3.06-8.68,10.55C88.23,42.15,92.21,60.12,93,60.06c.51,0-2.35-7.29.41-17.94,1.06-4.07,3.8-7.3,5-10a14.51,14.51,0,0,0,10.92-4.83Z" style="fill:#414042"/><path d="M187.81,297.85c-2.23,1.09-1.88,2.67-5.82,7.12-1.08,1.22-.68,1.58-1.38,2.42-2.33,2.83-2.21,3.88-3.94,5.07-.81.56-1.37.7-1.51,1.28a2.34,2.34,0,0,0,1.61,2.34c1.81.54,4-2,5.25-3.45,2.6-3,1.72-3.74,4.11-6.47,1.36-1.55,2.08-1.82,5.14-5,1.87-2,2.29-2.6,2.1-3C193,297.39,189.77,296.89,187.81,297.85Z" style="fill:#f7d1c4"/><path d="M195.51,280.22c-2.23-5.59-7.76-6.34-11.08-6.26,6.4-2.5,12.61.13,11.69,8.29" style="fill:#edbba9"/><path d="M185.33,293.81c-2.67,1.31-2.79,3.18-7.53,8.52-1.3,1.47-1.26,1.3-2.1,2.31-2.8,3.4-2.66,4.66-4.73,6.08-1,.67-1.64.84-1.81,1.54a2.81,2.81,0,0,0,1.94,2.81c2.17.65,4.82-2.42,6.3-4.14,3.12-3.61,3.14-3.68,6-7,1.63-1.86,1.43-3,5.1-6.87,2.24-2.36,2.75-3.12,2.52-3.61C190.58,292.64,187.67,292.66,185.33,293.81Z" style="fill:#f7ccba"/><path d="M198,297.16l.16-.47Z" style="fill:#fdc"/><path d="M198.25,296.3l.1-.35Z" style="fill:#fdc"/><path d="M197.63,298c.08-.18.15-.36.22-.54C197.78,297.63,197.71,297.81,197.63,298Z" style="fill:#fdc"/><path d="M163.46,282.81c4.74-3.57,11.77-6.42,12.67-6.28,2.76-2.06,7.24-3.19,10.28-3.55,3.18.64,6.58,1.44,9.9,6.42,2.41,3.61,1.27,9.64,1.35,10.8.32,4.25.63,5.63,0,7.79-.12.27-.24.55-.39.83-1.77,3.47-3.54,3.57-6.34,7.52-2.27,3.19-1.67,3.92-4.11,6.76-1,1.17-3.88,4.53-6.07,3.81a1.78,1.78,0,0,1-1.09-.88c-.56-1.32,1.47-3,3.56-5.8a32,32,0,0,0,3.33-5.47l1.67-2a1.6,1.6,0,0,1-1.11.41,1.51,1.51,0,0,1-1-.42c-.44-.45-.21-.89-.6-1.24s-.52-.12-1.28-.26a4.11,4.11,0,0,1-1.95-.78c-.62-.52-.58-1-1.09-1.15a1.68,1.68,0,0,0-1.36.24c-2.65,4.15-6.08,6.62-7.3,9.2-.31.66-4.51,5.93-6.53,4.46-1.12-.81-.78-3.05-.67-3.76.4-2.6,2-4,4.73-7.3,2.51-3,3.82-4.48,4.19-5.48,2.45-6.53,2.13-11.76-1.29-12.1-1.7-.17-3.45,1.56-8,3.2-1.73.63-2.65,1.85-3.63.84s-1.61-1.11-1.41-1.7C160.63,284.89,162.62,283.44,163.46,282.81Z" style="fill:#fdc"/><path d="M199.14,288.08" style="fill:#edbba9"/><path d="M191.06,304.62c0-.09-.62.3-1.31.13-.94-.23-1-1.23-1.59-1.29-.73-.08-1.28,1.49-2.55,3.65-1.43,2.43-2.74,3.87-2.63,4s.73-.78,2.14-2.1a23.82,23.82,0,0,1,2.81-2.37C189.57,305.43,191.13,304.75,191.06,304.62Z" style="fill:#f7d1c4"/><path d="M170.71,278.53c.6-.05.89-.52,1.5-.58a6.17,6.17,0,0,1,1.69.2,5.37,5.37,0,0,1,2.9,1.78c.68,1,.32,2.19-.06,4.1a41,41,0,0,0-.65,10.27,20.59,20.59,0,0,0,.71,3.69,3.13,3.13,0,0,0,1.94,1.54,2.74,2.74,0,0,0,1.08,0c-2.65,4.15-6.08,6.62-7.3,9.2-.31.66-4.51,5.93-6.53,4.46-1.12-.81-.78-3.05-.67-3.76.4-2.6,2-4,4.73-7.3,2.51-3,3.82-4.48,4.19-5.48,2.45-6.53,2.13-11.76-1.29-12.1-1.7-.17-3.45,1.56-8,3.2-1.73.63-2.65,1.85-3.63.84s-1.61-1.11-1.41-1.7c.73-2.15,3.51-4.1,3.51-4.1A45.13,45.13,0,0,1,170.71,278.53Z" style="fill:#efc0af"/><path d="M126.76,22.18c-.21.4,11.07,8.25,27,13.67,13.67,4.65,25.58,5.74,25.67,5.33s-10.09-2-24.58-7C137.43,28.21,127,21.81,126.76,22.18Z" style="fill:#616161"/><path d="M179.6,34c.23-.39-7.39-16.17-22.93-22.62-13.34-5.54-22.89-4.07-23-3.67s8.13-.78,22.26,5.17C172.91,20,179.38,34.34,179.6,34Z" style="fill:#616161"/><path d="M105.73,20.5c-.21.4,11.07,8.25,27,13.67,13.67,4.65,25.58,5.74,25.67,5.33s-10.09-2-24.58-7C116.4,26.53,105.93,20.12,105.73,20.5Z" style="fill:#616161"/></g></g></svg>