<svg xmlns="http://www.w3.org/2000/svg" viewBox="0 0 314.84 364.16"><title>BA</title><g id="ca3f92a2-d7d7-466f-9fb1-d88a44feeed0" data-name="Layer 2"><g id="e6b25507-8493-4642-864f-38401d3338de" data-name="Layer 1"><g style="opacity:0.85"><rect x="36.96" y="290.74" width="7.8" height="24.71" style="fill:#e6ee9c"/><rect x="29.16" y="303.1" width="7.8" height="12.36" style="fill:#f0f4c3"/><rect x="44.76" y="280.8" width="7.8" height="34.66" style="fill:#dce775"/><rect x="52.56" y="265.48" width="7.8" height="50.18" style="fill:#c0ca33"/><rect x="60.36" y="273.58" width="7.8" height="42.08" style="fill:#d4e157"/><rect x="19.67" y="315.54" width="7.8" height="10.36" transform="translate(47.15 641.44) rotate(-180)" style="fill:#ff7043"/><rect x="11.88" y="315.54" width="7.8" height="14.53" transform="translate(31.55 645.61) rotate(-180)" style="fill:#f4511e"/><rect x="4.08" y="315.45" width="7.8" height="21.04" transform="translate(15.95 651.95) rotate(-180)" style="fill:#d84315"/><rect x="68.16" y="294.62" width="7.8" height="21.04" style="fill:#ffeb3b"/><rect x="76.32" y="284.81" width="7.8" height="30.85" style="fill:#fdd835"/><rect x="84.39" y="267.27" width="7.8" height="48.39" style="fill:#fbc02d"/><rect x="91.75" y="235.79" width="7.8" height="79.84" style="fill:#f57f17"/><polyline points="0.17 333.57 7.97 336.49 15.78 330.07 23.57 325.97 33.06 303.1 40.86 290.57 48.66 280.8 56.46 264.35 64.26 273.58 72.06 294.62 80.22 284.81 88.29 267.27 95.65 235.8" style="fill:none;stroke:#bdbdbd;stroke-miterlimit:10"/></g><g style="opacity:0.75"><polyline points="23.76 157.68 74.95 145.64 122.09 157.68 161.15 135.87 189.43 77.21 229.44 45.52 279.54 25.61" style="fill:none;stroke:#616161;stroke-miterlimit:10;stroke-width:2px"/><circle cx="74.95" cy="145.64" r="5.05" style="fill:#616161"/><circle cx="122.09" cy="157.68" r="5.05" style="fill:#f57f17"/><circle cx="161.15" cy="135.86" r="5.05" style="fill:#616161"/><circle cx="189.43" cy="77.21" r="5.05" style="fill:#f57f17"/><circle cx="229.44" cy="45.52" r="5.05" style="fill:#f57f17"/><circle cx="279.54" cy="26.54" r="5.05" style="fill:#c0ca33"/><circle cx="23.76" cy="157.68" r="5.05" style="fill:#f57f17"/></g><path d="M223.9,234.72h87.94a3,3,0,0,0,3-3v-91.4l-19.54-22.79H223.9a3,3,0,0,0-3,3V231.72A3,3,0,0,0,223.9,234.72Z" style="fill:#ffebee"/><path d="M220.9,231.72a3,3,0,0,0,3,3h87.94a3,3,0,0,0,3-3V217H220.9Z" style="fill:#da544f"/><rect x="228.05" y="133.84" width="52.08" height="38.88" style="fill:#ef9a9a;opacity:0.2"/><rect x="227.49" y="179.63" width="52.81" height="4.44" style="fill:#ef9a9a;opacity:0.30000000000000004"/><polygon points="305.06 133.84 287.05 133.84 287.05 183.37 307.78 183.37 307.78 137.02 305.06 133.84" style="fill:#ef9a9a;opacity:0.25"/><rect x="227.49" y="190.98" width="52.81" height="14.83" style="fill:#ef9a9a;opacity:0.5"/><rect x="287.32" y="190.98" width="21.03" height="15.27" style="fill:#ef9a9a;opacity:0.2"/><path d="M298.3,140.32h16.54l-19.54-22.79v19.79A3,3,0,0,0,298.3,140.32Z" style="fill:#ef9a9a"/><path d="M240.15,224.8c0-.25-.42-.38-1.26-.39.18-1.69.26-2.57.26-2.62,0-.3-.31-.48-.64-.48a2.56,2.56,0,0,0-1,.27,1.82,1.82,0,0,0-.79.54,1,1,0,0,0-.14.37c0,.17-.06.28-.07.59s0,.42,0,.87l0,.52c-1.19.05-2.15.14-2.89.25.19-1.95.29-2.91.29-2.92a.56.56,0,0,0-.62-.49,2.56,2.56,0,0,0-1,.27,1.74,1.74,0,0,0-.79.55,1.48,1.48,0,0,0-.18.74l0,.58,0,.84,0,1a2.29,2.29,0,0,0-.32.16,1.72,1.72,0,0,0-.39.59,1.75,1.75,0,0,0-.17.65c0,.14,0,.22.11.22a2.9,2.9,0,0,0,.68-.11q-.06.85-.21,2c-.08.73-.13,1.2-.13,1.39,0,.42.14.64.43.64,1.5,0,2.11-.46,2.11-.88q0-1.76.12-3.16l.06-.64q1.19-.28,3-.59l-.06.9c0,.63-.1,1.33-.19,2.1s-.14,1.25-.14,1.44c0,.48.11.67.43.67,1.49,0,2.11-.46,2.11-.89,0-1.13,0-2.15.13-3.08l.14-1.44c.93-.12,1.35-.21,1.35-.39Z" style="fill:#fff"/><path d="M246.1,227.94c-.37,0-.39.63-.85.63q-.46,0-.46-1.47a6.94,6.94,0,0,1,.17-1.44c.11-.52.17-.82.17-.87a.47.47,0,0,0-.5-.43,1.7,1.7,0,0,0-1,.4c-.17-.27-.53-.4-1.07-.4a2.77,2.77,0,0,0-1.72.66,3,3,0,0,0-.93,2.35,2.29,2.29,0,0,0,.79,1.88,1.73,1.73,0,0,0,1.14.38,2.17,2.17,0,0,0,1.5-.53,1.62,1.62,0,0,0,1.35.53,1.64,1.64,0,0,0,1.29-.49,1.41,1.41,0,0,0,.46-.86.33.33,0,0,0-.33-.35Zm-3.83.64c-.18,0-.36-.07-.53-.58a3.85,3.85,0,0,1-.11-1,2.65,2.65,0,0,1,.22-1.11c.15-.34.36-.51.64-.51s.28.07.28.2-.12.45-.12.54.12.29.37.29q-.08,1-.08,1.4a.64.64,0,0,0,0,.2.75.75,0,0,1-.69.57Z" style="fill:#fff"/><path d="M251.88,227.94c-.37,0-.39.63-.85.63s-.5-.32-.5-.93a8.14,8.14,0,0,1,.11-1.08,8.17,8.17,0,0,0,.11-1c0-.77-.36-1.15-1.08-1.15a1.91,1.91,0,0,0-1.1.41,2.8,2.8,0,0,0-.82.87,5.37,5.37,0,0,1,.15-.54,1.6,1.6,0,0,0,.13-.45q0-.39-.46-.39a2.26,2.26,0,0,0-.94.26,1,1,0,0,0-.62.6,11.34,11.34,0,0,0-.14,2.23l-.08,1c0,.4-.07.67-.07.82,0,.34.11.51.32.51,1.17,0,1.56-.37,1.56-.76a6.7,6.7,0,0,1,.31-2.19c.21-.6.46-.9.74-.9s.32.16.32.48a6.87,6.87,0,0,1-.11.88,6.19,6.19,0,0,0-.1.91,1.51,1.51,0,0,0,1.72,1.58,1.64,1.64,0,0,0,1.29-.49,1.37,1.37,0,0,0,.46-.84.34.34,0,0,0-.33-.37Z" style="fill:#fff"/><path d="M257.66,227.94c-.37,0-.39.63-.85.63q-.46,0-.46-1.47a26.09,26.09,0,0,1,.4-3c.26-1.6.4-2.42.4-2.48a.46.46,0,0,0-.5-.43,1.59,1.59,0,0,0-.75.24,1.49,1.49,0,0,0-.58.5,21.62,21.62,0,0,0-.46,2.6,1.85,1.85,0,0,0-.75-.13,2.77,2.77,0,0,0-1.72.66,3,3,0,0,0-.93,2.35,2.29,2.29,0,0,0,.79,1.88,1.73,1.73,0,0,0,1.14.38,2.17,2.17,0,0,0,1.5-.53,1.62,1.62,0,0,0,1.35.53,1.64,1.64,0,0,0,1.29-.49,1.41,1.41,0,0,0,.46-.86.33.33,0,0,0-.33-.35Zm-3.83.64c-.18,0-.36-.07-.53-.58a3.85,3.85,0,0,1-.11-1,2.65,2.65,0,0,1,.22-1.11c.15-.34.36-.51.64-.51s.28.07.28.2-.12.45-.12.54.14.29.42.29q-.13,1.17-.13,1.4a.64.64,0,0,0,0,.2.75.75,0,0,1-.69.57Z" style="fill:#fff"/><path d="M266.25,227.94c-.13,0-.26.11-.4.32a.54.54,0,0,1-.44.32c-.33,0-.5-.32-.5-.93a8.14,8.14,0,0,1,.11-1.08,8.17,8.17,0,0,0,.11-1c0-.77-.36-1.15-1.08-1.15a2.54,2.54,0,0,0-1.79,1.09c-.08-.73-.42-1.09-1-1.09a1.91,1.91,0,0,0-1.1.41,2.8,2.8,0,0,0-.82.87,3.38,3.38,0,0,1,.17-.53,1.74,1.74,0,0,0,.13-.46c0-.26-.15-.39-.47-.39a2.2,2.2,0,0,0-.93.26,1.06,1.06,0,0,0-.64.6,12.71,12.71,0,0,0-.13,2.23l-.08,1c0,.4-.07.67-.07.82,0,.34.11.51.32.51,1.15,0,1.54-.37,1.54-.76a6.7,6.7,0,0,1,.31-2.19c.21-.6.46-.9.75-.9s.4.21.4.61a7.22,7.22,0,0,1-.19,1.36,6.81,6.81,0,0,0-.18,1.32c0,.38.1.57.31.57,1.17,0,1.56-.37,1.56-.76a8.92,8.92,0,0,1,.22-2.22c.15-.58.37-.87.65-.87s.32.16.32.48a6.9,6.9,0,0,1-.11.88,6.76,6.76,0,0,0-.11.91c0,1,.62,1.58,1.74,1.58a1.64,1.64,0,0,0,1.29-.49,1.37,1.37,0,0,0,.46-.84.34.34,0,0,0-.33-.37Z" style="fill:#fff"/><path d="M272,227.94c-.37,0-.39.63-.85.63q-.46,0-.46-1.47a6.94,6.94,0,0,1,.17-1.44c.11-.52.17-.82.17-.87a.47.47,0,0,0-.5-.43,1.7,1.7,0,0,0-1,.4c-.17-.27-.53-.4-1.07-.4a2.77,2.77,0,0,0-1.72.66,3,3,0,0,0-.93,2.35,2.29,2.29,0,0,0,.79,1.88,1.73,1.73,0,0,0,1.14.38,2.17,2.17,0,0,0,1.5-.53,1.62,1.62,0,0,0,1.35.53,1.64,1.64,0,0,0,1.29-.49,1.41,1.41,0,0,0,.46-.86.33.33,0,0,0-.33-.35Zm-3.83.64c-.18,0-.36-.07-.53-.58a3.85,3.85,0,0,1-.11-1,2.65,2.65,0,0,1,.22-1.11c.15-.34.36-.51.64-.51s.28.07.28.2-.13.45-.13.54.13.29.37.29q-.08,1-.08,1.4a.64.64,0,0,0,0,.2.75.75,0,0,1-.69.57Z" style="fill:#fff"/><path d="M277.8,227.94c-.37,0-.39.63-.85.63q-.46,0-.46-1.47a26.06,26.06,0,0,1,.4-3c.26-1.6.4-2.42.4-2.48a.46.46,0,0,0-.5-.43,1.59,1.59,0,0,0-.75.24,1.49,1.49,0,0,0-.58.5,21.57,21.57,0,0,0-.46,2.6,1.85,1.85,0,0,0-.75-.13,2.77,2.77,0,0,0-1.72.66,3,3,0,0,0-.93,2.35,2.29,2.29,0,0,0,.79,1.88,1.73,1.73,0,0,0,1.14.38,2.17,2.17,0,0,0,1.5-.53,1.62,1.62,0,0,0,1.35.53,1.64,1.64,0,0,0,1.29-.49,1.41,1.41,0,0,0,.46-.86.33.33,0,0,0-.33-.35Zm-3.83.64c-.18,0-.36-.07-.53-.58a3.84,3.84,0,0,1-.11-1,2.65,2.65,0,0,1,.22-1.11c.15-.34.36-.51.64-.51s.28.07.28.2-.12.45-.12.54.14.29.42.29q-.13,1.17-.13,1.4a.65.65,0,0,0,0,.2.75.75,0,0,1-.69.57Z" style="fill:#fff"/><path d="M282.55,228.29c0-.33-.32-.46-.58-.23a1.69,1.69,0,0,1-1.31.6,1.3,1.3,0,0,1-1.31-.86A4.65,4.65,0,0,0,281,227a1.62,1.62,0,0,0,.74-1.32c0-.75-.6-1.35-1.61-1.35a2.59,2.59,0,0,0-1.93.83,2.75,2.75,0,0,0-.79,2,2.28,2.28,0,0,0,.75,1.79,2.82,2.82,0,0,0,1.92.66,3.51,3.51,0,0,0,1.74-.42c.51-.29.76-.6.76-.92Zm-2.64-2.9a.5.5,0,0,1,.46.55c0,.45-.39.84-1.17,1.15a.79.79,0,0,1,0-.21c0-.83.28-1.5.72-1.5Z" style="fill:#fff"/><path d="M288.17,227.94c-.37,0-.39.63-.85.63s-.5-.32-.5-.93a8.17,8.17,0,0,1,.11-1.08,8.14,8.14,0,0,0,.11-1c0-.77-.36-1.15-1.08-1.15a1.91,1.91,0,0,0-1.1.41,2.8,2.8,0,0,0-.82.87,5.38,5.38,0,0,1,.15-.54,1.59,1.59,0,0,0,.12-.45q0-.39-.46-.39a2.26,2.26,0,0,0-.94.26,1,1,0,0,0-.62.6,11.38,11.38,0,0,0-.14,2.23l-.08,1c0,.4-.07.67-.07.82,0,.34.11.51.32.51,1.17,0,1.56-.37,1.56-.76a6.7,6.7,0,0,1,.31-2.19c.21-.6.46-.9.74-.9s.32.16.32.48a6.9,6.9,0,0,1-.11.88,6.16,6.16,0,0,0-.1.91,1.51,1.51,0,0,0,1.72,1.58,1.64,1.64,0,0,0,1.29-.49,1.37,1.37,0,0,0,.46-.84.34.34,0,0,0-.33-.37Z" style="fill:#fff"/><path d="M292.92,228.29c0-.33-.32-.46-.58-.23a1.69,1.69,0,0,1-1.31.6,1.3,1.3,0,0,1-1.31-.86,4.64,4.64,0,0,0,1.62-.77,1.62,1.62,0,0,0,.74-1.32c0-.75-.6-1.35-1.61-1.35a2.59,2.59,0,0,0-1.93.83,2.75,2.75,0,0,0-.79,2,2.28,2.28,0,0,0,.75,1.79,2.82,2.82,0,0,0,1.92.66,3.52,3.52,0,0,0,1.74-.42c.51-.29.76-.6.76-.92Zm-2.64-2.9a.5.5,0,0,1,.46.55c0,.45-.39.84-1.17,1.15a.79.79,0,0,1,0-.21c0-.83.28-1.5.72-1.5Z" style="fill:#fff"/><path d="M297.16,228.2c0-1-1.08-1.5-1.9-1.79-.57-.22-1-.46-1-.75s.25-.4.62-.4.61.24.61.51c0,.09,0,.29,0,.35s.14.25.42.25c.61,0,1.17-.37,1.17-.89s-.82-1.11-2-1.11a3.32,3.32,0,0,0-1.67.39,1.23,1.23,0,0,0-.69,1.11c0,1.55,2.79,1.43,2.79,2.51,0,.32-.21.47-.62.47a.87.87,0,0,1-1-.89c0-.1,0-.24,0-.29,0-.23-.14-.35-.43-.35a1.57,1.57,0,0,0-.79.23.76.76,0,0,0-.37.7,1.27,1.27,0,0,0,.67,1.05,3.38,3.38,0,0,0,1.85.43c1.39,0,2.37-.53,2.37-1.52Z" style="fill:#fff"/><path d="M299.12,224.36a1.59,1.59,0,0,0-.75.24,1.43,1.43,0,0,0-.57.51,3.44,3.44,0,0,0-.25,1.12,13.32,13.32,0,0,0-.1,1.6,1.57,1.57,0,0,0,1.75,1.8,1.76,1.76,0,0,0,1-.28,1.62,1.62,0,0,0,.58-.57,1.2,1.2,0,0,0,.15-.48.35.35,0,0,0-.33-.37c-.13,0-.26.11-.4.32s-.28.32-.43.32c-.33,0-.47-.38-.47-1.47a7.94,7.94,0,0,1,.15-1.44c.11-.52.17-.82.17-.87a.46.46,0,0,0-.5-.43Zm1.14-1.85c0-.4-.35-.59-.83-.59a1.61,1.61,0,0,0-.87.27.79.79,0,0,0-.43.72c0,.64.26,1,.81,1a1.37,1.37,0,0,0,.9-.38,1.26,1.26,0,0,0,.43-1Z" style="fill:#fff"/><path d="M306.38,227.94c-.38,0-.39.63-.85.63q-.46,0-.46-1.47a6.93,6.93,0,0,1,.17-1.44c.11-.52.17-.82.17-.87a.47.47,0,0,0-.5-.43,1.7,1.7,0,0,0-1,.4c-.17-.27-.53-.4-1.07-.4a2.77,2.77,0,0,0-1.72.66,3,3,0,0,0-.93,2.35,2.29,2.29,0,0,0,.79,1.88,1.73,1.73,0,0,0,1.14.38,2.17,2.17,0,0,0,1.5-.53,1.62,1.62,0,0,0,1.35.53,1.64,1.64,0,0,0,1.29-.49,1.41,1.41,0,0,0,.46-.86.33.33,0,0,0-.33-.35Zm-3.83.64c-.18,0-.36-.07-.53-.58a3.84,3.84,0,0,1-.11-1,2.65,2.65,0,0,1,.22-1.11c.15-.34.36-.51.64-.51s.28.07.28.2-.13.45-.13.54.13.29.38.29q-.08,1-.08,1.4a.65.65,0,0,0,0,.2.75.75,0,0,1-.69.57Z" style="fill:#fff"/><rect x="104.54" y="172.36" width="16.7" height="111.17" rx="8.35" ry="8.35" transform="translate(37.93 -15.13) rotate(9.21)" style="fill:#fdc"/><rect x="203.37" y="172.66" width="16.7" height="98.5" rx="8.35" ry="8.35" transform="translate(-33.95 38.29) rotate(-9.57)" style="fill:#edbba9"/><rect x="138.91" y="265.66" width="16.7" height="98.5" style="fill:#6d6e71"/><rect x="172.25" y="265.66" width="16.7" height="98.5" style="fill:#6d6e71"/><rect x="204.41" y="254.02" width="16.7" height="78.53" rx="8.35" ry="8.35" transform="translate(63.35 -36.8) rotate(11.6)" style="fill:#fdc"/><path d="M190.38,165.42a69.07,69.07,0,0,0-19.58-4V138.95H155.88v23.11c-6.49.92-3.57,0-6.49.92-12.88,4-12.58,3.45-19.32,9.19L128.53,242l68.77,1.86,7.7-71.06C200.42,168.49,202,169.62,190.38,165.42Z" style="fill:#edbba9"/><path d="M190.38,165.2a65.1,65.1,0,0,0-12.62-3.47,4.13,4.13,0,0,1,.44,1.8c0,4-6,7.21-13.5,7.21s-13.5-3.23-13.5-7.21a4,4,0,0,1,.17-1.1,88.67,88.67,0,0,0-10,2.77c-12.31,4.11-11.92,3-19.15,6.26a2.05,2.05,0,0,0-1.2,1.65c-2.4,22.47-4.79,33.68-4.6,46.72.51,34.32-2.34,69.12-7.4,96-3.07,16.34.43,25.63-3.41,34,38.56-2.19,68.53-.77,107.09-3l-5.31-172.42C202.87,169.89,202,169.69,190.38,165.2Z" style="fill:#fbc02d"/><ellipse cx="162.55" cy="19.34" rx="17.7" ry="19.34" style="fill:#966754"/><path d="M209.52,85.79a6.92,6.92,0,0,0-2.75.57C203.2,61.17,184.87,42,162.79,42c-23.21,0-42.27,21.18-44.41,48.26a6.91,6.91,0,0,0-2.59-.51,7.39,7.39,0,0,0,0,14.77,6.91,6.91,0,0,0,3-.67c3.4,25.43,21.83,44.86,44.05,44.86,23.28,0,42.39-21.33,44.43-48.53a6.91,6.91,0,0,0,2.3.4,7.39,7.39,0,0,0,0-14.77Z" style="fill:#fdc"/><path d="M199.13,91.93c-1.62-.26-.48,26.8-11.95,38.7-11.64,12.07-28.07,10.63-27.86,12.6.19,1.76,13.34,4.16,24.63-2.63a33.68,33.68,0,0,0,11.41-11.95C202.39,116.43,200.6,92.17,199.13,91.93Z" style="fill:#efc3b6;opacity:0.42"/><ellipse cx="136.74" cy="116.91" rx="10.84" ry="10.73" style="fill:#ff958d"/><ellipse cx="192.67" cy="113.18" rx="10.35" ry="10.24" style="fill:#ff958d"/><path d="M137.05,118.15a31.25,31.25,0,0,0,55.89-5.28" style="fill:none;stroke:#6d5145;stroke-miterlimit:10"/><path d="M203,79" style="fill:#6d6e71"/><path d="M121.34,100.82a25.31,25.31,0,0,1,3.22-15.54C129,78,136,75.84,140.63,74.4c5.39-1.68,10.56-1.86,10.69-1.23s-6.4,1.58-13.66,6.53c-2.94,2-7.57,5.16-10.39,10.57-5.12,9.8-1.1,20.88-2.38,21.13C124,111.56,121.83,106.34,121.34,100.82Z" style="fill:#efc3b6;opacity:0.45"/><path d="M135.76,95.66a13.16,13.16,0,0,0,15.9-.41" style="fill:none;stroke:#414042;stroke-miterlimit:10"/><line x1="143.19" y1="98.13" x2="143.19" y2="100.35" style="fill:none;stroke:#414042;stroke-miterlimit:10"/><line x1="145.49" y1="98.16" x2="146" y2="100.04" style="fill:none;stroke:#414042;stroke-miterlimit:10"/><line x1="147.62" y1="97.5" x2="148.45" y2="99.24" style="fill:none;stroke:#414042;stroke-miterlimit:10"/><line x1="138.9" y1="97.56" x2="137.68" y2="98.45" style="fill:none;stroke:#414042;stroke-miterlimit:10"/><line x1="149.45" y1="96.69" x2="150.83" y2="97.82" style="fill:none;stroke:#414042;stroke-miterlimit:10"/><line x1="140.87" y1="98.19" x2="140.02" y2="99.93" style="fill:none;stroke:#414042;stroke-miterlimit:10"/><ellipse cx="161.86" cy="38.33" rx="12.87" ry="7.72" style="fill:#fbc02d"/><path d="M190.32,95a13.16,13.16,0,0,1-15.9-.41" style="fill:none;stroke:#414042;stroke-miterlimit:10"/><line x1="182.88" y1="97.51" x2="182.88" y2="99.73" style="fill:none;stroke:#414042;stroke-miterlimit:10"/><line x1="180.58" y1="97.54" x2="180.07" y2="99.42" style="fill:none;stroke:#414042;stroke-miterlimit:10"/><line x1="178.45" y1="96.88" x2="177.62" y2="98.62" style="fill:none;stroke:#414042;stroke-miterlimit:10"/><line x1="187.17" y1="96.94" x2="188.39" y2="97.83" style="fill:none;stroke:#414042;stroke-miterlimit:10"/><line x1="176.62" y1="96.07" x2="175.24" y2="97.19" style="fill:none;stroke:#414042;stroke-miterlimit:10"/><line x1="185.2" y1="97.57" x2="186.05" y2="99.31" style="fill:none;stroke:#414042;stroke-miterlimit:10"/><path d="M119.15,86.59c10.34-.92,19.75-3.15,25.7-6.73,0,0,8.94-3.8,14.45-9.63a9.17,9.17,0,0,0,2.52-4.92,6.57,6.57,0,0,0,0-.67s3.71,5.9,14.76,9.91a32.37,32.37,0,0,0,21.08.35,91.1,91.1,0,0,0,3.57,8.86c1.53,3.28,2.85,5.58,3.26,6.29.87,1.5,1.55,2.56,1.63,2.68,1.49,2.35,1.8,10.51-1.63,32.67,12.4-23.46,9.87-55.88-1.53-71.24C190.14,36.8,168.16,37.09,164.2,36.82l-.76-.05C150.41,36,134.5,41,124.1,53.22,113.48,65.68,114,80.29,113.92,87.32c-.2,12.84,2.86,22.67,5.41,28a159.41,159.41,0,0,1-.59-21.68C118.89,90.06,118.8,89.89,119.15,86.59Z" style="fill:#966754"/><path d="M148.27,27.24a44.41,44.41,0,0,0-3.26-4c-5.37-3.11-10.89-2.09-12.59.7s.55,7.5,3.42,9.79c1.85,1.48,3.78,1.81,7.07,2.33a39.3,39.3,0,0,0,10.49.23A44.7,44.7,0,0,0,148.27,27.24Zm-3.05,8.31C143,35.2,141.76,35,140.54,34c-1.9-1.51-3.39-4.61-2.26-6.47S143,25,146.6,27.07a29.42,29.42,0,0,1,5.55,8.63A26,26,0,0,1,145.21,35.54Z" style="fill:#fbc02d"/><path d="M154.45,25.51A44.39,44.39,0,0,0,154,20.4c-2.68-5.6-7.8-7.88-10.78-6.53s-3.78,6.5-2.71,10c.69,2.27,2.09,3.62,4.52,5.92a39.29,39.29,0,0,0,8.53,6.12A44.69,44.69,0,0,0,154.45,25.51Zm-7.21,5.13c-1.6-1.52-2.53-2.41-3-3.91-.71-2.32-.2-5.72,1.79-6.62s5.36.62,7.13,4.32a29.41,29.41,0,0,1-.3,10.26A26,26,0,0,1,147.24,30.65Z" style="fill:#ffee58"/><path d="M172.07,35.53a39.3,39.3,0,0,0,10.49-.23c3.3-.52,5.22-.85,7.07-2.33,2.87-2.29,5.13-7,3.42-9.79s-7.22-3.81-12.59-.7a44.48,44.48,0,0,0-8.39,13.05Zm1.24-.63a29.42,29.42,0,0,1,5.55-8.63c3.55-2.06,7.2-1.39,8.33.46s-.36,5-2.26,6.47c-1.23,1-2.5,1.2-4.68,1.54A26,26,0,0,1,173.31,34.9Z" style="fill:#fbc02d"/><path d="M171.92,35.11A39.29,39.29,0,0,0,180.45,29c2.43-2.29,3.83-3.65,4.52-5.92,1.07-3.51.3-8.65-2.71-10s-8.11.93-10.78,6.53a44.46,44.46,0,0,0,.45,15.51Zm.67-1.22a29.41,29.41,0,0,1-.3-10.26c1.77-3.7,5.16-5.21,7.13-4.32s2.5,4.3,1.79,6.62c-.46,1.5-1.38,2.4-3,3.91A26,26,0,0,1,172.59,33.89Z" style="fill:#fff176"/><polygon points="197.18 75.89 202.18 64.68 202.52 64.92 197.52 75.88 197.18 75.89" style="fill:#414042"/><polygon points="197.39 75.8 202.37 64.89 202.22 64.78 197.3 75.8 197.39 75.8" style="fill:#58595b"/><path d="M101.56,257.34l-4.5,10.82-1,6.08a8.35,8.35,0,0,0,16.48,2.67l2.54-15.67Z" style="fill:#edbba9"/><path d="M124.16,300.89,181.67,308a2,2,0,0,0,2.2-1.72l7.35-59.77L180.28,230l-46.7-5.74a2,2,0,0,0-2.2,1.72l-8.94,72.71A2,2,0,0,0,124.16,300.89Z" style="fill:#bbdefb"/><path d="M180.4,245.14l10.81,1.33L180.28,230l-1.59,12.94A2,2,0,0,0,180.4,245.14Z" style="fill:#42a5f5"/><path d="M121.81,304.31l57.51,7.07a2,2,0,0,0,2.2-1.72l7.35-59.77-10.94-16.47-46.7-5.74a2,2,0,0,0-2.2,1.72l-8.94,72.71A2,2,0,0,0,121.81,304.31Z" style="fill:#ffebee"/><path d="M178.05,248.56l10.81,1.33-10.94-16.47-1.59,12.94A2,2,0,0,0,178.05,248.56Z" style="fill:#ef9a9a"/><g style="opacity:0.46"><path d="M169.57,263.21l-4.48-3.33-4.54-3.38a5.53,5.53,0,0,0-5.55-.68L149.77,258l-5.15,2.14a5.53,5.53,0,0,0-3.45,4.54l-.67,5.44-.67,5.44a5.53,5.53,0,0,0,2.24,5.24l4.48,3.33,4.54,3.38a5.53,5.53,0,0,0,5.55.68l5.23-2.17,5.16-2.14a5.53,5.53,0,0,0,3.45-4.54l.67-5.44.67-5.44A5.53,5.53,0,0,0,169.57,263.21Zm-7.86,1.14,1.82.22a.76.76,0,0,1,.66.84l-3.32-.41A.76.76,0,0,1,161.72,264.35ZM151,263.23c1-.3,2.55.25,4,1.63s1.34,2.33,1.34,2.33a5.84,5.84,0,0,0-1.85-1.29c-.76-.19-1.05-.27-1.59.19a2,2,0,0,0-.58,1.27l-2-.27a3.2,3.2,0,0,0-.65-1.55c-.5-.48-.71-.43-.71-.43l.13-1.83A4.22,4.22,0,0,0,151,263.23Zm-3.53,1.8.13-1.79,1.08.08-.13,1.79Zm13.05,16.5-.42-1.08,1.1.14Zm1-1.41-.1.14-1.48-.18-.06-.16-.64-1.62,1.65.2,1.65.2Zm2.54-5.65a8.79,8.79,0,0,1-1,0l-.49,3.94-.59-.07.48-3.9-.36,0-.48,3.89-1.45-.18.47-3.82-.36,0-.47,3.8-.57-.07.46-3.77c-2.92-.23-6.46-.54-7.8-.66l-.41,6.15s-.29.35-1.43.21-1.3-.68-1.3-.68l.75-6.18a3,3,0,0,1-1.65-1.83c-.12-.8.51-1.4,1-1.09a1.54,1.54,0,0,0,1,.23l.36-2.94,2.09.34-.16,2.42,7.9,1.42.76-6.19.57.07-.77,6.22.35.06.77-6.24,1.45.18-.78,6.32.35.06.78-6.34.59.07-.78,6.37.91.16s.6,0,.76.82A1.1,1.1,0,0,1,164.08,274.46Z" style="fill:#da544f"/><path d="M150.67,270.83c-1.49.6-1.92-.1-1.92-.1.08.51.19.73,1.12,1.63s1.7.75,2.26.1A1.12,1.12,0,0,0,150.67,270.83Z" style="fill:#da544f"/><path d="M164,272.94l-8.38-1.42a.81.81,0,0,1-.17,1.37l8.39,1a.38.38,0,0,0,.29-.09.5.5,0,0,0,.17-.57A.39.39,0,0,0,164,272.94Z" style="fill:#da544f"/><path d="M154.89,271.29l-2.13-.38a1.29,1.29,0,0,1-.24,1.85l0,0,2.2.15a1,1,0,0,0,.2-1.64Z" style="fill:#da544f"/></g><path d="M120,270.93c2.44-.4,3.08,1.09,8.87,2.43,1.59.37,1.47.89,2.53,1.18,3.54,1,4.05,1.88,6.15,1.85,1,0,1.52-.23,2,.17a2.34,2.34,0,0,1,0,2.84c-1.16,1.49-4.44.68-6.27.23-3.86-.95-3.57-2.05-7.1-2.89-2-.48-2.75-.28-7.11-1.13-2.66-.52-3.38-.79-3.45-1.23C115.54,273.57,117.9,271.28,120,270.93Z" style="fill:#f7d1c4"/><path d="M103.56,261c-1.42-5.85,2.65-9.66,5.4-11.52-6.67,1.67-10.2,7.41-4.72,13.53" style="fill:#edbba9"/><path d="M119.73,266.2c2.93-.48,4.12,1,11.07,2.58,1.91.44,1.78.32,3.05.67,4.25,1.15,4.86,2.26,7.38,2.22,1.18,0,1.82-.27,2.37.21a2.81,2.81,0,0,1,.05,3.41c-1.39,1.79-5.33.82-7.53.28-4.64-1.14-4.69-1.18-8.92-2.18-2.41-.57-2.9-1.62-8.14-2.65-3.2-.63-4.05-.95-4.14-1.48C114.77,268.29,117.16,266.62,119.73,266.2Z" style="fill:#f7ccba"/><path d="M111.38,276.25,111,276Z" style="fill:#fdc"/><path d="M110.64,275.71l-.29-.23Z" style="fill:#fdc"/><path d="M112.13,276.74l-.49-.31Z" style="fill:#fdc"/><path d="M131.18,244.56c-5.93-.16-13.31,1.59-14,2.22-3.44-.08-7.75,1.59-10.44,3.06-2.23,2.37-4.52,5-4.34,11,.13,4.34,4.55,8.59,5.16,9.59,2.2,3.65,2.75,4.95,4.53,6.34.25.15.52.31.79.45,3.46,1.8,5,.86,9.53,2.45,3.7,1.29,3.63,2.22,7.27,3.13,1.5.37,5.78,1.44,7.15-.41a1.78,1.78,0,0,0,.38-1.35c-.3-1.4-3-1.63-6.26-2.67a32,32,0,0,1-5.89-2.53l-2.52-.66a1.6,1.6,0,0,0,1.14-.31,1.51,1.51,0,0,0,.57-.91c.1-.62-.34-.85-.23-1.36s.35-.4.9-1a4.11,4.11,0,0,0,1.13-1.77c.21-.78-.09-1.12.22-1.57a1.68,1.68,0,0,1,1.25-.59c4.56,1.85,8.79,1.87,11.28,3.26.64.36,7.11,2.22,7.91-.14.44-1.31-1.14-2.94-1.63-3.45-1.83-1.89-3.92-2.11-8.09-3.21-3.78-1-5.71-1.44-6.59-2-5.78-3.9-8.55-8.35-6-10.61,1.29-1.12,3.71-.72,8.35-2,1.78-.49,3.23,0,3.45-1.42s.67-1.84.16-2.2C134.69,244.62,132.23,244.59,131.18,244.56Z" style="fill:#fdc"/><path d="M105.16,269.53" style="fill:#edbba9"/><path d="M121.32,278.33c0-.09.67-.12,1.14-.65.63-.73.13-1.6.55-2s1.91.47,4.19,1.5c2.57,1.16,4.47,1.57,4.44,1.69s-1-.21-3-.48a23.82,23.82,0,0,0-3.66-.3C123,278.13,121.35,278.48,121.32,278.33Z" style="fill:#f7d1c4"/><path d="M122.79,245.27c-.52.31-1,.09-1.55.4a6.17,6.17,0,0,0-1.26,1.14,5.37,5.37,0,0,0-1.33,3.13c0,1.24,1,2,2.43,3.31a41,41,0,0,1,6.48,8,20.59,20.59,0,0,1,1.56,3.42,3.13,3.13,0,0,1-.69,2.38,2.74,2.74,0,0,1-.87.64c4.56,1.85,8.79,1.87,11.28,3.26.64.36,7.11,2.22,7.91-.14.44-1.31-1.14-2.94-1.63-3.45-1.83-1.89-3.92-2.11-8.09-3.21-3.78-1-5.71-1.44-6.59-2-5.78-3.9-8.55-8.35-6-10.61,1.29-1.12,3.71-.72,8.35-2,1.78-.49,3.23,0,3.45-1.42s.67-1.84.16-2.2c-1.84-1.33-5.24-1.31-5.24-1.31A45.13,45.13,0,0,0,122.79,245.27Z" style="fill:#efc0af"/><polygon points="127.38 242.82 126.05 253.61 137.74 254.33 140.07 240.46 127.38 242.82" style="fill:#ffebee"/><path d="M105.67,349.83l107.09-3-5.31-172.42c-4.11-3.83-3.85-4-13.62-8.1,0,0,12.74,37.06,6.65,51.7-7.81,48.06,12.87,94.49-2.12,103.84-23.94,14.95-27.37,1-55.17,15.45C132,343.16,127.93,334.41,105.67,349.83Z" style="fill:#231f20;opacity:0.06"/></g></g></svg>