<svg xmlns="http://www.w3.org/2000/svg" viewBox="0 0 356.69 373.24"><title>backend</title><g id="3a0199ca-b5fe-4cdf-9ddc-80bf64589d69" data-name="Layer 2"><g id="52e5659f-1dd9-475e-ac17-a8b2bd8a0ddd" data-name="Layer 1"><path d="M255.25,361.36h68.14a2.32,2.32,0,0,0,2.32-2.32V288.22l-15.14-17.66H255.25a2.32,2.32,0,0,0-2.32,2.32V359A2.32,2.32,0,0,0,255.25,361.36Z" style="fill:#ffcdd2"/><path d="M311.79,327.21c-2.6,1.36-16.08,6.9-19,8.4s-4.46,1.48-6.73.4-16.61-6.88-19.2-8.11c-1.29-.62-2-1.14-2-1.63v-4.93s18.68-4.07,21.69-5.15,4.06-1.12,6.63-.18,17.91,3.71,20.45,4.64v4.86c0,.49-.58,1-1.91,1.71" style="fill:#912626"/><path d="M311.79,322.31c-2.6,1.36-16.08,6.9-19,8.4s-4.46,1.48-6.73.4-16.61-6.88-19.2-8.11-2.64-2.09-.1-3.08,16.81-6.59,19.82-7.67,4.06-1.12,6.63-.18,16,6.27,18.5,7.2,2.63,1.7,0,3.05" style="fill:#c6302b"/><path d="M311.79,319.23c-2.6,1.36-16.08,6.9-19,8.4s-4.46,1.48-6.73.4-16.61-6.88-19.2-8.11c-1.29-.62-2-1.14-2-1.63v-4.93s18.68-4.07,21.69-5.15,4.06-1.12,6.63-.18,17.91,3.71,20.45,4.64v4.86c0,.49-.58,1-1.91,1.71" style="fill:#912626"/><path d="M311.79,314.33c-2.6,1.36-16.08,6.9-19,8.4s-4.46,1.48-6.73.4-16.61-6.88-19.2-8.11-2.64-2.09-.1-3.08,16.81-6.59,19.82-7.67,4.06-1.12,6.63-.18,16,6.27,18.5,7.2,2.63,1.7,0,3.05" style="fill:#c6302b"/><path d="M311.79,311c-2.6,1.36-16.08,6.9-19,8.4s-4.46,1.48-6.73.4-16.61-6.88-19.2-8.11c-1.29-.62-2-1.14-2-1.63v-4.93s18.68-4.07,21.69-5.15,4.06-1.12,6.63-.18,17.91,3.71,20.45,4.64v4.86c0,.49-.58,1-1.91,1.71" style="fill:#912626"/><path d="M311.79,306.06c-2.6,1.36-16.08,6.9-19,8.4s-4.46,1.48-6.73.4-16.61-6.88-19.2-8.11-2.64-2.09-.1-3.08,16.81-6.59,19.82-7.67,4.06-1.12,6.63-.18,16,6.27,18.5,7.2,2.63,1.69,0,3.05" style="fill:#c6302b"/><path d="M295.28,301.27l-4.19.44-.94,2.26-1.52-2.52-4.84-.44,3.61-1.3-1.08-2L289.7,299l3.19-1L292,300l3.25,1.22m-5.38,11L282.07,309l11.21-1.72-3.39,5M279,302.52c3.31,0,6,1,6,2.32s-2.68,2.32-6,2.32-6-1-6-2.32,2.68-2.32,6-2.32" style="fill:#fff"/><path d="M300.23,301.88l6.64,2.62-6.63,2.62v-5.24" style="fill:#621b1c"/><path d="M292.89,304.79l7.34-2.9v5.24l-.72.28-6.63-2.62" style="fill:#9a2928"/><path d="M312.9,288.22h12.81l-15.14-17.66v15.34A2.32,2.32,0,0,0,312.9,288.22Z" style="fill:#ef5350"/><path d="M154.68,233.74H18.8a5,5,0,0,0-4.95,4.95v83.64H159.62V238.69A5,5,0,0,0,154.68,233.74Z" style="fill:#757575"/><path d="M2,322.33H172.48a2,2,0,0,1,1.89,2.51l-1,3.56a2,2,0,0,1-1.89,1.42H3.16a2,2,0,0,1-1.87-1.34L.1,324.93A2,2,0,0,1,2,322.33Z" style="fill:#fafafa"/><polygon points="159.49 320.38 13.86 320.38 1.97 322.33 173.12 322.33 159.49 320.38" style="fill:#e0e0e0"/><rect x="77.99" y="321.86" width="19.06" height="2.77" rx="0.65" ry="0.65" style="fill:#e0e0e0"/><rect x="18.56" y="237.84" width="135.58" height="79.88" style="fill:#ffee58"/><rect x="18.56" y="237.84" width="135.58" height="79.88" style="fill:#455a64"/><rect x="18.56" y="237.84" width="135.58" height="6.04" style="fill:#a7bbc1"/><ellipse cx="21.46" cy="240.85" rx="1.47" ry="1.59" style="fill:#fafafa"/><ellipse cx="25.72" cy="240.85" rx="1.47" ry="1.59" style="fill:#fafafa"/><ellipse cx="29.84" cy="240.85" rx="1.47" ry="1.59" style="fill:#fafafa"/><polygon points="18.56 317.6 18.56 317.71 154.14 317.71 154.14 237.84 125.8 237.84 18.56 317.6" style="fill:#231f20;opacity:0.18"/><rect x="24.25" y="251.43" width="17.34" height="2.92" style="fill:#da544f"/><rect x="33.93" y="263.4" width="17.34" height="2.92" style="fill:#da544f"/><rect x="24.25" y="298.88" width="17.34" height="2.92" style="fill:#da544f"/><rect x="86.49" y="280.94" width="35.29" height="2.92" style="fill:#da544f"/><rect x="24.25" y="256.48" width="17.34" height="2.92" style="fill:#bdbdbd"/><rect x="33.93" y="268.45" width="17.34" height="2.92" style="fill:#bdbdbd"/><rect x="36.63" y="274.83" width="30.14" height="2.92" style="fill:#bdbdbd"/><rect x="69.03" y="274.83" width="11.32" height="2.92" style="fill:#bdbdbd"/><rect x="33.93" y="286.97" width="11.32" height="2.92" style="fill:#bdbdbd"/><rect x="24.18" y="293.04" width="11.32" height="2.92" style="fill:#bdbdbd"/><rect x="24.18" y="310.76" width="11.32" height="2.92" style="fill:#bdbdbd"/><rect x="82.35" y="274.83" width="14.98" height="2.92" style="fill:#bdbdbd"/><rect x="36.43" y="280.94" width="30.14" height="2.92" style="fill:#bdbdbd"/><rect x="69.03" y="280.94" width="14.98" height="2.92" style="fill:#bdbdbd"/><rect x="53.98" y="268.45" width="17.34" height="2.92" style="fill:#00b8d4"/><rect x="28.37" y="304.92" width="21.07" height="2.92" style="fill:#bdbdbd"/><rect x="52.61" y="304.92" width="17.34" height="2.92" style="fill:#00b8d4"/><path d="M42.57,185.34h70.87a2.42,2.42,0,0,0,2.42-2.42V109.27L100.12,90.9H42.57a2.42,2.42,0,0,0-2.42,2.42v89.61A2.42,2.42,0,0,0,42.57,185.34Z" style="fill:#f9fbe7"/><path d="M102.54,109.27h13.33L100.12,90.9v16A2.42,2.42,0,0,0,102.54,109.27Z" style="fill:#d4e157"/><path d="M76.22,118.77a3.67,3.67,0,0,1,3.59,0L96.19,128a3.37,3.37,0,0,1,1.7,2.9v18.56a3.41,3.41,0,0,1-1.83,3l-16.32,9.21a3.57,3.57,0,0,1-3.63-.1l-4.9-2.83a2.88,2.88,0,0,1-.94-.68c.21-.28.58-.32.88-.44a11.43,11.43,0,0,0,1.93-.9.45.45,0,0,1,.5,0c1.4.8,2.78,1.62,4.18,2.42.3.17.6-.06.86-.2l16-9a.53.53,0,0,0,.29-.52q0-9.19,0-18.37a.57.57,0,0,0-.34-.57l-16.27-9.17a.57.57,0,0,0-.64,0l-16.27,9.17a.57.57,0,0,0-.34.57q0,9.19,0,18.37a.52.52,0,0,0,.29.52l4.34,2.45a3.36,3.36,0,0,0,2.72.36,2.06,2.06,0,0,0,1.33-1.94c0-6.09,0-12.18,0-18.26a.46.46,0,0,1,.5-.47c.7,0,1.39,0,2.09,0a.48.48,0,0,1,.45.56c0,6.13,0,12.25,0,18.38a4.66,4.66,0,0,1-2.18,4.21,6.71,6.71,0,0,1-6-.16c-1.59-.79-3.11-1.73-4.67-2.58a3.4,3.4,0,0,1-1.83-3V130.93A3.38,3.38,0,0,1,59.89,128Z" style="fill:#8cc84b"/><path d="M81,131.63A12.88,12.88,0,0,1,88,132.71a5.33,5.33,0,0,1,2.6,4.61.5.5,0,0,1-.54.37c-.69,0-1.38,0-2.07,0a.53.53,0,0,1-.5-.52A3.15,3.15,0,0,0,86,135a8.92,8.92,0,0,0-4.13-.59,5.6,5.6,0,0,0-3,.74,1.87,1.87,0,0,0-.62,2.09c.22.53.83.7,1.32.85,2.86.75,5.89.67,8.7,1.66a4.09,4.09,0,0,1,2.7,2.4,5.12,5.12,0,0,1-.87,4.89,6.85,6.85,0,0,1-3.68,2,17.66,17.66,0,0,1-5.55.24A8.74,8.74,0,0,1,76,147.41a5.12,5.12,0,0,1-1.65-4,.46.46,0,0,1,.51-.41H77a.49.49,0,0,1,.5.48,3.15,3.15,0,0,0,1.17,2.21c1.41.91,3.18.85,4.79.87,1.34-.06,2.84-.08,3.93-1a2.17,2.17,0,0,0,.59-2.07c-.17-.61-.81-.9-1.36-1.08-2.82-.89-5.89-.57-8.68-1.58a4.23,4.23,0,0,1-2.67-2.33,4.76,4.76,0,0,1,1-5A7.68,7.68,0,0,1,81,131.63Z" style="fill:#8cc84b"/><path d="M242.57,94.44h70.87A2.42,2.42,0,0,0,315.86,92V18.37L300.12,0H242.57a2.42,2.42,0,0,0-2.42,2.42V92A2.42,2.42,0,0,0,242.57,94.44Z" style="fill:#dcedc8"/><path d="M302.53,18.37h13.33L300.12,0V16A2.42,2.42,0,0,0,302.53,18.37Z" style="fill:#9ccc65"/><path d="M289.32,38a26.89,26.89,0,0,1,1.48,6.73,29.59,29.59,0,0,1-.48,8.54,1.93,1.93,0,0,1-.08.23,3.8,3.8,0,0,0-.57,0l-4.7.75c-1.62.26-3.24.51-4.85.79-.57.1-1.28,0-1.51.77,0,0-.07,0-.11,0l.08-4.73q0-5.71-.08-11.41l.75-.13,3.7-.6,4.42-.69,2-.29Z" style="fill:#439934"/><path d="M276.94,69.67c-.8-.68-1.62-1.34-2.38-2.06A29.45,29.45,0,0,1,266,53.7a22.51,22.51,0,0,1-.77-4.61,26,26,0,0,1-.07-3.28,38.56,38.56,0,0,1,1.47-8.54l0-.07a1.37,1.37,0,0,1,.24.33q1.24,3.66,2.47,7.32,3.85,11.5,7.71,23a1.83,1.83,0,0,0,.27.41l-.41,1.4Z" style="fill:#45a538"/><path d="M289.32,38l-2,.29-4.42.69-3.7.6-.75.13v-.49c0-.4-.07-.81-.07-1.21,0-2.58-.05-5.15-.08-7.73q0-2.42-.08-4.84c0-1,0-2-.09-3,0-.54-.11-1.07-.15-1.61,0-.31,0-.62,0-.93.38.74.76,1.5,1.16,2.23a14.29,14.29,0,0,0,2.51,3A33.12,33.12,0,0,1,289.32,38Z" style="fill:#46a037"/><path d="M278.5,55.88s.1,0,.11,0c.23-.79.94-.67,1.51-.77,1.61-.28,3.23-.53,4.85-.79l4.7-.75a3.76,3.76,0,0,1,.57,0c-.29,1-.52,2.11-.89,3.13A34.92,34.92,0,0,1,287.87,60a23.13,23.13,0,0,1-3,4.59A42.31,42.31,0,0,1,282,67.7c-.56.55-1.21,1-1.83,1.49l-.16-.11-.57-.49-.59-1.3a19.48,19.48,0,0,1-.66-4.63V62.4l.08-1.14c0-.39.06-.78.08-1.17.06-1.4.11-2.81.17-4.21Z" style="fill:#409433"/><path d="M278.5,55.88c-.06,1.4-.11,2.81-.17,4.21,0,.39-.05.78-.08,1.17l-.36.14c-.8-2.35-1.6-4.68-2.38-7-1.29-3.86-2.57-7.73-3.86-11.59q-1.57-4.68-3.15-9.35a1.58,1.58,0,0,0-.29-.39l2.3-4.24a2.47,2.47,0,0,1,.23.41q1.6,4.73,3.18,9.47Q276,44.86,278,51a5,5,0,0,0,.23.5l.32-.37q0,2.36-.08,4.73Z" style="fill:#4faa41"/><path d="M268.2,33.05a1.59,1.59,0,0,1,.29.39q1.59,4.67,3.15,9.35c1.29,3.86,2.57,7.73,3.86,11.59.78,2.33,1.58,4.66,2.38,7l.36-.14-.08,1.14-.07.26c-.13,1.25-.23,2.5-.38,3.75-.08.62-.24,1.24-.36,1.86a1.85,1.85,0,0,1-.27-.41q-3.86-11.5-7.7-23-1.23-3.66-2.47-7.32a1.36,1.36,0,0,0-.24-.33l1.54-4.16Z" style="fill:#4aa73c"/><path d="M278.57,51.15l-.32.37A5,5,0,0,1,278,51Q276,44.86,273.92,38.7q-1.58-4.74-3.18-9.47a2.38,2.38,0,0,0-.23-.41l2.85-3.75a1.54,1.54,0,0,1,.26.36q1.19,3.47,2.35,7c.73,2.17,1.44,4.34,2.18,6.5,0,.14.22.25.34.37v.49q0,5.7.08,11.41Z" style="fill:#57ae47"/><path d="M278.49,39.25c-.11-.12-.29-.22-.34-.37-.74-2.16-1.45-4.33-2.18-6.5q-1.17-3.48-2.35-7a1.54,1.54,0,0,0-.26-.36c.93-.91,1.82-1.85,2.79-2.71a3.86,3.86,0,0,0,1.58-2.81,1.5,1.5,0,0,1,.07-.24l.24.61c0,.31,0,.62,0,.93,0,.54.12,1.07.15,1.61,0,1,.07,2,.09,3q0,2.42.08,4.84c0,2.58.05,5.15.08,7.73,0,.41,0,.81.07,1.21Z" style="fill:#60b24f"/><path d="M277.35,68.27c.12-.62.29-1.23.36-1.86.15-1.25.26-2.5.38-3.75h.06a19.49,19.49,0,0,0,.66,4.63,1.42,1.42,0,0,0-.24.33c-.34,1-.66,1.94-1,2.9a1.44,1.44,0,0,1-.27.35l-.35-1.21.41-1.4Z" style="fill:#a9aa88"/><path d="M277.29,70.88a1.43,1.43,0,0,0,.27-.35c.34-1,.67-1.94,1-2.9a1.4,1.4,0,0,1,.24-.33l.59,1.3a2.31,2.31,0,0,0-.34.5l-1.13,3.32c0,.13-.21.23-.31.34l-.33-1.87Z" style="fill:#b6b598"/><path d="M277.62,72.75c.11-.11.27-.21.31-.34l1.13-3.32a2.3,2.3,0,0,1,.34-.5l.57.49a1,1,0,0,0-.34,1l-.17.57a1.18,1.18,0,0,0-.23.29c-.39,1.13-.77,2.27-1.17,3.4a1.56,1.56,0,0,1-.29.38l-.16-2Z" style="fill:#c2c1a7"/><path d="M277.77,74.71a1.6,1.6,0,0,0,.29-.38c.4-1.13.77-2.27,1.17-3.4a1.17,1.17,0,0,1,.23-.29l-.24,2.61c-.06.07-.16.14-.19.22-.27.76-.53,1.52-.8,2.28a2.94,2.94,0,0,1-.25.44c-.07-.1-.21-.19-.21-.29,0-.4,0-.79,0-1.19Z" style="fill:#cecdb7"/><path d="M278,76.19a2.94,2.94,0,0,0,.25-.44c.27-.76.53-1.52.8-2.28,0-.09.12-.15.19-.22V75l-.57,1.47-.66-.23Z" style="fill:#dbdac7"/><path d="M278.66,76.43l.57-1.47.12,1.74Z" style="fill:#ebe9dc"/><path d="M279.64,70.07a1,1,0,0,1,.34-1l.16.11Z" style="fill:#cecdb7"/><path d="M278.16,62.67h-.06l.07-.26v.26Z" style="fill:#4faa41"/><polygon points="123.89 300.32 118.34 373.24 158.73 373.24 160.22 336.78 183.13 336.78 187.55 373.24 221.35 373.24 219.29 304.57 123.89 300.32" style="fill:#90caf9"/><rect x="281.95" y="157.16" width="16.57" height="2.57" style="fill:#bdbdbd"/><polygon points="235.03 252.52 270.35 252.52 274.84 281.16 230.55 281.16 235.03 252.52" style="fill:#e0e0e0"/><polygon points="271.98 262.95 270.35 252.52 235.03 252.52 233.4 262.95 271.98 262.95" style="fill:#bdbdbd"/><rect x="148.13" y="112.11" width="208.55" height="146.62" rx="8.42" ry="8.42" style="fill:#fafafa"/><path d="M349.61,112.11H155.21a7.08,7.08,0,0,0-7.08,7.08V238.86H356.69V119.19A7.08,7.08,0,0,0,349.61,112.11Z" style="fill:#757575"/><rect x="154.86" y="117.97" width="193.98" height="114.28" style="fill:#bbdefb"/><circle cx="252.41" cy="248.37" r="5" style="fill:#bdbdbd"/><rect x="221.86" y="281.16" width="62.51" height="7.83" rx="2.98" ry="2.98" style="fill:#fafafa"/><rect x="214.9" y="134.64" width="129.5" height="70.16" style="fill:#455a64"/><rect x="214.9" y="134.64" width="129.5" height="5.3" style="fill:#e0e0e0"/><circle cx="217.68" cy="137.3" r="1.4" style="fill:#fafafa"/><circle cx="221.74" cy="137.3" r="1.4" style="fill:#fafafa"/><circle cx="225.68" cy="137.3" r="1.4" style="fill:#fafafa"/><rect x="220.34" y="146.59" width="16.57" height="2.57" style="fill:#da544f"/><rect x="229.58" y="157.1" width="16.57" height="2.57" style="fill:#da544f"/><rect x="220.34" y="188.26" width="16.57" height="2.57" style="fill:#da544f"/><rect x="279.79" y="172.51" width="33.71" height="2.57" style="fill:#da544f"/><rect x="220.34" y="151.03" width="16.57" height="2.57" style="fill:#bdbdbd"/><rect x="229.58" y="161.53" width="16.57" height="2.57" style="fill:#bdbdbd"/><rect x="232.17" y="167.14" width="28.79" height="2.57" style="fill:#bdbdbd"/><rect x="263.11" y="167.14" width="10.81" height="2.57" style="fill:#bdbdbd"/><rect x="229.58" y="177.8" width="10.81" height="2.57" style="fill:#bdbdbd"/><rect x="220.27" y="183.14" width="10.81" height="2.57" style="fill:#bdbdbd"/><rect x="220.27" y="198.71" width="10.81" height="2.57" style="fill:#bdbdbd"/><rect x="275.83" y="167.14" width="14.31" height="2.57" style="fill:#bdbdbd"/><rect x="231.97" y="172.51" width="28.79" height="2.57" style="fill:#bdbdbd"/><rect x="263.11" y="172.51" width="14.31" height="2.57" style="fill:#bdbdbd"/><rect x="248.73" y="161.53" width="16.57" height="2.57" style="fill:#00b8d4"/><rect x="224.27" y="193.57" width="20.13" height="2.57" style="fill:#bdbdbd"/><rect x="247.42" y="193.57" width="16.57" height="2.57" style="fill:#00b8d4"/><rect x="154.86" y="117.97" width="193.98" height="5.21" style="fill:#e0e0e0"/><rect x="181.86" y="118.94" width="16.57" height="2.57" style="fill:#bdbdbd"/><rect x="200.92" y="118.94" width="16.57" height="2.57" style="fill:#bdbdbd"/><rect x="220.07" y="118.94" width="16.57" height="2.57" style="fill:#bdbdbd"/><circle cx="278.01" cy="158.44" r="1.4" style="fill:#bdbdbd"/><path d="M120.62,310.77v4.15a2.41,2.41,0,0,0,2.41,2.4h96a2.41,2.41,0,0,0,2.41-2.26l.18-2.93a2.41,2.41,0,0,0-2.37-2.55l-96.23-1.22A2.41,2.41,0,0,0,120.62,310.77Z" style="fill:#1565c0"/><ellipse cx="175.14" cy="164.44" rx="39.7" ry="26.22" style="fill:#1976d2"/><ellipse cx="174.99" cy="158.33" rx="31.44" ry="15.33" style="fill:#1565c0"/><path d="M203.73,156.89a74,74,0,0,0-21-4.29V128.5h-16v24.79a95.12,95.12,0,0,0-15.5,3.6,90.29,90.29,0,0,0-31.5,17.5L122,295.89h99.83l7.88-123A76.27,76.27,0,0,0,203.73,156.89Z" style="fill:#996759"/><path d="M228.3,68.67a8.14,8.14,0,0,0-3.14.63c-4.08-27.86-25-49.07-50.27-49.07-26.52,0-48.31,23.42-50.76,53.36a8.17,8.17,0,1,0,.41,15c3.89,28.12,24.95,49.6,50.35,49.6,26.61,0,48.45-23.58,50.78-53.66a8.16,8.16,0,1,0,2.63-15.89Z" style="fill:#af7a68"/><path d="M216.51,74.87c-1.85-.22.76,28.75-11.66,41.95-12.61,13.39-31.31,12.47-31,14.58.3,1.88,15.32,3.95,27.79-3.76A36.64,36.64,0,0,0,214,114.39C221.4,101,218.19,75.07,216.51,74.87Z" style="fill:#bc8579"/><circle cx="146.22" cy="94.36" r="11.51" style="fill:#e88470"/><circle cx="204.6" cy="91.36" r="10.98" style="fill:#e88470"/><path d="M152.89,105.58a34,34,0,0,0,17.71,12" style="fill:none;stroke:#6d5145;stroke-miterlimit:10;stroke-width:2px"/><circle cx="153.89" cy="79.36" r="6.33" style="fill:#414042"/><circle cx="195.5" cy="78.02" r="6.33" style="fill:#414042"/><path d="M160.22,67.69c-.26-.32-3.92-4.63-9.67-4a11,11,0,0,0-9,7" style="fill:none;stroke:#414042;stroke-miterlimit:10;stroke-width:2px"/><path d="M187.55,66c.22-.29,3.78-4.84,9.67-4.33a11,11,0,0,1,9,6.33" style="fill:none;stroke:#414042;stroke-miterlimit:10;stroke-width:2px"/><path d="M217.58,61.65" style="fill:#6d6e71"/><path d="M132.43,70.6a26.12,26.12,0,0,1,4.64-16.41c5.41-7.45,13.46-9.32,18.73-10.54,6.15-1.43,12-1.26,12.07-.58s-7.28,1.25-15.74,6c-3.43,1.94-8.82,5-12.34,10.59-6.38,10.14-2.62,22.28-4.06,22.46C134.72,82.29,132.62,76.54,132.43,70.6Z" style="fill:#bc8579"/><path d="M203.73,156.89a73.51,73.51,0,0,0-13.53-3.48,3.94,3.94,0,0,1,.47,1.81c0,4-6.48,7.25-14.47,7.25s-14.47-3.25-14.47-7.25a3.77,3.77,0,0,1,.19-1.11,100.08,100.08,0,0,0-10.69,2.78,90.29,90.29,0,0,0-31.5,17.5l.92,138.18h101l8.08-139.68A76.28,76.28,0,0,0,203.73,156.89Z" style="fill:#1e88e5"/><text transform="translate(152.03 231.33)" style="font-size:60px;fill:#fff;font-family:HighTowerText-Reg, High Tower Text">H</text><path d="M227.31,172.88a10.35,10.35,0,0,1,6.29,1.31c3.35,2,4.78,5.7,5.39,7.36,7.92,21.51,21,87.57,23.77,95a9.54,9.54,0,0,1,.63,3.86,10.53,10.53,0,0,1-3.8,7.36c-3.55,2.77-9.57,1.87-14.26-2.81l-20-84.16Z" style="fill:#1e88e5"/><path d="M247.76,261a16.33,16.33,0,0,0-16.3,2.82l8.15,16.93c2.37,3.58,6.34,5.48,10,4.82,5.07-.91,7.26-6.24,7.75-9.32C258.41,269.9,253.72,263.44,247.76,261Z" style="fill:#1565c0"/><path d="M245.31,285l-3.91-16.49,11-4.51,9.29,9c.44,1.68.79,2.92,1.05,3.63a9.54,9.54,0,0,1,.63,3.86,10.53,10.53,0,0,1-3.8,7.36c-3.54,2.76-9.52,1.88-14.2-2.75Z" style="fill:#1565c0"/><path d="M229.73,172.89c1.67-.15,1.6-.06,3.87,1.3,3.35,2,4.78,5.7,5.39,7.36,7.92,21.51,21,87.57,23.77,95a9.54,9.54,0,0,1,.63,3.86,10.53,10.53,0,0,1-3.8,7.36c-3.55,2.77-9.57,1.87-14.26-2.81l-17.7-74.58Z" style="fill:#231f20;opacity:0.18"/><path d="M247.76,261a16.33,16.33,0,0,0-16.3,2.82l8.15,16.93c2.37,3.58,6.34,5.48,10,4.82,5.07-.91,7.26-6.24,7.75-9.32C258.41,269.9,253.72,263.44,247.76,261Z" style="fill:#231f20;opacity:0.18"/><path d="M245.31,285l-3.91-16.49,11-4.51,9.29,9c.44,1.68.79,2.92,1.05,3.63a9.54,9.54,0,0,1,.63,3.86,10.53,10.53,0,0,1-3.8,7.36c-3.54,2.76-9.52,1.88-14.2-2.75Z" style="fill:#231f20;opacity:0.18"/><path d="M222.17,286.24c-2.81-1-3.9.6-11.08.89-2,.08-1.94.72-3.27.82-4.42.34-5.24,1.31-7.72.81-1.16-.24-1.75-.6-2.38-.23a2.79,2.79,0,0,0-.7,3.34c1,2,5.12,1.79,7.39,1.66,4.8-.26,4.71-1.62,9.09-1.83,2.49-.12,3.33.29,8.7.25,3.28,0,4.19-.18,4.38-.69C226.91,290.35,224.64,287.13,222.17,286.24Z" style="fill:#af7a68"/><path d="M244,278.24c3-6.57-1-12-3.79-14.75,7.53,3.44,10.42,11,2.52,17" style="fill:#996759"/><path d="M223.62,280.75c-3.37-1.22-5.11.23-13.73.58-2.37.1-2.19,0-3.77.11-5.31.41-6.29,1.57-9.26,1-1.39-.28-2.1-.72-2.86-.28-1.09.65-1.51,2.7-.84,4,1.24,2.41,6.14,2.14,8.87,2,5.76-.31,5.83-.34,11.09-.59,3-.14,3.81-1.26,10.26-1.31,3.94,0,5-.22,5.25-.82C229,284.31,226.58,281.82,223.62,280.75Z" style="fill:#a06e65"/><path d="M231.25,294.42l.55-.25Z" style="fill:#b78679"/><path d="M232.24,294l.4-.2Z" style="fill:#b78679"/><path d="M230.24,294.83l.66-.26Z" style="fill:#b78679"/><path d="M215,252.75c7.07,1.12,15.43,4.82,16.07,5.71,4.11.66,8.83,3.59,11.69,5.91,2.1,3.28,4.23,6.87,2.66,13.87-1.14,5.08-7.36,9.09-8.3,10.14-3.44,3.8-4.39,5.21-6.82,6.45-.34.12-.68.25-1,.35-4.51,1.36-6.08-.09-11.86.77-4.68.7-4.82,1.81-9.34,2.07-1.87.11-7.19.41-8.4-2.07a2.11,2.11,0,0,1-.14-1.67c.68-1.58,3.89-1.26,8-1.75a39.09,39.09,0,0,0,7.56-1.67l3.14-.22a1.94,1.94,0,0,1-1.29-.61,1.79,1.79,0,0,1-.46-1.2c0-.75.6-.92.58-1.54,0-.46-.33-.55-.85-1.32a4.88,4.88,0,0,1-.94-2.33c-.07-1,.36-1.3.1-1.89a2,2,0,0,0-1.34-1c-5.84,1.16-10.85.25-14.13,1.34-.84.28-8.94,1-9.35-1.92-.23-1.64,2-3.21,2.72-3.7,2.6-1.82,5.13-1.62,10.33-2,4.72-.33,7.1-.43,8.29-.94,7.75-3.3,12-7.93,9.49-11.17-1.27-1.61-4.24-1.67-9.46-4.21-2-1-3.83-.75-3.77-2.43s-.38-2.31.31-2.63C210.78,252,213.7,252.55,215,252.75Z" style="fill:#b78679"/><path d="M240.16,287.89" style="fill:#edbba9"/><path d="M219,294.67c0-.11-.77-.29-1.2-1-.58-1,.22-1.91-.2-2.45-.54-.69-2.37.13-5.31.83-3.32.79-5.67.85-5.65,1s1.29,0,3.62.1a29,29,0,0,1,4.41.46C217,294.05,218.91,294.84,219,294.67Z" style="fill:#b77e6e"/><path d="M224.76,255.45c.55.48,1.2.34,1.75.81a7.35,7.35,0,0,1,1.23,1.62,6.37,6.37,0,0,1,.87,4c-.34,1.45-1.65,2.09-3.63,3.35a49.73,49.73,0,0,0-9.51,8,24.76,24.76,0,0,0-2.63,3.68,3.71,3.71,0,0,0,.28,3,3.28,3.28,0,0,0,.88,1c-5.84,1.16-10.85.25-14.13,1.34-.84.28-8.94,1-9.35-1.92-.23-1.64,2-3.21,2.72-3.7,2.6-1.82,5.13-1.62,10.33-2,4.72-.33,7.1-.43,8.29-.94,7.75-3.3,12-7.93,9.49-11.17-1.27-1.61-4.24-1.67-9.46-4.21-2-1-3.83-.75-3.77-2.43s-.38-2.31.31-2.63c2.49-1.16,6.52-.38,6.52-.38A54.8,54.8,0,0,1,224.76,255.45Z" style="fill:#966d62"/><circle cx="210.18" cy="161.61" r="3.95" style="fill:#1976d2"/><circle cx="139.63" cy="163.94" r="3.92" style="fill:#1976d2"/><path d="M139.08,165.65c6.52,6.44,12.75,14,8.23,23.21-4.05,8.26-7.23,15.06-6.34,24.61.2,2.13,3.74,4.31,3.44,1.05-.65-6.91,1.05-13,4.33-19,1.82-3.32,3.69-6.58,3.87-10.46.41-9.06-6.43-16.9-12.43-22.83-2.32-2.3-2.61,1.94-1.11,3.42Z" style="fill:#90caf9"/><path d="M209.07,160c-1.52,7.33-1.92,14.74,0,22,1,3.87,3,7.49,3.74,11.41,1.07,5.71-.61,11.41-3.36,16.38-.94,1.69,1.93,5.71,2.93,3.91,3.89-7,5.47-14.77,3-22.56-1.2-3.84-2.92-7.43-3.61-11.43a44.26,44.26,0,0,1,.65-16.63c.37-1.78-2.83-5.51-3.32-3.14Z" style="fill:#90caf9"/><path d="M176,165.09c9.63,0,17.44-3.77,17.44-8.43a4.77,4.77,0,0,0-1-2.85c-.73-.14-1.46-.28-2.18-.4a3.94,3.94,0,0,1,.47,1.81c0,4-6.48,7.25-14.47,7.25s-14.47-3.25-14.47-7.25a3.77,3.77,0,0,1,.19-1.11c-1,.2-2,.41-2.89.63a4.4,4.4,0,0,0-.47,1.92C158.55,161.31,166.36,165.09,176,165.09Z" style="fill:#1976d2"/><path d="M125.82,71.69c1.41-1.14,3.19-6.08,4.37-11.19a16.08,16.08,0,0,0,.33-5.17,10.79,10.79,0,0,0,3.83-1.17,10.56,10.56,0,0,0,3-2.33c3.21-3.85.63-5.21,1.85-8.63.14-.39,2.13-2.77,3.15-2.53l-1-3.33a35,35,0,0,0,23-3.67,32.68,32.68,0,0,0,8.83-7.33v4.83l3.44-4.83a54.13,54.13,0,0,0,21.16,12A51.76,51.76,0,0,0,205.86,40c-1.09,3.81.6,7.57,3.5,8.83s5.85-.47,6.17-.67a8.49,8.49,0,0,0,7,12.33l1.08,10.19,1.13-.57c1-1.35,6.52-9.66,6-17.29a21.81,21.81,0,0,0-6-13.5c.51-.77,2.59-4.06,1.5-7.17-1.38-3.94-7.5-6.62-14.33-4.33a21.5,21.5,0,0,0-4.43-8.33c-2.83-3.5-7.46-7.14-11.93-5-3.08-5.83-13.12-6.16-22.22-2.58a8.38,8.38,0,0,0-3.92,3c-11.14-4.52-22.17.16-29,7a21.83,21.83,0,0,0-5.67,10.83,30,30,0,0,0-9,9.92c-2.27,3.92-1.79,8-1.62,10-.9.75-2.77,4-3.38,9.58A14.49,14.49,0,0,0,122,70l2.58,4.38Z" style="fill:#414042"/><path d="M182.86,23c-.29.22,3.48,9,9.63,9.25,3,.14,5.85-1.79,5.75-2.13s-2.35.72-5,.5C186.84,30.09,183.13,22.79,182.86,23Z" style="fill:#58595b"/><path d="M209.73,32.87c-.11-.29,5.25-4.36,8.75-2.63,3.08,1.53,3.28,6.82,3.13,6.88s-.4-3.12-2.75-4.5c-1.59-.93-3.55-.71-5.5-.5C211,32.39,209.79,33,209.73,32.87Z" style="fill:#58595b"/><path d="M167.36,25.66c.15.27-7.06,5.63-17.33,7.67-6,1.2-7.64.16-8.33-.67a4.58,4.58,0,0,1,.33-6c2.33-2,6,.12,6,.33s-2.83-.74-4.17.67a3.13,3.13,0,0,0-.17,3.83c1.14,1.31,3.8.66,5.67.17C159.6,29,167.21,25.4,167.36,25.66Z" style="fill:#58595b"/><path d="M124,70.33c-.24.06-2.39-4.6-1.79-10.08.11-1,.61-5.61,2.46-5.92,1.09-.18,2.52,1.17,2.83,2.67a3.51,3.51,0,0,1-1.17,3.33c-.19-.07,1.08-2.33.13-3.52a1.73,1.73,0,0,0-1.87-.56c-.39.17-.83.65-1.06,4.06a40.89,40.89,0,0,0-.06,4.75C123.69,68.7,124.16,70.3,124,70.33Z" style="fill:#58595b"/><path d="M121.93,173.67a10.35,10.35,0,0,0-6.29,1.31c-3.35,2-4.78,5.7-5.39,7.36-7.92,21.51-21,87.57-23.77,95a9.54,9.54,0,0,0-.63,3.86,10.53,10.53,0,0,0,3.8,7.36c3.55,2.77,9.57,1.87,14.26-2.81l20-84.16Z" style="fill:#1e88e5"/><path d="M101.48,261.82a16.33,16.33,0,0,1,16.3,2.82l-8.15,16.93c-2.37,3.58-6.34,5.48-10,4.82-5.07-.91-7.26-6.24-7.75-9.32C90.83,270.69,95.51,264.23,101.48,261.82Z" style="fill:#1565c0"/><path d="M103.93,285.74l3.91-16.49-11-4.51-9.29,9c-.44,1.68-.79,2.92-1.05,3.63a9.54,9.54,0,0,0-.63,3.86,10.53,10.53,0,0,0,3.8,7.36c3.54,2.76,9.52,1.88,14.2-2.75Z" style="fill:#1565c0"/><path d="M127.07,287c2.81-1,3.9.6,11.08.89,2,.08,1.94.72,3.27.82,4.42.34,5.24,1.31,7.72.81,1.16-.24,1.75-.6,2.38-.23a2.79,2.79,0,0,1,.7,3.34c-1,2-5.12,1.79-7.39,1.66-4.8-.26-4.71-1.62-9.09-1.83-2.49-.12-3.33.29-8.7.25-3.28,0-4.19-.18-4.38-.69C122.32,291.13,124.6,287.92,127.07,287Z" style="fill:#af7a68"/><path d="M105.25,279c-3-6.57,1-12,3.79-14.75-7.53,3.44-10.42,11-2.52,17" style="fill:#996759"/><path d="M125.62,281.53c3.37-1.22,5.11.23,13.73.58,2.37.1,2.19,0,3.77.11,5.31.41,6.29,1.57,9.26,1,1.39-.28,2.1-.72,2.86-.28,1.09.65,1.51,2.7.84,4-1.24,2.41-6.14,2.14-8.87,2-5.76-.31-5.83-.34-11.09-.59-3-.14-3.81-1.26-10.26-1.31-3.94,0-5-.22-5.25-.82C120.2,285.09,122.66,282.6,125.62,281.53Z" style="fill:#a06e65"/><path d="M118,295.21l-.55-.25Z" style="fill:#b78679"/><path d="M117,294.74l-.4-.2Z" style="fill:#b78679"/><path d="M119,295.61l-.66-.26Z" style="fill:#b78679"/><path d="M134.28,253.54c-7.07,1.12-15.43,4.82-16.07,5.71-4.11.66-8.83,3.59-11.69,5.91-2.1,3.28-4.23,6.87-2.66,13.87,1.14,5.08,7.36,9.09,8.3,10.14,3.44,3.8,4.39,5.21,6.82,6.45.34.12.68.25,1,.35,4.51,1.36,6.08-.09,11.86.77,4.68.7,4.82,1.81,9.34,2.07,1.87.11,7.19.41,8.4-2.07a2.11,2.11,0,0,0,.14-1.67c-.68-1.58-3.89-1.26-8-1.75a39.09,39.09,0,0,1-7.56-1.67l-3.14-.22a1.94,1.94,0,0,0,1.29-.61,1.79,1.79,0,0,0,.46-1.2c0-.75-.6-.92-.58-1.54,0-.46.33-.55.85-1.32a4.88,4.88,0,0,0,.94-2.33c.07-1-.36-1.3-.1-1.89a2,2,0,0,1,1.34-1c5.84,1.16,10.85.25,14.13,1.34.84.28,8.94,1,9.35-1.92.23-1.64-2-3.21-2.72-3.7-2.6-1.82-5.13-1.62-10.33-2-4.72-.33-7.1-.43-8.29-.94-7.75-3.3-12-7.93-9.49-11.17,1.27-1.61,4.24-1.67,9.46-4.21,2-1,3.83-.75,3.77-2.43s.38-2.31-.31-2.63C138.46,252.83,135.54,253.34,134.28,253.54Z" style="fill:#b78679"/><path d="M109.08,288.68" style="fill:#edbba9"/><path d="M130.26,295.45c0-.11.77-.29,1.2-1,.58-1-.22-1.91.2-2.45.54-.69,2.37.13,5.31.83,3.32.79,5.67.85,5.65,1s-1.29,0-3.62.1a29,29,0,0,0-4.41.46C132.21,294.84,130.33,295.62,130.26,295.45Z" style="fill:#b77e6e"/><path d="M124.48,256.23c-.55.48-1.2.34-1.75.81a7.35,7.35,0,0,0-1.23,1.62,6.37,6.37,0,0,0-.87,4c.34,1.45,1.65,2.09,3.63,3.35a49.73,49.73,0,0,1,9.51,8,24.76,24.76,0,0,1,2.63,3.68,3.71,3.71,0,0,1-.28,3,3.28,3.28,0,0,1-.88,1c5.84,1.16,10.85.25,14.13,1.34.84.28,8.94,1,9.35-1.92.23-1.64-2-3.21-2.72-3.7-2.6-1.82-5.13-1.62-10.33-2-4.72-.33-7.1-.43-8.29-.94-7.75-3.3-12-7.93-9.49-11.17,1.27-1.61,4.24-1.67,9.46-4.21,2-1,3.83-.75,3.77-2.43s.38-2.31-.31-2.63c-2.49-1.16-6.52-.38-6.52-.38A54.8,54.8,0,0,0,124.48,256.23Z" style="fill:#966d62"/><path d="M196.77,284.77A31.6,31.6,0,0,1,195,264.2H172.58v0H156.07q-2,3.11-4,6.17a31.14,31.14,0,0,1-2.69,14.4A31.53,31.53,0,0,1,136,299.32l-.5,10.28h75.3l-.5-10.28A31.53,31.53,0,0,1,196.77,284.77Z" style="fill:#64b5f6"/><path d="M210.75,309.59l-.5-10.28A31.16,31.16,0,0,1,195,264.2H172.58v0H151.2A31.16,31.16,0,0,1,136,299.32l-.5,10.28h75.3Z" style="fill:#64b5f6"/><path d="M120.65,312.57h101l8.08-139.68a76.71,76.71,0,0,0-22.3-14.54,315.21,315.21,0,0,1-31,72.45C159.5,259.63,135.68,297.75,120.65,312.57Z" style="fill:#231f20;opacity:0.18"/></g></g></svg>