<svg xmlns="http://www.w3.org/2000/svg" viewBox="0 0 288.64 339.99"><title>CS</title><g id="7c2ae2f7-0499-43a5-be68-4baa79f91e98" data-name="Layer 2"><g id="02ee068e-a409-485c-91c2-f62ea370fcf7" data-name="Layer 1"><path d="M218.29,0h55.47a8.15,8.15,0,0,1,8.15,8.15v21.5a8.15,8.15,0,0,1-8.15,8.15h-4l9.82,13.58-25-13.58h-36.3a8.15,8.15,0,0,1-8.15-8.15V8.15A8.15,8.15,0,0,1,218.29,0Z" style="fill:#e040fb"/><path d="M247.82,15.8H204.39A6.38,6.38,0,0,0,198,22.18V39a6.38,6.38,0,0,0,6.38,6.38h3.13L199.83,56,219.4,45.39h28.43A6.38,6.38,0,0,0,254.2,39V22.18A6.38,6.38,0,0,0,247.82,15.8Z" style="fill:#ea80fc"/><circle cx="217.29" cy="30.45" r="2.49" style="fill:#f3e5f5"/><circle cx="226.36" cy="30.45" r="2.49" style="fill:#f3e5f5"/><circle cx="235.13" cy="30.45" r="2.49" style="fill:#f3e5f5"/><g style="opacity:0.85"><path d="M63.79,115.78l-59.26,5.9A5,5,0,0,0,0,127.17l1.64,16.53,69.25-6.89-1.64-16.53A5,5,0,0,0,63.79,115.78ZM16.85,138.71a5.64,5.64,0,1,1,5.05-6.17A5.64,5.64,0,0,1,16.85,138.71ZM54.36,135a5.64,5.64,0,1,1,5.05-6.17A5.64,5.64,0,0,1,54.36,135Z" style="fill:#ef5350"/><path d="M15.64,126.48a6.65,6.65,0,1,0,7.28,6A6.65,6.65,0,0,0,15.64,126.48Zm1.19,12a5.4,5.4,0,1,1,4.84-5.9A5.4,5.4,0,0,1,16.83,138.47Z" style="fill:#b71c1c"/><path d="M53.15,122.75a6.65,6.65,0,1,0,7.28,6A6.65,6.65,0,0,0,53.15,122.75Zm1.19,12a5.4,5.4,0,1,1,4.84-5.9A5.4,5.4,0,0,1,54.34,134.74Z" style="fill:#b71c1c"/><path d="M1.67,143.69,7.17,199a5,5,0,0,0,5.49,4.5l59.26-5.9a5,5,0,0,0,4.5-5.49l-5.5-55.27Z" style="fill:#ffecb3"/><rect x="1.7" y="140.24" width="69.6" height="4.02" transform="translate(-13.91 4.31) rotate(-5.68)" style="fill:#c62828"/><rect x="12.42" y="116.97" width="6.64" height="16.42" rx="3.02" ry="3.02" transform="translate(-12.32 2.17) rotate(-5.68)" style="fill:#616161"/><rect x="49.7" y="113.26" width="6.64" height="16.42" rx="3.02" ry="3.02" transform="translate(-11.77 5.85) rotate(-5.68)" style="fill:#616161"/><text transform="matrix(1, -0.1, 0.1, 1, 24.52, 191.45)" style="font-size:33.483055114746094px;fill:#42a5f5;font-family:Cambria, Cambria">29</text><text transform="matrix(1, -0.1, 0.1, 1, 23, 164.97)" style="font-size:19.554182052612305px;fill:#6d6e71;font-family:Cambria, Cambria">FEB</text></g><rect x="196.91" y="137.32" width="16.7" height="98.5" rx="8.35" ry="8.35" transform="translate(-28.16 36.72) rotate(-9.57)" style="fill:#9e9d24"/><path d="M176.22,170a59.26,59.26,0,0,0-12.62-3.92,5.18,5.18,0,0,1,.44,2c0,4.51-6,8.16-13.5,8.16s-13.5-3.65-13.5-8.16a5.05,5.05,0,0,1,.17-1.25,80.81,80.81,0,0,0-10,3.13c-12.31,4.65-11.92,3.43-19.15,7.09a2.32,2.32,0,0,0-1.2,1.87c-2.4,25.42-4.79,38.12-4.6,52.87.51,38.84-4.75,48.28-9.8,78.7-3.07,18.49,3.26,19.73-.58,29.2,38.56-2.48,70.51,1.19,109.07-1.29l-7.71-158C188.71,175.29,187.83,175.06,176.22,170Z" style="fill:#9e9d24"/><rect x="80.8" y="138.1" width="16.7" height="111.17" rx="8.35" ry="8.35" transform="translate(32.14 -11.77) rotate(9.21)" style="fill:#9e9d24"/><path d="M97.17,116.38c-2.23,9.07-5.28,17.74-7.37,24.75-1.37,4.6-2.53,5.39-4.57,7.25S82.17,152.26,81,157c0,0-4.74,24.38-5.87,27.77s-10.42,3.08,12,36.6c8.36,12.5,27.29,40.8,58.33,44.33,49.15,5.6,59.72-20.48,65.67-56.83,2-12.42,10-11.5,4.75-21-2.61-4.73-1.11-18.11-4.5-22.25-.39-.48-.26-7-1-8.62-1.56-3.3-3-12.26-4.11-13.58-1.88-2.27-.42-8.53-3.49-10.3-3.45-2-7.08-6.71-7.4-8C191.81,110.6,104.13,88.07,97.17,116.38Z" style="fill:#dce775"/><path d="M111.17,125.71c1.11-2.81,6.71-3.66,11-2.83,8.41,1.63,8.11,9,15,11.17,9.42,2.92,15.36-9.25,31.33-8.5,1.17.06,9.22.43,10,3.5s-5.52,7.58-11.17,9.83c-6.6,2.63-9.68,1-25.17.33-14.64-.62-18.41.57-23.83-3C114.45,133.66,109.95,128.81,111.17,125.71Z" style="fill:#efc3b6"/><path d="M189.23,75.45l-.29.11c-3.57-25.19-21.9-44.38-44-44.38-23.21,0-42.27,21.18-44.41,48.26l-.55-.19V93.38a7.1,7.1,0,0,0,.91-.35c3.4,25.43,21.83,44.86,44.05,44.86,23.28,0,42.39-21.33,44.43-48.53a7.23,7.23,0,0,0,.71.19Z" style="fill:#fdc"/><path d="M180.31,81.13c-1.62-.26-.48,26.8-11.95,38.7-11.64,12.07-28.07,10.63-27.86,12.6.19,1.76,13.34,4.16,24.63-2.63a33.68,33.68,0,0,0,11.41-11.95C183.57,105.63,181.78,81.37,180.31,81.13Z" style="fill:#efc3b6;opacity:0.42"/><ellipse cx="125.37" cy="108.1" rx="10.84" ry="10.73" style="fill:#ff958d;opacity:0.6000000000000001"/><ellipse cx="167.38" cy="106.75" rx="10.35" ry="10.24" style="fill:#ff958d;opacity:0.6000000000000001"/><path d="M130.4,113.27a18.76,18.76,0,0,0,33.55-3.17" style="fill:none;stroke:#6d5145;stroke-miterlimit:10"/><path d="M185.19,68.15" style="fill:#6d6e71"/><path d="M106.51,94a25.31,25.31,0,0,1,3.22-15.54c4.4-7.24,11.45-9.45,16.07-10.89,5.39-1.68,10.56-1.86,10.69-1.23s-6.4,1.58-13.66,6.53c-2.94,2-7.57,5.16-10.39,10.57-5.12,9.8-1.1,20.88-2.38,21.13C109.2,104.76,107,99.54,106.51,94Z" style="fill:#efc3b6;opacity:0.45"/><path d="M103,82.45c4.2-4.86,19.17-20.93,41.63-21.48,22-.54,37.22,14.24,41.63,18.88L170.57,44.94l-55.73,3.12Z" style="fill:#c0ca33"/><path d="M122.32,55.19c2-2,7.75-7.49,16.66-8.8,9.94-1.46,17.25,3.3,22,6.42,5.59,3.64,11.94,9.71,11.47,10.3s-8.56-6.13-18.54-9c-4-1.17-10.41-3-17.49-1.49-12.83,2.74-21.88,14.82-23.06,13.85C112.58,65.8,117.64,59.81,122.32,55.19Z" style="fill:#afb42b;opacity:0.45"/><path d="M190.11,116.83c.81-7.79.2-40.92-1.44-49.29A55.3,55.3,0,0,0,187,61c-4.35-11.67-14.16-20.18-17-22.17-4-2.81-12.41-8.5-24.67-8.83a43.85,43.85,0,0,0-22.17,5.67c-7.55,4.26-14.18,13.53-19.25,25-2,6.88-1,6.3-3.58,12.79-.7,1.78-2.6,34.18-1.94,43.29.51,7,1.6,11.8,13.9,18,17.08,8.68,28.59,6.07,31.38,5.33l5.83,2.33c21,3.19,43.84,22.69,51,10.5C209.46,137.8,189.47,122.95,190.11,116.83ZM160.5,136a40.59,40.59,0,0,1-15.5,3.3c-4.08-.12-9.5-.22-19.12-6.58-7.95-6.73-7.95-8.4-11.35-15.78-2.2-5.52-12.38-33.5-1.81-49.5,1.79-2.71,11.41-17.27,28.62-18.62,21.25-1.67,34.52,18.33,35.17,19.33C188.91,93.72,177.51,126.42,160.5,136Z" style="fill:#dce775"/><path d="M96.62,85c-2.42,9.22-3.7,21,2.07,31.06,5.28,9.19,12.12,9.3,20.71,20,1,1.25,11.51,14.69,12.43,31.06,1.25,22.4-16.76,26.79-15.88,42.8,1.29,23.54,40.94,27.31,70.41,65.58,12.32,16,27,53.48,30.06,64.17" style="fill:none;stroke:#58595b;stroke-miterlimit:10;stroke-width:2px"/><rect x="88.53" y="76.16" width="3.98" height="18.31" rx="1.99" ry="1.99" style="fill:#039be5"/><rect x="197.02" y="73.11" width="3.98" height="18.31" rx="1.99" ry="1.99" style="fill:#039be5"/><path d="M195.18,68.81c-3-26.89-26.62-47.17-53-45.73-25.63,1.4-46.68,22.86-47.72,49.24a5.59,5.59,0,0,0-3.5,5.17V92.88a5.57,5.57,0,0,0,11.15,0V77.48a5.59,5.59,0,0,0-3.62-5.21c1.49-24.44,21.48-43.94,45.29-44.68S188.37,45,191.58,68.85a5.59,5.59,0,0,0-3.72,5.25V89.49a5.57,5.57,0,0,0,11.15,0V74.1A5.59,5.59,0,0,0,195.18,68.81Z" style="fill:#4fc3f7"/><path d="M200.53,220.39c.62.23-3.22,21.07-18.09,32-2.69,2-6.13,3.9-6.47,3.47-.51-.65,7-6.07,13.64-14.7C198.38,229.79,200.11,220.24,200.53,220.39Z" style="fill:#afb42b;opacity:0.45"/><path d="M169.81,135.1c.33.27,10.67-8.59,11.92-20.36.23-2.13.19-4.67-.16-4.71-.53-.07-1.13,5.83-3.77,12.32C174.34,130.88,169.59,134.92,169.81,135.1Z" style="fill:#afb42b;opacity:0.45"/><path d="M191.39,91.77c1.68,16.69-12,31.91-29,30.73-1.19-.08-3.05,1.62-1.1,1.76,18.63,1.29,34.89-14.42,33-33.27-.1-1-3-.4-2.9.78Z" style="fill:#81d4fa"/><path d="M77.83,223.08l-4.5,10.82-1,6.08a8.35,8.35,0,0,0,16.48,2.67L91.36,227Z" style="fill:#c0ca33"/><path d="M100.42,266.63l57.51,7.07a2,2,0,0,0,2.2-1.72l7.35-59.77-10.94-16.47L109.84,190a2,2,0,0,0-2.2,1.72L98.7,264.43A2,2,0,0,0,100.42,266.63Z" style="fill:#fff8e1"/><path d="M156.67,210.88l10.81,1.33-10.94-16.47-1.59,12.94A2,2,0,0,0,156.67,210.88Z" style="fill:#ffd54f"/><path d="M98.07,270.05l57.51,7.07a2,2,0,0,0,2.2-1.72l7.35-59.77-10.94-16.47-46.7-5.74a2,2,0,0,0-2.2,1.72l-8.94,72.71A2,2,0,0,0,98.07,270.05Z" style="fill:#fbe9e7"/><path d="M154.32,214.3l10.81,1.33-10.94-16.47L152.6,212.1A2,2,0,0,0,154.32,214.3Z" style="fill:#ff8a65"/><g style="opacity:0.46"><path d="M145.84,228.95l-4.48-3.33-4.54-3.38a5.53,5.53,0,0,0-5.55-.68L126,223.73l-5.15,2.14a5.53,5.53,0,0,0-3.45,4.54l-.67,5.44-.67,5.44a5.53,5.53,0,0,0,2.24,5.24l4.48,3.33,4.54,3.38a5.53,5.53,0,0,0,5.55.68l5.23-2.17,5.16-2.14a5.53,5.53,0,0,0,3.45-4.54l.67-5.44.67-5.44A5.53,5.53,0,0,0,145.84,228.95ZM138,230.09l1.82.22a.76.76,0,0,1,.66.84l-3.32-.41A.76.76,0,0,1,138,230.09ZM127.26,229c1-.3,2.55.25,4,1.63s1.34,2.33,1.34,2.33a5.84,5.84,0,0,0-1.85-1.29c-.76-.19-1.05-.27-1.59.19a2,2,0,0,0-.58,1.27l-2-.27a3.2,3.2,0,0,0-.65-1.55c-.5-.48-.71-.43-.71-.43l.13-1.83A4.22,4.22,0,0,0,127.26,229Zm-3.53,1.8.13-1.79,1.08.08-.13,1.79Zm13.05,16.5-.42-1.08,1.1.14Zm1-1.41-.1.14-1.48-.18-.06-.16-.64-1.62,1.65.2,1.65.2Zm2.54-5.65a8.79,8.79,0,0,1-1,0l-.49,3.94-.59-.07.48-3.9-.36,0-.48,3.89-1.45-.18.47-3.82-.36,0-.47,3.8-.57-.07.46-3.77c-2.92-.23-6.46-.54-7.8-.66l-.41,6.15s-.29.35-1.43.21-1.3-.68-1.3-.68l.75-6.18a3,3,0,0,1-1.65-1.83c-.12-.8.51-1.4,1-1.09a1.54,1.54,0,0,0,1,.23l.36-2.94,2.09.34-.16,2.42,7.9,1.42.76-6.19.57.07-.77,6.22.35.06.77-6.24,1.45.18-.78,6.32.35.06.78-6.34.59.07-.78,6.37.91.16s.6,0,.76.82A1.1,1.1,0,0,1,140.34,240.2Z" style="fill:#da544f"/><path d="M126.93,236.57c-1.49.6-1.92-.1-1.92-.1.08.51.19.73,1.12,1.63s1.7.75,2.26.1A1.12,1.12,0,0,0,126.93,236.57Z" style="fill:#da544f"/><path d="M140.28,238.68l-8.38-1.42a.81.81,0,0,1-.17,1.37l8.39,1a.38.38,0,0,0,.29-.09.5.5,0,0,0,.17-.57A.39.39,0,0,0,140.28,238.68Z" style="fill:#da544f"/><path d="M131.15,237l-2.13-.38a1.29,1.29,0,0,1-.24,1.85l0,0,2.2.15a1,1,0,0,0,.2-1.64Z" style="fill:#da544f"/></g><path d="M96.31,236.67c2.44-.4,3.08,1.09,8.87,2.43,1.59.37,1.47.89,2.53,1.18,3.54,1,4.05,1.88,6.15,1.85,1,0,1.52-.23,2,.17a2.34,2.34,0,0,1,0,2.84c-1.16,1.49-4.44.68-6.27.23-3.86-.95-3.57-2.05-7.1-2.89-2-.48-2.75-.28-7.11-1.13-2.66-.52-3.38-.79-3.45-1.23C91.81,239.31,94.16,237,96.31,236.67Z" style="fill:#f7d1c4"/><path d="M79.82,226.76c-1.42-5.85,2.65-9.66,5.4-11.52-6.67,1.67-10.2,7.41-4.72,13.53" style="fill:#edbba9"/><path d="M96,231.94c2.93-.48,4.12,1,11.07,2.58,1.91.44,1.78.32,3.05.67,4.25,1.15,4.86,2.26,7.38,2.22,1.18,0,1.82-.27,2.37.21a2.81,2.81,0,0,1,.05,3.41c-1.39,1.79-5.33.82-7.53.28-4.64-1.14-4.69-1.18-8.92-2.18-2.41-.57-2.9-1.62-8.14-2.65-3.2-.63-4.05-.95-4.14-1.48C91,234,93.42,232.36,96,231.94Z" style="fill:#f7ccba"/><path d="M87.64,242l-.41-.29Z" style="fill:#fdc"/><path d="M86.91,241.45l-.29-.23Z" style="fill:#fdc"/><path d="M88.39,242.48l-.49-.31Z" style="fill:#fdc"/><path d="M107.45,210.3c-5.93-.16-13.31,1.59-14,2.22-3.44-.08-7.75,1.59-10.44,3.06-2.23,2.37-4.52,5-4.34,11,.13,4.34,4.55,8.59,5.16,9.59,2.2,3.65,2.75,4.95,4.53,6.34.25.15.52.31.79.45,3.46,1.8,5,.86,9.53,2.45,3.7,1.29,3.63,2.22,7.27,3.13,1.5.37,5.78,1.44,7.15-.41a1.78,1.78,0,0,0,.38-1.35c-.3-1.4-3-1.63-6.26-2.67a32,32,0,0,1-5.89-2.53l-2.52-.66a1.6,1.6,0,0,0,1.14-.31,1.51,1.51,0,0,0,.57-.91c.1-.62-.34-.85-.23-1.36s.35-.4.9-1a4.11,4.11,0,0,0,1.13-1.77c.21-.78-.09-1.12.22-1.57a1.68,1.68,0,0,1,1.25-.59c4.56,1.85,8.79,1.87,11.28,3.26.64.36,7.11,2.22,7.91-.14.44-1.31-1.14-2.94-1.63-3.45-1.83-1.89-3.92-2.11-8.09-3.21-3.78-1-5.71-1.44-6.59-2-5.78-3.9-8.55-8.35-6-10.61,1.29-1.12,3.71-.72,8.35-2,1.78-.49,3.23,0,3.45-1.42s.67-1.84.16-2.2C111,210.36,108.5,210.33,107.45,210.3Z" style="fill:#fdc"/><path d="M81.42,235.27" style="fill:#edbba9"/><path d="M97.58,244.07c0-.09.67-.12,1.14-.65.63-.73.13-1.6.55-2s1.91.47,4.19,1.5c2.57,1.16,4.47,1.57,4.44,1.69s-1-.21-3-.48a23.82,23.82,0,0,0-3.66-.3C99.27,243.87,97.61,244.22,97.58,244.07Z" style="fill:#f7d1c4"/><path d="M99.05,211c-.52.31-1,.09-1.55.4a6.17,6.17,0,0,0-1.26,1.14,5.37,5.37,0,0,0-1.33,3.13c0,1.24,1,2,2.43,3.31a41,41,0,0,1,6.48,8,20.59,20.59,0,0,1,1.56,3.42,3.13,3.13,0,0,1-.69,2.38,2.74,2.74,0,0,1-.87.64c4.56,1.85,8.79,1.87,11.28,3.26.64.36,7.11,2.22,7.91-.14.44-1.31-1.14-2.94-1.63-3.45-1.83-1.89-3.92-2.11-8.09-3.21-3.78-1-5.71-1.44-6.59-2-5.78-3.9-8.55-8.35-6-10.61,1.29-1.12,3.71-.72,8.35-2,1.78-.49,3.23,0,3.45-1.42s.67-1.84.16-2.2c-1.84-1.33-5.24-1.31-5.24-1.31A45.13,45.13,0,0,0,99.05,211Z" style="fill:#efc0af"/><path d="M214.3,208.73l4.5,10.82,1,6.08a8.35,8.35,0,0,1-16.48,2.67l-2.54-15.67Z" style="fill:#afb42b"/><path d="M195.82,222.32c-2.44-.4-3.08,1.09-8.87,2.43-1.59.37-1.47.89-2.53,1.18-3.54,1-4.05,1.88-6.15,1.85-1,0-1.52-.23-2,.17a2.34,2.34,0,0,0,0,2.84c1.16,1.49,4.44.68,6.27.23,3.86-.95,3.57-2.05,7.1-2.89,2-.48,2.75-.28,7.11-1.13,2.66-.52,3.38-.79,3.45-1.23C200.32,225,198,222.67,195.82,222.32Z" style="fill:#f7d1c4"/><path d="M212.3,212.42c1.42-5.85-2.65-9.66-5.4-11.52,6.67,1.67,10.2,7.41,4.72,13.53" style="fill:#edbba9"/><path d="M196.13,217.59c-2.93-.48-4.12,1-11.07,2.58-1.91.44-1.78.32-3.05.67-4.25,1.15-4.86,2.26-7.38,2.22-1.18,0-1.82-.27-2.37.21a2.81,2.81,0,0,0-.05,3.41c1.39,1.79,5.33.82,7.53.28,4.64-1.14,4.69-1.18,8.92-2.18,2.41-.57,2.9-1.62,8.14-2.65,3.2-.63,4.05-.95,4.14-1.48C201.1,219.68,198.71,218,196.13,217.59Z" style="fill:#f7ccba"/><path d="M204.49,227.64l.41-.29Z" style="fill:#fdc"/><path d="M205.22,227.11l.29-.23Z" style="fill:#fdc"/><path d="M203.73,228.13l.49-.31Z" style="fill:#fdc"/><path d="M184.68,196c5.93-.16,13.31,1.59,14,2.22,3.44-.08,7.75,1.59,10.44,3.06,2.23,2.37,4.52,5,4.34,11-.13,4.34-4.55,8.59-5.16,9.59-2.2,3.65-2.75,4.95-4.53,6.34-.25.15-.52.31-.79.45-3.46,1.8-5,.86-9.53,2.45-3.7,1.29-3.63,2.22-7.27,3.13-1.5.37-5.78,1.44-7.15-.41a1.78,1.78,0,0,1-.38-1.35c.3-1.4,3-1.63,6.26-2.67a32,32,0,0,0,5.89-2.53l2.52-.66a1.6,1.6,0,0,1-1.14-.31,1.51,1.51,0,0,1-.57-.91c-.1-.62.34-.85.23-1.36s-.35-.4-.9-1a4.11,4.11,0,0,1-1.13-1.77c-.21-.78.09-1.12-.22-1.57a1.68,1.68,0,0,0-1.25-.59c-4.56,1.85-8.79,1.87-11.28,3.26-.64.36-7.11,2.22-7.91-.14-.44-1.31,1.14-2.94,1.63-3.45,1.83-1.89,3.92-2.11,8.09-3.21,3.78-1,5.71-1.44,6.59-2,5.78-3.9,8.55-8.35,6-10.61-1.29-1.12-3.71-.72-8.35-2-1.78-.49-3.23,0-3.45-1.42s-.67-1.84-.16-2.2C181.17,196,183.63,196,184.68,196Z" style="fill:#fdc"/><path d="M210.71,220.92" style="fill:#edbba9"/><path d="M194.55,229.72c0-.09-.67-.12-1.14-.65-.63-.73-.13-1.6-.55-2s-1.91.47-4.19,1.5c-2.57,1.16-4.47,1.57-4.44,1.69s1-.21,3-.48a23.82,23.82,0,0,1,3.66-.3C192.86,229.52,194.52,229.87,194.55,229.72Z" style="fill:#f7d1c4"/><path d="M193.08,196.67c.52.31,1,.09,1.55.4a6.17,6.17,0,0,1,1.26,1.14,5.37,5.37,0,0,1,1.33,3.13c0,1.24-1,2-2.43,3.31a41,41,0,0,0-6.48,8,20.59,20.59,0,0,0-1.56,3.42,3.13,3.13,0,0,0,.69,2.38,2.74,2.74,0,0,0,.87.64c-4.56,1.85-8.79,1.87-11.28,3.26-.64.36-7.11,2.22-7.91-.14-.44-1.31,1.14-2.94,1.63-3.45,1.83-1.89,3.92-2.11,8.09-3.21,3.78-1,5.71-1.44,6.59-2,5.78-3.9,8.55-8.35,6-10.61-1.29-1.12-3.71-.72-8.35-2-1.78-.49-3.23,0-3.45-1.42s-.67-1.84-.16-2.2c1.84-1.33,5.24-1.31,5.24-1.31A45.13,45.13,0,0,1,193.08,196.67Z" style="fill:#efc0af"/><path d="M121.94,137.15c.12-.67,13.65,1.94,21.25,16.93,1.38,2.71,2.76,6.22,2.5,6.61-.4.59-4.19-6.95-10-13.42C128.05,138.77,121.86,137.6,121.94,137.15Z" style="fill:#afb42b;opacity:0.45"/><path d="M116.92,55.88c-.38-.44,13.71-14.08,28-13.71,8.58.21,17.52,6.85,22.71,8.58.18.58-18.75-5.38-26.18-5C131.74,46.25,117.18,56.18,116.92,55.88Z" style="fill:#e6ee9c"/><path d="M77.5,194.71c-.86.1-2.56-2.91-2-5.67.48-2.38,2.43-3.51,3.67-4.67,4.8-4.51,2.07-12.59,3-19.33,1.68-12.16,14-19.26,14.33-19s-9,6.47-10.33,17c-1.16,9.32,4.75,15.48,1,20-2.27,2.74-5.94,2.27-8,6.33C77.79,192.11,78.27,194.62,77.5,194.71Z" style="fill:#e6ee9c"/><polygon points="287.86 256.66 222.6 261.69 220.36 274.82 277.75 260.9 287.86 256.66" style="fill:#ef9a9a"/><polygon points="288.64 256.59 213.76 253.49 223.77 262.77 288.64 256.59" style="fill:#ef9a9a"/><polygon points="287.86 256.66 222.6 261.69 220.36 274.82 277.75 260.9 287.86 256.66" style="fill:#616161;opacity:0.17"/><polygon points="223.77 262.77 227.37 286.78 288.64 256.59 223.77 262.77" style="fill:#ffcdd2"/><polygon points="223.77 262.77 220.36 274.84 225.39 273.6 223.77 262.77" style="fill:#ffcdd2"/><polygon points="223.77 262.77 220.36 274.84 225.39 273.6 223.77 262.77" style="fill:#616161;opacity:0.17"/><path d="M59.48,249.57a68.4,68.4,0,0,0-11.41,10,49.6,49.6,0,0,0-8.37,12.53,29.29,29.29,0,0,0-2.85,14.5A18.07,18.07,0,0,0,39,293.55a16.7,16.7,0,0,0,5,5.24c4.07,2.77,9,4.12,13.91,4.91a78.43,78.43,0,0,0,15,.69,97.75,97.75,0,0,0,15-1.72,45.46,45.46,0,0,0,14-5c4.32-2.42,8.23-5.79,12.82-8.25a53.84,53.84,0,0,1,14.51-5.32,72.14,72.14,0,0,1,15.3-1.79,100.5,100.5,0,0,1,15.3,1.18c5,.69,10,1.44,15.09,1.64a59.09,59.09,0,0,0,15-1.26,70.88,70.88,0,0,0,27.4-12.57,69.49,69.49,0,0,1-27.18,13.52,59.69,59.69,0,0,1-15.26,1.57c-5.13-.11-10.21-.78-15.24-1.37a113.16,113.16,0,0,0-15.09-1,70.35,70.35,0,0,0-14.91,1.83,52,52,0,0,0-14,5.22c-4.37,2.37-8.21,5.74-12.76,8.32a47.42,47.42,0,0,1-14.6,5.14A99.52,99.52,0,0,1,73,306.2a80.17,80.17,0,0,1-15.37-.8c-5.07-.82-10.2-2.3-14.52-5.36a18.17,18.17,0,0,1-5.32-5.8,19.39,19.39,0,0,1-2.23-7.52c-.07-.65,0-1.31,0-2v-1c0-.32.06-.65.09-1l.21-1.94.41-1.9.2-.95c.08-.31.19-.62.29-.93l.59-1.85c.46-1.2,1-2.4,1.5-3.56a50.34,50.34,0,0,1,8.86-12.47A64,64,0,0,1,59.48,249.57Z" style="fill:#bdbdbd"/><circle cx="126.35" cy="89.37" r="6.13" style="fill:#414042"/><circle cx="166.65" cy="89.04" r="6.13" style="fill:#414042"/><path d="M132.49,81c-.25-.31-3.8-4.49-9.36-3.87a10.66,10.66,0,0,0-8.71,6.78" style="fill:none;stroke:#414042;stroke-miterlimit:10"/><path d="M159,79.36c.21-.28,3.66-4.68,9.36-4.2A10.63,10.63,0,0,1,177,81.3" style="fill:none;stroke:#414042;stroke-miterlimit:10"/></g></g></svg>