<svg xmlns="http://www.w3.org/2000/svg" viewBox="0 0 317.7 334.15"><title>DMSCW</title><g id="9e00cf59-ed00-4ff2-afeb-da3a9f7bc4bf" data-name="Layer 2"><g id="a22e6f76-35cf-496c-b042-d54a92c4b5c8" data-name="Layer 1"><path d="M126.37,203H15.47a4,4,0,0,0-4,4v68.27h119V207.06A4,4,0,0,0,126.37,203Z" style="fill:#757575"/><path d="M1.73,275.33H140.91a1.61,1.61,0,0,1,1.54,2.05l-.84,2.9a1.61,1.61,0,0,1-1.54,1.16H2.71a1.61,1.61,0,0,1-1.52-1.09l-1-2.9A1.61,1.61,0,0,1,1.73,275.33Z" style="fill:#fafafa;stroke:#e0e0e0;stroke-miterlimit:10;stroke-width:0.25px"/><polygon points="130.31 273.74 11.44 273.74 1.73 275.33 141.43 275.33 130.31 273.74" style="fill:#e0e0e0"/><rect x="63.78" y="274.94" width="15.56" height="2.26" rx="0.65" ry="0.65" style="fill:#e0e0e0"/><rect x="15.27" y="206.36" width="110.66" height="65.2" style="fill:#26c6da"/><rect x="18.13" y="210.7" width="105.7" height="57.27" style="fill:#455a64"/><rect x="18.13" y="210.7" width="105.7" height="4.33" style="fill:#e0e0e0"/><circle cx="20.39" cy="212.86" r="1.14" style="fill:#fafafa"/><circle cx="23.71" cy="212.86" r="1.14" style="fill:#fafafa"/><circle cx="26.92" cy="212.86" r="1.14" style="fill:#fafafa"/><polygon points="15.27 271.47 15.27 271.56 125.94 271.56 125.94 206.36 102.81 206.36 15.27 271.47" style="fill:#231f20;opacity:0.18"/><line x1="69.22" y1="222.75" x2="37.03" y2="222.79" style="fill:none;stroke:#26c6da;stroke-miterlimit:10;stroke-width:2px"/><line x1="88.73" y1="232.68" x2="62.49" y2="232.71" style="fill:none;stroke:#80deea;stroke-miterlimit:10;stroke-width:2px"/><line x1="69.51" y1="249.39" x2="43.26" y2="249.42" style="fill:none;stroke:#80deea;stroke-miterlimit:10;stroke-width:2px"/><line x1="96.59" y1="238.2" x2="64.4" y2="238.24" style="fill:none;stroke:#80deea;stroke-miterlimit:10;stroke-width:2px"/><line x1="89.03" y1="255" x2="56.84" y2="255.03" style="fill:none;stroke:#80deea;stroke-miterlimit:10;stroke-width:2px"/><line x1="59.26" y1="232.71" x2="43.24" y2="232.73" style="fill:none;stroke:#80deea;stroke-miterlimit:10;stroke-width:2px"/><line x1="62.49" y1="238.24" x2="46.48" y2="238.26" style="fill:none;stroke:#80deea;stroke-miterlimit:10;stroke-width:2px"/><line x1="43.25" y1="238.26" x2="37.75" y2="238.27" style="fill:none;stroke:#80deea;stroke-miterlimit:10;stroke-width:2px"/><line x1="96.57" y1="249.36" x2="91.06" y2="249.36" style="fill:none;stroke:#80deea;stroke-miterlimit:10;stroke-width:2px"/><line x1="104.16" y1="238.19" x2="98.66" y2="238.2" style="fill:none;stroke:#26c6da;stroke-miterlimit:10;stroke-width:2px"/><line x1="104.18" y1="249.35" x2="98.67" y2="249.36" style="fill:none;stroke:#80deea;stroke-miterlimit:10;stroke-width:2px"/><line x1="104.16" y1="232.66" x2="91.04" y2="232.68" style="fill:none;stroke:#80deea;stroke-miterlimit:10;stroke-width:2px"/><line x1="104.18" y1="254.98" x2="91.07" y2="254.99" style="fill:none;stroke:#80deea;stroke-miterlimit:10;stroke-width:2px"/><line x1="88.52" y1="249.37" x2="72.5" y2="249.39" style="fill:none;stroke:#26c6da;stroke-miterlimit:10;stroke-width:2px"/><line x1="62.01" y1="261.69" x2="56.51" y2="261.69" style="fill:none;stroke:#80deea;stroke-miterlimit:10;stroke-width:2px"/><line x1="69.62" y1="261.68" x2="64.12" y2="261.68" style="fill:none;stroke:#26c6da;stroke-miterlimit:10;stroke-width:2px"/><line x1="53.96" y1="261.7" x2="37.95" y2="261.71" style="fill:none;stroke:#80deea;stroke-miterlimit:10;stroke-width:2px"/><line x1="53.77" y1="243.78" x2="37.75" y2="243.8" style="fill:none;stroke:#80deea;stroke-miterlimit:10;stroke-width:2px"/><line x1="53.78" y1="255.04" x2="37.77" y2="255.06" style="fill:none;stroke:#80deea;stroke-miterlimit:10;stroke-width:2px"/><rect x="11.02" y="68.57" width="112" height="6.86" style="fill:#bdbdbd"/><rect x="11.02" y="70.36" width="112" height="6.86" style="fill:#eee"/><rect x="16.63" y="14.34" width="21.5" height="55.88" style="fill:#e57373"/><rect x="19.13" y="18.93" width="16.5" height="2.77" style="fill:#fafafa"/><rect x="19.13" y="24.65" width="16.5" height="2.77" style="fill:#fafafa"/><rect x="19.13" y="63.4" width="16.5" height="2.77" style="fill:#fafafa"/><polygon points="16.63 14.34 19.44 13.34 40.94 13.34 40.94 69.22 38.13 70.22 38.13 14.34 16.63 14.34" style="fill:#da544f"/><rect x="104.46" y="14.24" width="21.5" height="55.88" transform="translate(-1.57 79.79) rotate(-37.96)" style="fill:#ce93d8"/><rect x="93.45" y="23.48" width="16.5" height="2.77" transform="translate(6.22 67.82) rotate(-37.96)" style="fill:#fafafa"/><rect x="96.97" y="27.99" width="16.5" height="2.77" transform="translate(4.19 70.93) rotate(-37.96)" style="fill:#fafafa"/><rect x="120.8" y="58.54" width="16.5" height="2.77" transform="translate(-9.56 92.06) rotate(-37.96)" style="fill:#fafafa"/><polygon points="89.55 26.76 91.15 24.25 108.1 11.02 142.47 55.08 140.87 57.6 106.5 13.54 89.55 26.76" style="fill:#ba68c8"/><rect x="41.94" y="14.35" width="21.5" height="55.88" style="fill:#4fc3f7"/><rect x="44.44" y="18.94" width="16.5" height="2.77" style="fill:#fafafa"/><rect x="44.44" y="24.66" width="16.5" height="2.77" style="fill:#fafafa"/><rect x="44.44" y="63.42" width="16.5" height="2.77" style="fill:#fafafa"/><polygon points="41.94 14.35 44.75 13.35 66.25 13.35 66.25 69.23 63.44 70.23 63.44 14.35 41.94 14.35" style="fill:#29b6f6"/><rect x="67.6" y="13.84" width="21.5" height="55.88" style="fill:#d4e157"/><rect x="70.1" y="18.43" width="16.5" height="2.77" style="fill:#fafafa"/><rect x="70.1" y="24.15" width="16.5" height="2.77" style="fill:#fafafa"/><rect x="70.1" y="62.9" width="16.5" height="2.77" style="fill:#fafafa"/><polygon points="67.6 13.84 70.42 12.84 91.92 12.84 91.92 68.72 89.1 69.72 89.1 13.84 67.6 13.84" style="fill:#c0ca33"/><polygon points="110.08 46.48 97.4 185.22 218.72 187.55 203.38 42.27 110.08 46.48" style="fill:#58595b"/><path d="M208.13,186.23c5.27.25,5.81.32,8.92-.75L204.88,75.1c1.72,27,3.16,47.75,4.51,63.38,1.14,13.29,1.23,17.42.67,24.67C209.17,174.57,208.34,184.19,208.13,186.23Z" style="fill:#6d6e71"/><polygon points="113.61 63.53 106.62 163.26 128.94 165.98 130.98 61.31 113.61 63.53" style="fill:#414042"/><polygon points="134.93 88.64 131.9 166.61 133.74 167.99 136.47 86.32 134.93 88.64" style="fill:#414042"/><rect x="99.51" y="135.68" width="16.7" height="111.17" rx="8.35" ry="8.35" transform="translate(32 -14.8) rotate(9.21)" style="fill:#81d4fa"/><rect x="172.31" y="269.08" width="53.13" height="45.93" rx="10.21" ry="10.21" style="fill:#fbc02d"/><rect x="168.31" y="272.09" width="53.13" height="45.93" rx="10.21" ry="10.21" style="fill:#fdd835"/><rect x="217" y="87" width="16.7" height="98.5" rx="8.35" ry="8.35" transform="translate(156.04 390.29) rotate(-105.9)" style="fill:#81d4fa"/><rect x="259.47" y="53.01" width="16.7" height="78.53" rx="8.35" ry="8.35" transform="matrix(1, 0.08, -0.08, 1, 7.84, -20.21)" style="fill:#b3e5fc"/><rect x="133.89" y="228.97" width="16.7" height="105.18" style="fill:#ff8a65"/><path d="M185.36,128.73a69.07,69.07,0,0,0-19.58-4V102.26H150.85v23.11c-6.49.92-3.57,0-6.49.92-12.88,4-12.58,3.45-19.32,9.19l-1.54,69.8,68.77,1.86,7.7-71.06C195.4,131.81,197,132.94,185.36,128.73Z" style="fill:#edbba9"/><rect x="167.22" y="228.97" width="16.7" height="105.18" style="fill:#ff8a65"/><path d="M204.49,49.11a6.92,6.92,0,0,0-2.75.57c-3.57-25.19-21.9-44.38-44-44.38-23.21,0-42.27,21.18-44.41,48.26a6.91,6.91,0,0,0-2.59-.51,7.39,7.39,0,0,0,0,14.77,6.91,6.91,0,0,0,3-.67c3.4,25.43,21.83,44.86,44.05,44.86,23.28,0,42.39-21.33,44.43-48.53a6.91,6.91,0,0,0,2.3.4,7.39,7.39,0,0,0,0-14.77Z" style="fill:#fdc"/><path d="M194.11,55.25c-1.62-.26-.48,26.8-11.95,38.7-11.64,12.07-28.07,10.63-27.86,12.6.19,1.76,13.34,4.16,24.63-2.63A33.68,33.68,0,0,0,190.33,92C197.37,79.75,195.58,55.49,194.11,55.25Z" style="fill:#efc3b6;opacity:0.42"/><ellipse cx="133.88" cy="73.97" rx="8.39" ry="8.31" style="fill:#ff958d"/><ellipse cx="184.92" cy="72.28" rx="7.81" ry="7.73" style="fill:#ff958d"/><ellipse cx="175.59" cy="100.35" rx="17.02" ry="16.84" style="fill:#ffee58"/><path d="M154.79,103c.38.32,4.79-2.28,5.47-6.54.75-4.69-3.43-8.82-3.84-8.62s2.24,3.47,1.68,8S154.45,102.69,154.79,103Z" style="fill:#6d5145"/><path d="M198,42.27" style="fill:#6d6e71"/><path d="M116.31,64.14a25.31,25.31,0,0,1,3.22-15.54c4.4-7.24,11.45-9.45,16.07-10.89C141,36,146.16,35.85,146.3,36.48s-6.4,1.58-13.66,6.53c-2.94,2-7.57,5.16-10.39,10.57-5.12,9.8-1.1,20.88-2.38,21.13C119,74.88,116.81,69.66,116.31,64.14Z" style="fill:#efc3b6;opacity:0.45"/><path d="M185.36,128.42A66.5,66.5,0,0,0,172.74,125a3.94,3.94,0,0,1,.44,1.75c0,3.88-6,7-13.5,7s-13.5-3.14-13.5-7a3.78,3.78,0,0,1,.17-1.07,90.57,90.57,0,0,0-10,2.7c-12.31,4-11.92,2.95-19.15,6.1a2,2,0,0,0-1.2,1.61c-2.4,21.87-4.79,32.79-4.6,45.48.51,33.41-.23,67.54-1.55,93.52,0,16.56-2,22.86-1.5,28,38.61,1.93,60.78,4.25,99.34,2.11l-5.31-167.84C197.84,133,197,132.79,185.36,128.42Z" style="fill:#81d4fa"/><path d="M134.73,62a13.16,13.16,0,0,0,15.9-.41" style="fill:none;stroke:#414042;stroke-miterlimit:10"/><line x1="142.17" y1="64.45" x2="142.17" y2="66.67" style="fill:none;stroke:#414042;stroke-miterlimit:10"/><line x1="144.47" y1="64.47" x2="144.98" y2="66.36" style="fill:none;stroke:#414042;stroke-miterlimit:10"/><line x1="146.59" y1="63.82" x2="147.43" y2="65.56" style="fill:none;stroke:#414042;stroke-miterlimit:10"/><line x1="137.88" y1="63.88" x2="136.66" y2="64.76" style="fill:none;stroke:#414042;stroke-miterlimit:10"/><line x1="148.43" y1="63.01" x2="149.81" y2="64.13" style="fill:none;stroke:#414042;stroke-miterlimit:10"/><line x1="139.84" y1="64.5" x2="138.99" y2="66.25" style="fill:none;stroke:#414042;stroke-miterlimit:10"/><path d="M182.29,61.36a13.16,13.16,0,0,1-15.9-.41" style="fill:none;stroke:#414042;stroke-miterlimit:10"/><line x1="174.86" y1="63.83" x2="174.86" y2="66.05" style="fill:none;stroke:#414042;stroke-miterlimit:10"/><line x1="172.56" y1="63.85" x2="172.04" y2="65.73" style="fill:none;stroke:#414042;stroke-miterlimit:10"/><line x1="170.43" y1="63.19" x2="169.59" y2="64.94" style="fill:none;stroke:#414042;stroke-miterlimit:10"/><line x1="179.15" y1="63.25" x2="180.37" y2="64.14" style="fill:none;stroke:#414042;stroke-miterlimit:10"/><line x1="168.59" y1="62.39" x2="167.22" y2="63.51" style="fill:none;stroke:#414042;stroke-miterlimit:10"/><line x1="177.18" y1="63.88" x2="178.03" y2="65.63" style="fill:none;stroke:#414042;stroke-miterlimit:10"/><path d="M114.13,49.91,198,42.27l3.4,10c6.35-16.17,3.33-21.66-3.4-34.85C188.17-1.78,163.13.4,159.18.14l-.76-.05c-13-.82-28.94,4.24-39.34,16.45C108.46,29,107.5,43.75,108.9,50.64c.52,2.55.61,1.13,3.16,6.51Z" style="fill:#58595b"/><path d="M171.59,37.86" style="fill:#966754"/><path d="M225.38,279.15A334.15,334.15,0,0,1,118.54,132.66l-5.15,2.16A314.5,314.5,0,0,0,224.72,283.15Z" style="fill:#fbc02d"/><path d="M96.54,220.66,92,231.48l-1,6.08a8.35,8.35,0,0,0,16.48,2.67l2.54-15.67Z" style="fill:#b3e5fc"/><path d="M119.14,264.2l57.51,7.07a2,2,0,0,0,2.2-1.72l7.35-59.77-10.94-16.47-46.7-5.74a2,2,0,0,0-2.2,1.72L117.42,262A2,2,0,0,0,119.14,264.2Z" style="fill:#fff8e1"/><path d="M175.38,208.45l10.81,1.33-10.94-16.47-1.59,12.94A2,2,0,0,0,175.38,208.45Z" style="fill:#ffd54f"/><path d="M116.78,267.63l57.51,7.07a2,2,0,0,0,2.2-1.72l7.35-59.77L172.9,196.73,126.2,191a2,2,0,0,0-2.2,1.72l-8.94,72.71A2,2,0,0,0,116.78,267.63Z" style="fill:#f9fbe7"/><path d="M173,211.88l10.81,1.33L172.9,196.73l-1.59,12.94A2,2,0,0,0,173,211.88Z" style="fill:#dce775"/><path d="M255.59,74l-18.26,3.65a3.3,3.3,0,0,1-3.7-3.6l.86-40.89a3.51,3.51,0,0,1,2.59-3.46l17.82-3.83a3.29,3.29,0,0,1,3.74,3.54l-.42,41.06A3.51,3.51,0,0,1,255.59,74Z" style="fill:#f8bbd0"/><path d="M256.82,74.79l-18.26,3.65a3.3,3.3,0,0,1-3.7-3.6L235.72,34a3.51,3.51,0,0,1,2.59-3.46l17.82-3.83a3.29,3.29,0,0,1,3.74,3.54l-.42,41.06A3.51,3.51,0,0,1,256.82,74.79Z" style="fill:#fce4ec"/><g style="opacity:0.46"><path d="M164.55,226.52l-4.48-3.33-4.54-3.38a5.53,5.53,0,0,0-5.55-.68l-5.23,2.17-5.15,2.14a5.53,5.53,0,0,0-3.45,4.54l-.67,5.44-.67,5.44A5.53,5.53,0,0,0,137,244.1l4.48,3.33,4.54,3.38a5.53,5.53,0,0,0,5.55.68l5.23-2.17,5.16-2.14a5.53,5.53,0,0,0,3.45-4.54l.67-5.44.67-5.44A5.53,5.53,0,0,0,164.55,226.52Zm-7.86,1.14,1.82.22a.76.76,0,0,1,.66.84l-3.32-.41A.76.76,0,0,1,156.69,227.67ZM146,226.54c1-.3,2.55.25,4,1.63s1.34,2.33,1.34,2.33a5.84,5.84,0,0,0-1.85-1.29c-.76-.19-1.05-.27-1.59.19a2,2,0,0,0-.58,1.27l-2-.27a3.2,3.2,0,0,0-.65-1.55c-.5-.48-.71-.43-.71-.43l.13-1.83A4.22,4.22,0,0,0,146,226.54Zm-3.53,1.8.13-1.79,1.08.08-.13,1.79Zm13.05,16.5-.42-1.08,1.1.14Zm1-1.41-.1.14-1.48-.18-.06-.16-.64-1.62,1.65.2,1.65.2Zm2.54-5.65a8.79,8.79,0,0,1-1,0l-.49,3.94-.59-.07.48-3.9-.36,0-.48,3.89-1.45-.18.47-3.82-.36,0-.47,3.8-.57-.07.46-3.77c-2.92-.23-6.46-.54-7.8-.66l-.41,6.15s-.29.35-1.43.21-1.3-.68-1.3-.68l.75-6.18a3,3,0,0,1-1.65-1.83c-.12-.8.51-1.4,1-1.09a1.54,1.54,0,0,0,1,.23l.36-2.94,2.09.34-.16,2.42,7.9,1.42.76-6.19.57.07-.77,6.22.35.06.77-6.24,1.45.18-.78,6.32.35.06.78-6.34.59.07-.78,6.37.91.16s.6,0,.76.82A1.1,1.1,0,0,1,159.05,237.77Z" style="fill:#da544f"/><path d="M145.64,234.15c-1.49.6-1.92-.1-1.92-.1.08.51.19.73,1.12,1.63s1.7.75,2.26.1A1.12,1.12,0,0,0,145.64,234.15Z" style="fill:#da544f"/><path d="M159,236.26l-8.38-1.42a.81.81,0,0,1-.17,1.37l8.39,1a.38.38,0,0,0,.29-.09.5.5,0,0,0,.17-.57A.39.39,0,0,0,159,236.26Z" style="fill:#da544f"/><path d="M149.86,234.61l-2.13-.38a1.29,1.29,0,0,1-.24,1.85l0,0,2.2.15a1,1,0,0,0,.2-1.64Z" style="fill:#da544f"/></g><path d="M254.89,66.25c-2-1.49-3.23-.46-9-1.95-1.58-.41-1.71.11-2.78-.13-3.58-.79-4.46-.21-6.31-1.21-.86-.47-1.24-.9-1.83-.76a2.34,2.34,0,0,0-1.35,2.5c.34,1.86,3.62,2.66,5.45,3.11,3.86.94,4.12-.17,7.63.72,2,.5,2.57,1,6.83,2.29,2.6.77,3.36.86,3.63.5C257.66,70.68,256.63,67.56,254.89,66.25Z" style="fill:#f7d1c4"/><path d="M273.09,66.49c4.28-4.24,2.8-9.62,1.43-12.64,4.8,4.91,4.8,11.66-3.07,14" style="fill:#edbba9"/><path d="M257.36,62.21c-2.38-1.79-4.1-1-11-2.83-1.9-.49-1.73-.54-3-.82-4.3-.95-5.36-.25-7.57-1.45-1-.56-1.49-1.09-2.19-.91a2.81,2.81,0,0,0-1.63,3c.4,2.23,4.35,3.19,6.55,3.73,4.64,1.13,4.7,1.13,8.92,2.19,2.4.61,3.32-.09,8.44,1.42,3.12.92,4,1,4.36.6C260.79,66.36,259.44,63.78,257.36,62.21Z" style="fill:#f7ccba"/><path d="M260.12,75l.49-.07Z" style="fill:#fdc"/><path d="M261,74.85l.36-.07Z" style="fill:#fdc"/><path d="M259.22,75.07l.58-.05Z" style="fill:#fdc"/><path d="M257.22,37.73c5.33,2.6,11.06,7.57,11.35,8.43,3.09,1.52,6.13,5,7.84,7.54.88,3.13,1.7,6.51-1.22,11.73-2.12,3.79-8,5.51-9,6.12-3.63,2.22-4.73,3.12-7,3.52-.3,0-.6,0-.91,0-3.9,0-4.79-1.53-9.58-2.23-3.87-.57-4.25.29-7.89-.59-1.5-.36-5.79-1.4-6.15-3.68a1.78,1.78,0,0,1,.29-1.37c.92-1.1,3.38-.07,6.79.54a32,32,0,0,0,6.39.48l2.54.58a1.6,1.6,0,0,1-.87-.8,1.51,1.51,0,0,1-.08-1.07c.2-.59.69-.59.83-1.1s-.13-.52-.36-1.26a4.11,4.11,0,0,1-.19-2.09c.18-.79.6-1,.53-1.49a1.68,1.68,0,0,0-.83-1.1c-4.9-.48-8.66-2.41-11.51-2.32-.73,0-7.33-1.32-6.94-3.78.22-1.37,2.37-2.08,3-2.3,2.5-.83,4.45-.06,8.65.89,3.82.87,5.73,1.36,6.79,1.24,6.93-.78,11.44-3.45,10.19-6.65-.62-1.59-3-2.36-6.48-5.64-1.35-1.26-2.85-1.52-2.4-2.85s.26-1.94.87-2C254.08,36.16,256.27,37.27,257.22,37.73Z" style="fill:#fdc"/><path d="M267.28,72.89" style="fill:#edbba9"/><path d="M250.34,72.23c.06-.07-.54-.41-.7-1.11-.22-.94.63-1.48.43-2-.26-.68-1.91-.46-4.41-.61-2.82-.17-4.69-.68-4.72-.55s1,.3,2.85.95a23.82,23.82,0,0,1,3.38,1.43C248.94,71.27,250.24,72.35,250.34,72.23Z" style="fill:#f7d1c4"/><path d="M264.33,42.24c.32.51.87.56,1.19,1.07a6.17,6.17,0,0,1,.59,1.59,5.37,5.37,0,0,1-.27,3.39c-.62,1.08-1.81,1.28-3.68,1.81a41,41,0,0,0-9.44,4.09,20.59,20.59,0,0,0-3,2.31,3.13,3.13,0,0,0-.49,2.43,2.74,2.74,0,0,0,.47,1c-4.9-.48-8.66-2.41-11.51-2.32-.73,0-7.33-1.32-6.94-3.78.22-1.37,2.37-2.08,3-2.3,2.5-.83,4.45-.06,8.65.89,3.82.87,5.73,1.36,6.79,1.24,6.93-.78,11.44-3.45,10.19-6.65-.62-1.59-3-2.36-6.48-5.64-1.35-1.26-2.85-1.52-2.4-2.85s.26-1.94.87-2c2.25-.33,5.25,1.26,5.25,1.26A45.13,45.13,0,0,1,264.33,42.24Z" style="fill:#efc0af"/><path d="M115,234.24c2.44-.4,3.08,1.09,8.87,2.43,1.59.37,1.47.89,2.53,1.18,3.54,1,4.05,1.88,6.15,1.85,1,0,1.52-.23,2,.17a2.34,2.34,0,0,1,0,2.84c-1.16,1.49-4.44.68-6.27.23-3.86-.95-3.57-2.05-7.1-2.89-2-.48-2.75-.28-7.11-1.13-2.66-.52-3.38-.79-3.45-1.23C110.52,236.89,112.88,234.6,115,234.24Z" style="fill:#f7d1c4"/><path d="M98.54,224.34c-1.42-5.85,2.65-9.66,5.4-11.52-6.67,1.67-10.2,7.41-4.72,13.53" style="fill:#edbba9"/><path d="M114.71,229.52c2.93-.48,4.12,1,11.07,2.58,1.91.44,1.78.32,3.05.67,4.25,1.15,4.86,2.26,7.38,2.22,1.18,0,1.82-.27,2.37.21a2.81,2.81,0,0,1,.05,3.41c-1.39,1.79-5.33.82-7.53.28-4.64-1.14-4.69-1.18-8.92-2.18-2.41-.57-2.9-1.62-8.14-2.65-3.2-.63-4.05-.95-4.14-1.48C109.74,231.6,112.13,229.94,114.71,229.52Z" style="fill:#f7ccba"/><path d="M106.35,239.56l-.41-.29Z" style="fill:#fdc"/><path d="M105.62,239l-.29-.23Z" style="fill:#fdc"/><path d="M107.11,240.05l-.49-.31Z" style="fill:#fdc"/><path d="M126.16,207.88c-5.93-.16-13.31,1.59-14,2.22-3.44-.08-7.75,1.59-10.44,3.06-2.23,2.37-4.52,5-4.34,11,.13,4.34,4.55,8.59,5.16,9.59,2.2,3.65,2.75,4.95,4.53,6.34.25.15.52.31.79.45,3.46,1.8,5,.86,9.53,2.45,3.7,1.29,3.63,2.22,7.27,3.13,1.5.37,5.78,1.44,7.15-.41a1.78,1.78,0,0,0,.38-1.35c-.3-1.4-3-1.63-6.26-2.67a32,32,0,0,1-5.89-2.53l-2.52-.66a1.6,1.6,0,0,0,1.14-.31,1.51,1.51,0,0,0,.57-.91c.1-.62-.34-.85-.23-1.36s.35-.4.9-1a4.11,4.11,0,0,0,1.13-1.77c.21-.78-.09-1.12.22-1.57a1.68,1.68,0,0,1,1.25-.59c4.56,1.85,8.79,1.87,11.28,3.26.64.36,7.11,2.22,7.91-.14.44-1.31-1.14-2.94-1.63-3.45-1.83-1.89-3.92-2.11-8.09-3.21-3.78-1-5.71-1.44-6.59-2-5.78-3.9-8.55-8.35-6-10.61,1.29-1.12,3.71-.72,8.35-2,1.78-.49,3.23,0,3.45-1.42s.67-1.84.16-2.2C129.66,207.93,127.21,207.91,126.16,207.88Z" style="fill:#fdc"/><path d="M100.13,232.84" style="fill:#edbba9"/><path d="M116.29,241.65c0-.09.67-.12,1.14-.65.63-.73.13-1.6.55-2s1.91.47,4.19,1.5c2.57,1.16,4.47,1.57,4.44,1.69s-1-.21-3-.48a23.82,23.82,0,0,0-3.66-.3C118,241.44,116.32,241.79,116.29,241.65Z" style="fill:#f7d1c4"/><path d="M117.76,208.59c-.52.31-1,.09-1.55.4a6.17,6.17,0,0,0-1.26,1.14,5.37,5.37,0,0,0-1.33,3.13c0,1.24,1,2,2.43,3.31a41,41,0,0,1,6.48,8,20.59,20.59,0,0,1,1.56,3.42,3.13,3.13,0,0,1-.69,2.38,2.74,2.74,0,0,1-.87.64c4.56,1.85,8.79,1.87,11.28,3.26.64.36,7.11,2.22,7.91-.14.44-1.31-1.14-2.94-1.63-3.45-1.83-1.89-3.92-2.11-8.09-3.21-3.78-1-5.71-1.44-6.59-2-5.78-3.9-8.55-8.35-6-10.61,1.29-1.12,3.71-.72,8.35-2,1.78-.49,3.23,0,3.45-1.42s.67-1.84.16-2.2c-1.84-1.33-5.24-1.31-5.24-1.31A45.13,45.13,0,0,0,117.76,208.59Z" style="fill:#efc0af"/><polygon points="122.35 206.13 121.03 216.92 132.72 217.65 135.04 203.77 122.35 206.13" style="fill:#f9fbe7"/><path d="M173.22,114c.15.56,8.95,1.12,13.33-4,5.6-6.54.58-18.36.33-18.33s1.89,6-1,12a19.12,19.12,0,0,1-5.5,6.5C176.51,113.17,173.12,113.63,173.22,114Z" style="fill:#fff9c4"/><polygon points="259.81 35.6 259.52 49.3 247.68 48.09 249.12 33.7 259.81 35.6" style="fill:#fce4ec"/><path d="M240,33.32l15.47-3.41a1.05,1.05,0,0,1,1.28,1l-.07,3.27a1.05,1.05,0,0,1-.82,1L240.35,38.7a1.05,1.05,0,0,1-1.28-1l.07-3.33A1.05,1.05,0,0,1,240,33.32Z" style="fill:#f8bbd0"/><path d="M241.22,34.06l1.78-.33a.61.61,0,0,1,.72.61l-.05,2.44a.61.61,0,0,1-.48.58l-1.79.41a.61.61,0,0,1-.75-.61l.05-2.51A.61.61,0,0,1,241.22,34.06Z" style="fill:#bdbdbd"/><circle cx="242.29" cy="35.75" r="0.67" transform="translate(201.45 277.24) rotate(-88.79)" style="fill:#757575"/><path d="M133.89,334.06c.25,0,.49,0,.75,0a8,8,0,1,0,0-16.08c-.25,0-.5,0-.75,0Z" style="fill:#bf360c"/><path d="M150.59,311.83a4.79,4.79,0,0,0,0,9.26Z" style="fill:#bf360c"/><path d="M174.87,330.29a4.23,4.23,0,0,0-7.65-2.5v5a4.24,4.24,0,0,0,1.66,1.35h3.49A4.23,4.23,0,0,0,174.87,330.29Z" style="fill:#bf360c"/><path d="M202,36.83c.6-.2-.44-9.47-6.09-18.13-5.09-7.82-12.11-12.34-12.54-11.9s5,4.92,10.64,13.94C199.88,30.05,201.5,37,202,36.83Z" style="fill:#6d6e71"/><path d="M170.43,43.76l5.17-.23a61.47,61.47,0,0,0-2-21.89c-1.76-6.32-4-11.35-4.38-11.24s2.68,7.6,3,17.75a55.11,55.11,0,0,1-1,12.25Z" style="fill:#6d6e71"/><path d="M122.58,48l-5.17.14a61.47,61.47,0,0,1,.39-22c1.3-6.43,3.21-11.61,3.55-11.53s-2.12,7.77-1.7,17.92a55.11,55.11,0,0,0,1.89,12.14Z" style="fill:#6d6e71"/><path d="M183.92,310.51a6.49,6.49,0,1,0,0,11.26Z" style="fill:#bf360c"/><path d="M202.66,154.87c-1.43-1.24-4.34-4.17-4.67-8.38a10.09,10.09,0,0,1,1.2-5.83c.14,0-1.13,3.09-.25,6.42a11,11,0,0,0,3.92,5.63Z" style="fill:#4fc3f7"/><path d="M116.34,207.52c2.81-.41,4.56-.14,4.79-.83s-1.7-1.57-3.42-3.79a12.32,12.32,0,0,1-2.25-5c-.68-5.5-1.21-11.34-1.5-17.5A231.16,231.16,0,0,1,115,145c-2,16.19-3.73,25.74-3.56,36.58.14,9.12,0,18.26-.32,27.28A24.05,24.05,0,0,1,116.34,207.52Z" style="fill:#4fc3f7"/><path d="M219.84,184.26l62.86-21.12a2.26,2.26,0,0,1,2.86,1.42l22,65.32-8.49,21L248,268a2.26,2.26,0,0,1-2.86-1.42l-26.71-79.47A2.26,2.26,0,0,1,219.84,184.26Z" style="fill:#e0f7fa"/><path d="M295.7,233.86l11.82-4-8.49,21-4.75-14.15A2.26,2.26,0,0,1,295.7,233.86Z" style="fill:#80deea"/><line x1="255.85" y1="190.77" x2="228.41" y2="199.91" style="fill:none;stroke:#26c6da;stroke-miterlimit:10;stroke-width:2px"/><line x1="275.31" y1="193.71" x2="252.93" y2="201.17" style="fill:none;stroke:#80deea;stroke-miterlimit:10;stroke-width:2px"/><line x1="263.64" y1="213.4" x2="241.26" y2="220.86" style="fill:none;stroke:#80deea;stroke-miterlimit:10;stroke-width:2px"/><line x1="283.58" y1="196.19" x2="256.13" y2="205.34" style="fill:none;stroke:#80deea;stroke-miterlimit:10;stroke-width:2px"/><line x1="281.88" y1="212.66" x2="254.44" y2="221.8" style="fill:none;stroke:#80deea;stroke-miterlimit:10;stroke-width:2px"/><line x1="250.18" y1="202.08" x2="236.53" y2="206.63" style="fill:none;stroke:#80deea;stroke-miterlimit:10;stroke-width:2px"/><line x1="254.5" y1="205.88" x2="240.85" y2="210.43" style="fill:none;stroke:#80deea;stroke-miterlimit:10;stroke-width:2px"/><line x1="238.1" y1="211.34" x2="233.4" y2="212.91" style="fill:none;stroke:#80deea;stroke-miterlimit:10;stroke-width:2px"/><line x1="286.71" y1="205.72" x2="282.02" y2="207.28" style="fill:none;stroke:#80deea;stroke-miterlimit:10;stroke-width:2px"/><line x1="290.03" y1="194.04" x2="285.34" y2="195.61" style="fill:none;stroke:#26c6da;stroke-miterlimit:10;stroke-width:2px"/><line x1="293.2" y1="203.56" x2="288.51" y2="205.12" style="fill:none;stroke:#80deea;stroke-miterlimit:10;stroke-width:2px"/><line x1="288.46" y1="189.33" x2="277.28" y2="193.05" style="fill:none;stroke:#80deea;stroke-miterlimit:10;stroke-width:2px"/><line x1="294.8" y1="208.36" x2="283.62" y2="212.08" style="fill:none;stroke:#80deea;stroke-miterlimit:10;stroke-width:2px"/><line x1="279.85" y1="208.01" x2="266.2" y2="212.55" style="fill:none;stroke:#26c6da;stroke-miterlimit:10;stroke-width:2px"/><line x1="260.73" y1="226.01" x2="256.04" y2="227.58" style="fill:none;stroke:#80deea;stroke-miterlimit:10;stroke-width:2px"/><line x1="267.22" y1="223.85" x2="262.52" y2="225.42" style="fill:none;stroke:#26c6da;stroke-miterlimit:10;stroke-width:2px"/><line x1="253.87" y1="228.3" x2="240.21" y2="232.85" style="fill:none;stroke:#80deea;stroke-miterlimit:10;stroke-width:2px"/><line x1="248.63" y1="213.07" x2="234.97" y2="217.62" style="fill:none;stroke:#80deea;stroke-miterlimit:10;stroke-width:2px"/><line x1="251.82" y1="222.67" x2="238.17" y2="227.22" style="fill:none;stroke:#80deea;stroke-miterlimit:10;stroke-width:2px"/><path d="M312.66,165a4.24,4.24,0,0,1,3.76,1.68l-17.35,53a3.24,3.24,0,0,1-3-.08,3,3,0,0,1-1.26-1.67l16.95-52.47a1.75,1.75,0,0,1,.85-.44Z" style="fill:#757575"/><polygon points="294.28 219.54 294.45 226.27 298.61 221.17 294.28 219.54" style="fill:#616161"/><path d="M294.3,218l-.84,2.21a4.76,4.76,0,0,0,1.7,1.42,5.27,5.27,0,0,0,3.38.4l.88-2.49a7.22,7.22,0,0,0-2.21-1.27,7.5,7.5,0,0,0-2.42-.43Z" style="fill:#bdbdbd"/><path d="M311,166.33l-.94,2.48A5.33,5.33,0,0,0,312,170.4a5.91,5.91,0,0,0,3.79.44l1-2.79a8.09,8.09,0,0,0-2.48-1.42,8.4,8.4,0,0,0-2.71-.49Z" style="fill:#bdbdbd"/><polygon points="316.14 168.56 315.5 170.43 316.42 170.98 313.44 180.53 312.44 180.53 313.15 181.53 313.72 181.53 317.7 169.65 316.14 168.56" style="fill:#bdbdbd"/></g></g></svg>