<svg xmlns="http://www.w3.org/2000/svg" viewBox="0 0 423.09 414.23"><title>frontend</title><g id="0a534199-147b-480e-ba24-e92662b3acab" data-name="Layer 2"><g id="04816aca-5bf2-4864-8905-0d005b31682e" data-name="Layer 1"><path d="M287.48,280.11h87.94a3,3,0,0,0,3-3v-91.4l-19.54-22.79H287.48a3,3,0,0,0-3,3V277.11A3,3,0,0,0,287.48,280.11Z" style="fill:#ffebee"/><path d="M284.48,277.11a3,3,0,0,0,3,3h87.94a3,3,0,0,0,3-3V262.38H284.48Z" style="fill:#da544f"/><rect x="291.64" y="179.23" width="52.08" height="38.88" style="fill:#ef9a9a;opacity:0.2"/><rect x="291.08" y="225.02" width="52.81" height="4.44" style="fill:#ef9a9a;opacity:0.3"/><polygon points="368.64 179.23 350.63 179.23 350.63 228.76 371.37 228.76 371.37 182.41 368.64 179.23" style="fill:#ef9a9a;opacity:0.25"/><rect x="291.08" y="236.37" width="52.81" height="14.83" style="fill:#ef9a9a;opacity:0.5"/><rect x="350.9" y="236.37" width="21.03" height="15.27" style="fill:#ef9a9a;opacity:0.2"/><path d="M361.89,185.71h16.54l-19.54-22.79v19.79A3,3,0,0,0,361.89,185.71Z" style="fill:#ef9a9a"/><path d="M303.73,270.19c0-.25-.42-.38-1.26-.39.18-1.69.26-2.57.26-2.62,0-.3-.31-.48-.64-.48a2.56,2.56,0,0,0-1,.27,1.82,1.82,0,0,0-.79.54,1,1,0,0,0-.14.37c0,.17-.06.28-.07.59s0,.42,0,.87l0,.52c-1.19.05-2.15.14-2.89.25.19-1.95.29-2.91.29-2.92a.56.56,0,0,0-.62-.49,2.56,2.56,0,0,0-1,.27,1.74,1.74,0,0,0-.79.55,1.48,1.48,0,0,0-.18.74l0,.58,0,.84,0,1a2.29,2.29,0,0,0-.32.16,1.72,1.72,0,0,0-.39.59,1.75,1.75,0,0,0-.17.65c0,.14,0,.22.11.22a2.9,2.9,0,0,0,.68-.11q-.06.85-.21,2c-.08.73-.13,1.2-.13,1.39,0,.42.14.64.43.64,1.5,0,2.11-.46,2.11-.88q0-1.76.12-3.16l.06-.64q1.19-.28,3-.59l-.06.9c0,.63-.1,1.33-.19,2.1s-.14,1.25-.14,1.44c0,.48.11.67.43.67,1.49,0,2.11-.46,2.11-.89,0-1.13,0-2.15.13-3.08l.14-1.44c.93-.12,1.35-.21,1.35-.39Z" style="fill:#fff"/><path d="M309.69,273.33c-.37,0-.39.63-.85.63q-.46,0-.46-1.47a6.94,6.94,0,0,1,.17-1.44c.11-.52.17-.82.17-.87a.47.47,0,0,0-.5-.43,1.7,1.7,0,0,0-1,.4c-.17-.27-.53-.4-1.07-.4a2.77,2.77,0,0,0-1.72.66,3,3,0,0,0-.93,2.35,2.29,2.29,0,0,0,.79,1.88,1.73,1.73,0,0,0,1.14.38,2.17,2.17,0,0,0,1.5-.53,1.62,1.62,0,0,0,1.35.53,1.64,1.64,0,0,0,1.29-.49,1.41,1.41,0,0,0,.46-.86.33.33,0,0,0-.33-.35Zm-3.83.64c-.18,0-.36-.07-.53-.58a3.85,3.85,0,0,1-.11-1,2.65,2.65,0,0,1,.22-1.11c.15-.34.36-.51.64-.51s.28.07.28.2-.12.45-.12.54.12.29.37.29q-.08,1-.08,1.4a.64.64,0,0,0,0,.2.75.75,0,0,1-.69.57Z" style="fill:#fff"/><path d="M315.46,273.33c-.37,0-.39.63-.85.63s-.5-.32-.5-.93a8.14,8.14,0,0,1,.11-1.08,8.17,8.17,0,0,0,.11-1c0-.77-.36-1.15-1.08-1.15a1.91,1.91,0,0,0-1.1.41,2.8,2.8,0,0,0-.82.87,5.37,5.37,0,0,1,.15-.54,1.6,1.6,0,0,0,.13-.45q0-.39-.46-.39a2.26,2.26,0,0,0-.94.26,1,1,0,0,0-.62.6,11.34,11.34,0,0,0-.14,2.23l-.08,1c0,.4-.07.67-.07.82,0,.34.11.51.32.51,1.17,0,1.56-.37,1.56-.76a6.7,6.7,0,0,1,.31-2.19c.21-.6.46-.9.74-.9s.32.16.32.48a6.87,6.87,0,0,1-.11.88,6.19,6.19,0,0,0-.1.91A1.51,1.51,0,0,0,314,275a1.64,1.64,0,0,0,1.29-.49,1.37,1.37,0,0,0,.46-.84.34.34,0,0,0-.33-.37Z" style="fill:#fff"/><path d="M321.24,273.33c-.37,0-.39.63-.85.63q-.46,0-.46-1.47a26.09,26.09,0,0,1,.4-3c.26-1.6.4-2.42.4-2.48a.46.46,0,0,0-.5-.43,1.59,1.59,0,0,0-.75.24,1.49,1.49,0,0,0-.58.5,21.62,21.62,0,0,0-.46,2.6,1.85,1.85,0,0,0-.75-.13,2.77,2.77,0,0,0-1.72.66,3,3,0,0,0-.93,2.35,2.29,2.29,0,0,0,.79,1.88A1.73,1.73,0,0,0,317,275a2.17,2.17,0,0,0,1.5-.53,1.62,1.62,0,0,0,1.35.53,1.64,1.64,0,0,0,1.29-.49,1.41,1.41,0,0,0,.46-.86.33.33,0,0,0-.33-.35Zm-3.83.64c-.18,0-.36-.07-.53-.58a3.85,3.85,0,0,1-.11-1,2.65,2.65,0,0,1,.22-1.11c.15-.34.36-.51.64-.51s.28.07.28.2-.12.45-.12.54.14.29.42.29q-.13,1.17-.13,1.4a.64.64,0,0,0,0,.2.75.75,0,0,1-.69.57Z" style="fill:#fff"/><path d="M329.83,273.33c-.13,0-.26.11-.4.32a.54.54,0,0,1-.44.32c-.33,0-.5-.32-.5-.93a8.14,8.14,0,0,1,.11-1.08,8.17,8.17,0,0,0,.11-1c0-.77-.36-1.15-1.08-1.15a2.54,2.54,0,0,0-1.79,1.09c-.08-.73-.42-1.09-1-1.09a1.91,1.91,0,0,0-1.1.41,2.8,2.8,0,0,0-.82.87,3.38,3.38,0,0,1,.17-.53,1.74,1.74,0,0,0,.13-.46c0-.26-.15-.39-.47-.39a2.2,2.2,0,0,0-.93.26,1.06,1.06,0,0,0-.64.6,12.71,12.71,0,0,0-.13,2.23l-.08,1c0,.4-.07.67-.07.82,0,.34.11.51.32.51,1.15,0,1.54-.37,1.54-.76a6.7,6.7,0,0,1,.31-2.19c.21-.6.46-.9.75-.9s.4.21.4.61a7.22,7.22,0,0,1-.19,1.36,6.81,6.81,0,0,0-.18,1.32c0,.38.1.57.31.57,1.17,0,1.56-.37,1.56-.76a8.92,8.92,0,0,1,.22-2.22c.15-.58.37-.87.65-.87s.32.16.32.48a6.9,6.9,0,0,1-.11.88,6.76,6.76,0,0,0-.11.91c0,1,.62,1.58,1.74,1.58a1.64,1.64,0,0,0,1.29-.49,1.37,1.37,0,0,0,.46-.84.34.34,0,0,0-.33-.37Z" style="fill:#fff"/><path d="M335.61,273.33c-.37,0-.39.63-.85.63q-.46,0-.46-1.47a6.94,6.94,0,0,1,.17-1.44c.11-.52.17-.82.17-.87a.47.47,0,0,0-.5-.43,1.7,1.7,0,0,0-1,.4c-.17-.27-.53-.4-1.07-.4a2.77,2.77,0,0,0-1.72.66,3,3,0,0,0-.93,2.35,2.29,2.29,0,0,0,.79,1.88,1.73,1.73,0,0,0,1.14.38,2.17,2.17,0,0,0,1.5-.53,1.62,1.62,0,0,0,1.35.53,1.64,1.64,0,0,0,1.29-.49,1.41,1.41,0,0,0,.46-.86.33.33,0,0,0-.33-.35Zm-3.83.64c-.18,0-.36-.07-.53-.58a3.85,3.85,0,0,1-.11-1,2.65,2.65,0,0,1,.22-1.11c.15-.34.36-.51.64-.51s.28.07.28.2-.13.45-.13.54.13.29.37.29q-.08,1-.08,1.4a.64.64,0,0,0,0,.2.75.75,0,0,1-.69.57Z" style="fill:#fff"/><path d="M341.39,273.33c-.37,0-.39.63-.85.63q-.46,0-.46-1.47a26.06,26.06,0,0,1,.4-3c.26-1.6.4-2.42.4-2.48a.46.46,0,0,0-.5-.43,1.59,1.59,0,0,0-.75.24,1.49,1.49,0,0,0-.58.5,21.57,21.57,0,0,0-.46,2.6,1.85,1.85,0,0,0-.75-.13,2.77,2.77,0,0,0-1.72.66,3,3,0,0,0-.93,2.35,2.29,2.29,0,0,0,.79,1.88,1.73,1.73,0,0,0,1.14.38,2.17,2.17,0,0,0,1.5-.53A1.62,1.62,0,0,0,340,275a1.64,1.64,0,0,0,1.29-.49,1.41,1.41,0,0,0,.46-.86.33.33,0,0,0-.33-.35Zm-3.83.64c-.18,0-.36-.07-.53-.58a3.84,3.84,0,0,1-.11-1,2.65,2.65,0,0,1,.22-1.11c.15-.34.36-.51.64-.51s.28.07.28.2-.12.45-.12.54.14.29.42.29q-.13,1.17-.13,1.4a.65.65,0,0,0,0,.2.75.75,0,0,1-.69.57Z" style="fill:#fff"/><path d="M346.14,273.68c0-.33-.32-.46-.58-.23a1.69,1.69,0,0,1-1.31.6,1.3,1.3,0,0,1-1.31-.86,4.65,4.65,0,0,0,1.62-.77,1.62,1.62,0,0,0,.74-1.32c0-.75-.6-1.35-1.61-1.35a2.59,2.59,0,0,0-1.93.83,2.75,2.75,0,0,0-.79,2,2.28,2.28,0,0,0,.75,1.79,2.82,2.82,0,0,0,1.92.66,3.51,3.51,0,0,0,1.74-.42c.51-.29.76-.6.76-.92Zm-2.64-2.9a.5.5,0,0,1,.46.55c0,.45-.39.84-1.17,1.15a.79.79,0,0,1,0-.21c0-.83.28-1.5.72-1.5Z" style="fill:#fff"/><path d="M351.76,273.33c-.37,0-.39.63-.85.63s-.5-.32-.5-.93a8.17,8.17,0,0,1,.11-1.08,8.14,8.14,0,0,0,.11-1c0-.77-.36-1.15-1.08-1.15a1.91,1.91,0,0,0-1.1.41,2.8,2.8,0,0,0-.82.87,5.38,5.38,0,0,1,.15-.54,1.59,1.59,0,0,0,.12-.45q0-.39-.46-.39a2.26,2.26,0,0,0-.94.26,1,1,0,0,0-.62.6,11.38,11.38,0,0,0-.14,2.23l-.08,1c0,.4-.07.67-.07.82,0,.34.11.51.32.51,1.17,0,1.56-.37,1.56-.76a6.7,6.7,0,0,1,.31-2.19c.21-.6.46-.9.74-.9s.32.16.32.48a6.9,6.9,0,0,1-.11.88,6.16,6.16,0,0,0-.1.91,1.51,1.51,0,0,0,1.72,1.58,1.64,1.64,0,0,0,1.29-.49,1.37,1.37,0,0,0,.46-.84.34.34,0,0,0-.33-.37Z" style="fill:#fff"/><path d="M356.51,273.68c0-.33-.32-.46-.58-.23a1.69,1.69,0,0,1-1.31.6,1.3,1.3,0,0,1-1.31-.86,4.64,4.64,0,0,0,1.62-.77,1.62,1.62,0,0,0,.74-1.32c0-.75-.6-1.35-1.61-1.35a2.59,2.59,0,0,0-1.93.83,2.75,2.75,0,0,0-.79,2,2.28,2.28,0,0,0,.75,1.79A2.82,2.82,0,0,0,354,275a3.52,3.52,0,0,0,1.74-.42c.51-.29.76-.6.76-.92Zm-2.64-2.9a.5.5,0,0,1,.46.55c0,.45-.39.84-1.17,1.15a.79.79,0,0,1,0-.21c0-.83.28-1.5.72-1.5Z" style="fill:#fff"/><path d="M360.74,273.59c0-1-1.08-1.5-1.9-1.79-.57-.22-1-.46-1-.75s.25-.4.62-.4.61.24.61.51c0,.09,0,.29,0,.35s.14.25.42.25c.61,0,1.17-.37,1.17-.89s-.82-1.11-2-1.11a3.32,3.32,0,0,0-1.67.39,1.23,1.23,0,0,0-.69,1.11c0,1.55,2.79,1.43,2.79,2.51,0,.32-.21.47-.62.47a.87.87,0,0,1-1-.89c0-.1,0-.24,0-.29,0-.23-.14-.35-.43-.35a1.57,1.57,0,0,0-.79.23.76.76,0,0,0-.37.7,1.27,1.27,0,0,0,.67,1.05,3.38,3.38,0,0,0,1.85.43c1.39,0,2.37-.53,2.37-1.52Z" style="fill:#fff"/><path d="M362.7,269.75a1.59,1.59,0,0,0-.75.24,1.43,1.43,0,0,0-.57.51,3.44,3.44,0,0,0-.25,1.12,13.32,13.32,0,0,0-.1,1.6,1.57,1.57,0,0,0,1.75,1.8,1.76,1.76,0,0,0,1-.28,1.62,1.62,0,0,0,.58-.57,1.2,1.2,0,0,0,.15-.48.35.35,0,0,0-.33-.37c-.13,0-.26.11-.4.32s-.28.32-.43.32c-.33,0-.47-.38-.47-1.47a7.94,7.94,0,0,1,.15-1.44c.11-.52.17-.82.17-.87a.46.46,0,0,0-.5-.43Zm1.14-1.85c0-.4-.35-.59-.83-.59a1.61,1.61,0,0,0-.87.27.79.79,0,0,0-.43.72c0,.64.26,1,.81,1a1.37,1.37,0,0,0,.9-.38,1.26,1.26,0,0,0,.43-1Z" style="fill:#fff"/><path d="M370,273.33c-.38,0-.39.63-.85.63q-.46,0-.46-1.47a6.93,6.93,0,0,1,.17-1.44c.11-.52.17-.82.17-.87a.47.47,0,0,0-.5-.43,1.7,1.7,0,0,0-1,.4c-.17-.27-.53-.4-1.07-.4a2.77,2.77,0,0,0-1.72.66,3,3,0,0,0-.93,2.35,2.29,2.29,0,0,0,.79,1.88,1.73,1.73,0,0,0,1.14.38,2.17,2.17,0,0,0,1.5-.53,1.62,1.62,0,0,0,1.35.53,1.64,1.64,0,0,0,1.29-.49,1.41,1.41,0,0,0,.46-.86.33.33,0,0,0-.33-.35Zm-3.83.64c-.18,0-.36-.07-.53-.58a3.84,3.84,0,0,1-.11-1,2.65,2.65,0,0,1,.22-1.11c.15-.34.36-.51.64-.51s.28.07.28.2-.13.45-.13.54.13.29.38.29q-.08,1-.08,1.4a.65.65,0,0,0,0,.2.75.75,0,0,1-.69.57Z" style="fill:#fff"/><path d="M62,151.7H149.6a3,3,0,0,0,3-3v-91L133.12,35H62a3,3,0,0,0-3,3V148.71A3,3,0,0,0,62,151.7Z" style="fill:#fffef3"/><path d="M136.11,57.66h16.47L133.12,35V54.68A3,3,0,0,0,136.11,57.66Z" style="fill:#fff59d"/><path d="M59,109.36v39.36a3,3,0,0,0,3,3H149.6a3,3,0,0,0,3-3V109.36Z" style="fill:#ffd600"/><text transform="translate(65.52 136.73)" style="font-size:16.761037826538086px;fill:#fff;font-family:Roboto-Regular, Roboto">J<tspan x="9.19" y="0" style="letter-spacing:-0.007312112472889389em">av</tspan><tspan x="26.59" y="0">aScript</tspan></text><text transform="translate(86.01 90.54)" style="font-size:41.90259552001953px;fill:#ffd600;font-family:SegoeUIHistoric, Segoe UI Historic">JS</text><path d="M36.51,310.72h87.33a3,3,0,0,0,3-3V217l-19.4-22.63H36.51a3,3,0,0,0-3,3V307.75A3,3,0,0,0,36.51,310.72Z" style="fill:#e3f2fd"/><path d="M110.39,217h16.42l-19.4-22.63V214A3,3,0,0,0,110.39,217Z" style="fill:#bbdefb"/><path d="M33.53,268.51v39.23a3,3,0,0,0,3,3h87.33a3,3,0,0,0,3-3V268.51Z" style="fill:#00b0ff"/><text transform="translate(52.16 301)" style="font-size:29.934337615966797px;fill:#fff;font-family:Roboto-Regular, Roboto">CSS</text><text transform="translate(62.07 247.47)" style="font-size:41.76884460449219px;fill:#00b0ff;font-family:SegoeUIHistoric, Segoe UI Historic">{ }</text><path d="M274.46,118.6h89a3,3,0,0,0,3-3V23.07L346.72,0H274.46a3,3,0,0,0-3,3V115.57A3,3,0,0,0,274.46,118.6Z" style="fill:#fff3e0"/><path d="M349.76,23.07H366.5L346.72,0V20A3,3,0,0,0,349.76,23.07Z" style="fill:#ffe0b2"/><path d="M271.42,75.58v40a3,3,0,0,0,3,3h89a3,3,0,0,0,3-3v-40Z" style="fill:#f57c00"/><text transform="translate(278.04 108.69)" style="font-size:30.508670806884766px;fill:#fff;font-family:Roboto-Regular, Roboto"><tspan style="letter-spacing:-0.014164134156656974em">H</tspan><tspan x="21.03" y="0">TML</tspan></text><text transform="translate(283.96 57.17)" style="font-size:42.57023620605469px;fill:#f57c00;font-family:SegoeUIHistoric, Segoe UI Historic">&lt; &gt;</text><path d="M238.88,176.79a74,74,0,0,0-21-4.29V148.4h-16v24.79a95.12,95.12,0,0,0-15.5,3.6,90.29,90.29,0,0,0-31.5,17.5v121.5H258.24l6.64-123A76.27,76.27,0,0,0,238.88,176.79Z" style="fill:#edbba9"/><path d="M238.88,176.32a73.51,73.51,0,0,0-13.53-3.48,3.94,3.94,0,0,1,.47,1.81c0,4-6.48,7.25-14.47,7.25s-14.47-3.25-14.47-7.25a3.77,3.77,0,0,1,.19-1.11,100.08,100.08,0,0,0-10.69,2.78,90.29,90.29,0,0,0-31.5,17.5v121.5H258.24l6.64-123A76.28,76.28,0,0,0,238.88,176.32Z" style="fill:#da544f"/><path d="M235.19,221.54l-9.51-5.84L216,209.77a11.05,11.05,0,0,0-11.18-.38l-10,5.25L185,219.81a11.06,11.06,0,0,0-6.06,9.64l-.38,10.94-.38,10.94a11.06,11.06,0,0,0,5.38,10l9.51,5.84,9.64,5.92a11.05,11.05,0,0,0,11.18.38l10-5.25,9.89-5.18a11.06,11.06,0,0,0,6.06-9.64l.38-10.94.38-10.94A11.06,11.06,0,0,0,235.19,221.54Zm-15.44,3.66,3.67.13a1.52,1.52,0,0,1,1.46,1.57l-6.69-.23A1.52,1.52,0,0,1,219.75,225.19Zm-21.53-.35c1.92-.77,5.12.06,8.19,2.55s3.08,4.41,3.08,4.41-2.36-2-3.91-2.25-2.14-.35-3.13.65a4,4,0,0,0-.93,2.64l-4.1-.18a6.39,6.39,0,0,0-1.57-3c-1.09-.87-1.49-.73-1.49-.73l-.07-3.67A8.44,8.44,0,0,0,198.22,224.85Zm-6.71,4.2-.06-3.59,2.17,0,.06,3.59Zm28.89,30.55-1-2.07,2.21.08Zm1.76-3-.17.29-3-.1-.15-.3-1.55-3.1,3.31.11,3.31.11Zm4.07-11.71a17.57,17.57,0,0,1-2,.11l-.27,7.93-1.2,0,.27-7.86h-.72l-.27,7.82-2.91-.1.26-7.68h-.72l-.26,7.65-1.15,0,.26-7.6c-5.85.05-13,.06-15.64.06l.27,12.32s-.52.74-2.81.66-2.71-1.13-2.71-1.13l.41-12.44a6,6,0,0,1-3.61-3.36c-.38-1.57.78-2.88,1.72-2.33a3.08,3.08,0,0,0,2.07.27l.19-5.92,4.22.3.11,4.85,16,1.44.43-12.45,1.15,0-.43,12.51.72.06.43-12.55,2.91.1-.44,12.72.72.06.44-12.76,1.2,0-.44,12.82,1.85.17s1.2-.08,1.66,1.49A2.2,2.2,0,0,1,226.23,244.9Z" style="fill:#fff"/><path d="M198.9,240c-2.87,1.45-3.83.15-3.83.15.24,1,.51,1.41,2.52,3s3.51,1.2,4.52-.2S201.77,238.59,198.9,240Z" style="fill:#fff"/><path d="M225.85,241.9l-16.93-1.35a1.61,1.61,0,0,1-.09,2.75l16.88.47a.76.76,0,0,0,.57-.23,1,1,0,0,0,.24-1.17A.78.78,0,0,0,225.85,241.9Z" style="fill:#fff"/><path d="M207.37,240.22l-4.31-.39a2.57,2.57,0,0,1-.16,3.73l-.06,0,4.41-.09a2,2,0,0,0,.11-3.31Z" style="fill:#fff"/><path d="M160.89,315.32h97.36l6.64-123a76.71,76.71,0,0,0-22.3-14.54,315.21,315.21,0,0,1-31,72.45A315.24,315.24,0,0,1,160.89,315.32Z" style="fill:#231f20;opacity:0.18"/><polygon points="136.32 254.33 119.3 322.64 136.94 325.37 151.96 257.15 136.32 254.33" style="fill:#fdc"/><polygon points="285.96 251.84 299.85 320.86 282.1 322.78 270.21 253.94 285.96 251.84" style="fill:#fdc"/><path d="M261.28,190.65c3.2.47,8.54,1.78,12.25,6.13a18.34,18.34,0,0,1,3.75,8.25c1.4,5.79,3.44,13.55,6.63,24.25L291,254.9l-32,7Z" style="fill:#da544f"/><path d="M261.28,190.65c3.2.47,8.54,1.78,12.25,6.13a18.34,18.34,0,0,1,3.75,8.25c1.4,5.79,3.44,13.55,6.63,24.25L291,254.9l-32,7Z" style="fill:#231f20;opacity:0.18"/><path d="M150.88,107.56c-2.34,8.9-3.57,20.31,2,30,5.1,8.88,11.71,9,20,19.33,1,1.21,11.12,14.18,12,30,1.21,21.63-16.18,25.87-15.33,41.33,1.25,22.73,39.54,26.38,68,63.33a124,124,0,0,1,20.67,41.33" style="fill:none;stroke:#58595b;stroke-miterlimit:10;stroke-width:2px"/><path d="M262.53,88.77a8.14,8.14,0,0,0-3.14.63c-4.08-27.86-25-49.07-50.27-49.07-26.52,0-48.31,23.42-50.76,53.36a8.17,8.17,0,1,0,.41,15c3.89,28.12,24.95,49.6,50.35,49.6,26.61,0,48.45-23.58,50.78-53.66a8.16,8.16,0,1,0,2.63-15.89Z" style="fill:#fdc"/><path d="M248.88,93.8c-1.86-.1,2.57,28.65-9,42.6-11.74,14.15-30.47,14.42-30,16.5.41,1.86,15.54,3,27.5-5.5a36.64,36.64,0,0,0,11.5-14C255.41,119.58,250.57,93.89,248.88,93.8Z" style="fill:#efc3b6;opacity:0.42"/><rect x="140.4" y="92.11" width="4.85" height="22.31" rx="2.36" ry="2.36" style="fill:#9e9d24"/><rect x="272.6" y="88.4" width="4.85" height="22.31" rx="2.36" ry="2.36" style="fill:#827717"/><path d="M270.36,83.16c-3.61-32.77-32.44-57.49-64.64-55.73-31.24,1.71-56.88,27.85-58.15,60a6.81,6.81,0,0,0-4.26,6.29v18.76a6.79,6.79,0,0,0,13.58,0V93.73a6.81,6.81,0,0,0-4.42-6.35c1.81-29.79,26.17-53.55,55.19-54.45S262.06,54.17,266,83.21a6.81,6.81,0,0,0-4.53,6.39v18.76a6.79,6.79,0,1,0,13.58,0V89.61A6.81,6.81,0,0,0,270.36,83.16Z" style="fill:#d4e157"/><path d="M163.83,80.9c1.76-1.81,2.09-1.28,8.65-5.3,8.06-4.94,8.91-6.56,14-9.13a47.89,47.89,0,0,1,12-4.15,69.39,69.39,0,0,1,17-.18,68.45,68.45,0,0,1,20.67,5.67c10.92,5,17,7.28,21.12,12,1.08-5.63,4.53-16.46-3.12-33.66a65.16,65.16,0,0,0-28.67-30.67c6.35,8.62,7.06,18.28,2.67,23.33a9.06,9.06,0,0,0-3-9.33,19.83,19.83,0,0,1-14.33,10.87,47.62,47.62,0,0,0-20,4,48.33,48.33,0,0,0-16.16,11.64,56.67,56.67,0,0,0-12,19.83,59.66,59.66,0,0,0-4.18,22.38S157.35,87.55,163.83,80.9Z" style="fill:#414042"/><circle cx="181.46" cy="123.46" r="11.51" style="fill:#ff958d"/><circle cx="240.83" cy="119.46" r="10.98" style="fill:#ff958d"/><path d="M181.79,124.8a33,33,0,0,0,59.33-5.67" style="fill:none;stroke:#6d5145;stroke-miterlimit:10"/><circle cx="188.12" cy="99.46" r="6.33" style="fill:#414042"/><circle cx="229.73" cy="98.13" r="6.33" style="fill:#414042"/><path d="M194.46,87.8c-.26-.32-3.92-4.63-9.67-4a11,11,0,0,0-9,7" style="fill:none;stroke:#414042;stroke-miterlimit:10"/><path d="M221.79,86.13c.22-.29,3.78-4.84,9.67-4.33a11,11,0,0,1,9,6.33" style="fill:none;stroke:#414042;stroke-miterlimit:10"/><path d="M254.46,67.8a52.29,52.29,0,0,0-3.67-23c-6.5-15.88-19.43-23.9-19.67-23.67s10.86,7.86,15,22a41.32,41.32,0,0,1,1.33,16l-.33,5.33Z" style="fill:#6d6e71"/><path d="M220.12,42.13c.6-1.28,2.13-.9,3.5-2.17,2.1-1.95,1.37-5.5,1.67-5.5s1.14,3,0,6.17c-.92,2.53-3.12,5.06-4.33,4.67C220.1,45,219.59,43.27,220.12,42.13Z" style="fill:#6d6e71"/><path d="M257.67,80.62a29.56,29.56,0,0,0-7.81-5.49V78a14.75,14.75,0,0,1,8.21,4.31Z" style="fill:#58595b"/><path d="M258.19,83.19a19.74,19.74,0,0,0-6.37-4.36l.38,2.25a16,16,0,0,1,6.2,3.6Z" style="fill:#58595b"/><path d="M258.91,86.1a19.74,19.74,0,0,0-6.37-4.36l.38,2.25a16,16,0,0,1,6.2,3.6Z" style="fill:#58595b"/><path d="M251.82,81.76" style="fill:#6d6e71"/><path d="M160.21,100.21a26.12,26.12,0,0,1,3.62-16.66c4.94-7.77,12.86-10.13,18-11.68,6-1.81,11.86-2,12-1.32s-7.19,1.69-15.33,7c-3.3,2.15-8.5,5.53-11.67,11.33-5.75,10.52-1.24,22.4-2.67,22.67C163.23,111.73,160.77,106.13,160.21,100.21Z" style="fill:#efc3b6;opacity:0.45"/><path d="M158.63,192.65c-3.2.47-8.54,1.78-12.25,6.13a18.34,18.34,0,0,0-3.75,8.25c-1.4,5.79-3.44,13.55-6.62,24.25l-7.12,25.62,32,7Z" style="fill:#da544f"/><path d="M144.91,260.4,155,262.61a77,77,0,0,0,1.69-7.55c2.66-15.57-.09-28.53-.83-28.5s1.4,10.11-3.33,21.67A43.06,43.06,0,0,1,144.91,260.4Z" style="fill:#231f20;opacity:0.18"/><polygon points="70.11 310.99 351.77 310.65 357.21 317.41 339.68 318.39 340.29 321.68 370.51 319.88 377.16 328.32 358.42 328.32 369.9 353.43 348.15 353.43 348.75 358.62 409.8 358.62 423.09 380.38 380.79 380.38 381.99 386.73 395.89 386.73 403.75 408.79 33.24 414.23 39.29 397.31 0 397.31 15.11 368.9 41.1 368.9 43.52 362.44 7.86 362.44 21.16 338.47 55.61 338.47 57.71 333.24 77.37 332.63 79.78 326.59 50.17 326.59 57.71 313.29 70.11 313.89 70.11 310.99" style="fill:#ffecb3"/><path d="M40.65,389l2.13,8.37a3.87,3.87,0,0,0,3.77,2.89H337.87a3.88,3.88,0,0,0,3.71-2.68l2.66-8.37a3.83,3.83,0,0,0-3.71-5H44.41A3.83,3.83,0,0,0,40.65,389Z" style="fill:#bdbdbd"/><path d="M322.33,334.91a7.13,7.13,0,0,0-6.51-4.16l-123.26.54L69.3,330.75a7.13,7.13,0,0,0-6.51,4.16L40.68,383.12a7.13,7.13,0,0,0,6.48,10.1H338a7.13,7.13,0,0,0,6.48-10.1Z" style="fill:#e0e0e0"/><path d="M319.29,386.22h18a.92.92,0,0,0,.86-1.28L336,380a.93.93,0,0,0-.86-.55H317.89a.92.92,0,0,0-.9,1.16l1.4,4.91A.93.93,0,0,0,319.29,386.22Z" style="fill:#bdbdbd"/><path d="M319.74,385.6h17.49a.91.91,0,0,0,.83-1.27l-2.12-4.86a.91.91,0,0,0-.83-.54H318.39a.91.91,0,0,0-.87,1.15l1.36,4.86A.91.91,0,0,0,319.74,385.6Z" style="fill:#fff"/><path d="M314.22,373.72h18a1,1,0,0,0,.86-1.47l-2.19-5.62a.94.94,0,0,0-.86-.63H312.82a1,1,0,0,0-.9,1.33l1.4,5.62A1,1,0,0,0,314.22,373.72Z" style="fill:#bdbdbd"/><path d="M314.67,373h17.49a1,1,0,0,0,.83-1.45L330.87,366a.91.91,0,0,0-.83-.62H313.32a1,1,0,0,0-.87,1.32l1.36,5.56A.93.93,0,0,0,314.67,373Z" style="fill:#fff"/><path d="M66.77,386.18H49.28a.91.91,0,0,1-.83-1.27l2.12-4.86a.91.91,0,0,1,.83-.54H68.13a.91.91,0,0,1,.87,1.15l-1.36,4.86A.91.91,0,0,1,66.77,386.18Z" style="fill:#bdbdbd"/><path d="M66.27,385.6H48.78a.91.91,0,0,1-.83-1.27l2.12-4.86a.91.91,0,0,1,.83-.54H67.63a.91.91,0,0,1,.87,1.15l-1.36,4.86A.91.91,0,0,1,66.27,385.6Z" style="fill:#fff"/><path d="M91.9,373.72H53.82a1.17,1.17,0,0,1-1.08-1.64l2.43-5.51a1.18,1.18,0,0,1,1.08-.7H93a1.17,1.17,0,0,1,1.16,1.39l-1.07,5.51A1.18,1.18,0,0,1,91.9,373.72Z" style="fill:#bdbdbd"/><path d="M91.61,373.23H53.81a1.17,1.17,0,0,1-1.07-1.64l2.41-5.51a1.17,1.17,0,0,1,1.07-.7H92.67a1.17,1.17,0,0,1,1.15,1.39l-1.06,5.51A1.17,1.17,0,0,1,91.61,373.23Z" style="fill:#fff"/><path d="M101.53,351.8H63.44a1.17,1.17,0,0,1-1.08-1.64l2.43-5.51a1.18,1.18,0,0,1,1.08-.7h36.72a1.17,1.17,0,0,1,1.16,1.39l-1.07,5.51A1.18,1.18,0,0,1,101.53,351.8Z" style="fill:#bdbdbd"/><path d="M101.24,351.31H63.43a1.17,1.17,0,0,1-1.07-1.64l2.41-5.51a1.17,1.17,0,0,1,1.07-.7h36.45a1.17,1.17,0,0,1,1.15,1.39l-1.06,5.51A1.17,1.17,0,0,1,101.24,351.31Z" style="fill:#fff"/><path d="M300.51,362.37h26a1.28,1.28,0,0,0,1.18-1.79l-2.33-5.3a1.29,1.29,0,0,0-1.18-.76H299.05a1.28,1.28,0,0,0-1.24,1.61l1.45,5.3A1.28,1.28,0,0,0,300.51,362.37Z" style="fill:#bdbdbd"/><path d="M301,361.69h25.81a1.28,1.28,0,0,0,1.17-1.79l-2.32-5.3a1.28,1.28,0,0,0-1.17-.76H299.54a1.28,1.28,0,0,0-1.23,1.61l1.44,5.3A1.28,1.28,0,0,0,301,361.69Z" style="fill:#fff"/><path d="M85.65,362.57h-26a1.28,1.28,0,0,1-1.18-1.79l2.33-5.3a1.29,1.29,0,0,1,1.18-.76H87.1a1.28,1.28,0,0,1,1.24,1.61l-1.45,5.3A1.28,1.28,0,0,1,85.65,362.57Z" style="fill:#bdbdbd"/><path d="M85.17,361.89H59.37a1.28,1.28,0,0,1-1.17-1.79l2.32-5.3a1.28,1.28,0,0,1,1.17-.76H86.61a1.28,1.28,0,0,1,1.23,1.61L86.4,361A1.28,1.28,0,0,1,85.17,361.89Z" style="fill:#fff"/><path d="M284.19,351.62h38.08a1.17,1.17,0,0,0,1.08-1.64l-2.43-5.51a1.18,1.18,0,0,0-1.08-.7H283.13a1.17,1.17,0,0,0-1.16,1.39l1.07,5.51A1.18,1.18,0,0,0,284.19,351.62Z" style="fill:#bdbdbd"/><path d="M284.48,351.13h37.8a1.17,1.17,0,0,0,1.07-1.64L320.95,344a1.17,1.17,0,0,0-1.07-.7H283.43a1.17,1.17,0,0,0-1.15,1.39l1.06,5.51A1.17,1.17,0,0,0,284.48,351.13Z" style="fill:#fff"/><path d="M295.79,386.18h18.35a1.21,1.21,0,0,0,1.18-1.57l-1.39-4.26a1.24,1.24,0,0,0-1.18-.84H294.87a1.22,1.22,0,0,0-1.21,1.45l.92,4.26A1.23,1.23,0,0,0,295.79,386.18Z" style="fill:#bdbdbd"/><path d="M296.35,385.6h17.83a1.21,1.21,0,0,0,1.15-1.57L314,379.77a1.21,1.21,0,0,0-1.15-.84H295.46a1.21,1.21,0,0,0-1.18,1.45l.89,4.26A1.21,1.21,0,0,0,296.35,385.6Z" style="fill:#fff"/><path d="M291.29,373.42h18.35a1.34,1.34,0,0,0,1.18-1.77l-1.39-4.79a1.26,1.26,0,0,0-1.18-.94H290.37a1.33,1.33,0,0,0-1.21,1.63l.92,4.79A1.27,1.27,0,0,0,291.29,373.42Z" style="fill:#bdbdbd"/><path d="M291.85,372.76h17.83a1.34,1.34,0,0,0,1.15-1.77l-1.35-4.79a1.23,1.23,0,0,0-1.15-.94H291a1.32,1.32,0,0,0-1.18,1.63l.89,4.79A1.25,1.25,0,0,0,291.85,372.76Z" style="fill:#fff"/><path d="M91.17,386.18H72.4a1.12,1.12,0,0,1-1.13-1.33l1-4.45a1.14,1.14,0,0,1,1.13-.88H92.18a1.12,1.12,0,0,1,1.12,1.35l-1,4.45A1.14,1.14,0,0,1,91.17,386.18Z" style="fill:#bdbdbd"/><path d="M90.48,385.6H72.36a1.11,1.11,0,0,1-1.09-1.33l.92-4.45a1.11,1.11,0,0,1,1.09-.88H91.47a1.11,1.11,0,0,1,1.08,1.35l-1,4.45A1.11,1.11,0,0,1,90.48,385.6Z" style="fill:#fff"/><path d="M271.94,386.18h18.14a1.32,1.32,0,0,0,1.32-1.62l-1-4a1.34,1.34,0,0,0-1.32-1H271.22a1.33,1.33,0,0,0-1.33,1.54l.73,4A1.34,1.34,0,0,0,271.94,386.18Z" style="fill:#bdbdbd"/><path d="M272.48,385.6h17.64A1.31,1.31,0,0,0,291.4,384l-1-4a1.31,1.31,0,0,0-1.28-1H271.77a1.31,1.31,0,0,0-1.29,1.54l.71,4A1.31,1.31,0,0,0,272.48,385.6Z" style="fill:#fff"/><path d="M268.11,373.42h18.14a1.45,1.45,0,0,0,1.32-1.82l-1-4.54a1.38,1.38,0,0,0-1.32-1.14H267.38a1.44,1.44,0,0,0-1.33,1.73l.73,4.54A1.39,1.39,0,0,0,268.11,373.42Z" style="fill:#bdbdbd"/><path d="M268.65,372.76h17.64a1.45,1.45,0,0,0,1.28-1.82l-1-4.54a1.36,1.36,0,0,0-1.28-1.14H267.94a1.44,1.44,0,0,0-1.29,1.73l.71,4.54A1.37,1.37,0,0,0,268.65,372.76Z" style="fill:#fff"/><path d="M246.75,386.18h18.72a1.41,1.41,0,0,0,1.39-1.6l-.52-3.85a1.41,1.41,0,0,0-1.39-1.22H246.27a1.41,1.41,0,0,0-1.4,1.58l.48,3.85A1.41,1.41,0,0,0,246.75,386.18Z" style="fill:#bdbdbd"/><path d="M247,385.6h18.72a1.41,1.41,0,0,0,1.39-1.6l-.52-3.85a1.41,1.41,0,0,0-1.39-1.22H246.47a1.41,1.41,0,0,0-1.4,1.58l.48,3.85A1.41,1.41,0,0,0,247,385.6Z" style="fill:#fff"/><path d="M243.75,373.3h18.72a1.5,1.5,0,0,0,1.39-1.74l-.52-4.21a1.45,1.45,0,0,0-1.39-1.33H243.27a1.49,1.49,0,0,0-1.4,1.73l.48,4.21A1.46,1.46,0,0,0,243.75,373.3Z" style="fill:#bdbdbd"/><path d="M244,372.66h18.72a1.5,1.5,0,0,0,1.39-1.74l-.52-4.21a1.45,1.45,0,0,0-1.39-1.33H243.47a1.49,1.49,0,0,0-1.4,1.73l.48,4.21A1.46,1.46,0,0,0,244,372.66Z" style="fill:#fff"/><path d="M221.2,386.18h19.59a1.07,1.07,0,0,0,1.07-1.21l-.62-4.53a1.08,1.08,0,0,0-1.07-.93H220.69a1.07,1.07,0,0,0-1.07,1.19l.51,4.53A1.08,1.08,0,0,0,221.2,386.18Z" style="fill:#bdbdbd"/><path d="M221.42,385.6H240.8a1.07,1.07,0,0,0,1.06-1.21l-.61-4.53a1.07,1.07,0,0,0-1.06-.93H220.91a1.07,1.07,0,0,0-1.06,1.19l.51,4.53A1.07,1.07,0,0,0,221.42,385.6Z" style="fill:#fff"/><path d="M219.37,373.15H239a1.14,1.14,0,0,0,1.07-1.32l-.62-4.92a1.11,1.11,0,0,0-1.07-1H218.85a1.14,1.14,0,0,0-1.07,1.29l.51,4.92A1.11,1.11,0,0,0,219.37,373.15Z" style="fill:#bdbdbd"/><path d="M219.58,372.51H239a1.13,1.13,0,0,0,1.06-1.32l-.61-4.92a1.1,1.1,0,0,0-1.06-1H219.07a1.13,1.13,0,0,0-1.06,1.29l.51,4.92A1.11,1.11,0,0,0,219.58,372.51Z" style="fill:#fff"/><path d="M195.44,386.18H215.9a1,1,0,0,0,1-1.13l-.67-4.67a1,1,0,0,0-1-.87h-19.8a1,1,0,0,0-1.05,1v4.67A1,1,0,0,0,195.44,386.18Z" style="fill:#bdbdbd"/><path d="M196,385.6h19.43a1,1,0,0,0,1-1.13l-.63-4.67a1,1,0,0,0-1-.87H196a1,1,0,0,0-1,1v4.67A1,1,0,0,0,196,385.6Z" style="fill:#fff"/><path d="M195,373.3h19.95a1.08,1.08,0,0,0,1-1.26l-.65-5.17a1.06,1.06,0,0,0-1-1H195a1.07,1.07,0,0,0-1,1.11v5.17A1.07,1.07,0,0,0,195,373.3Z" style="fill:#bdbdbd"/><path d="M195,372.65h19.43a1.07,1.07,0,0,0,1-1.26l-.63-5.17a1,1,0,0,0-1-1H195a1.06,1.06,0,0,0-1,1.11v5.17A1.06,1.06,0,0,0,195,372.65Z" style="fill:#fff"/><path d="M145.36,386.18H164.8a1.05,1.05,0,0,0,1-1l.35-4.56a1.05,1.05,0,0,0-1-1.13h-19.4a1.05,1.05,0,0,0-1,1l-.4,4.56A1.05,1.05,0,0,0,145.36,386.18Z" style="fill:#bdbdbd"/><path d="M145.36,385.6H164.8a1.05,1.05,0,0,0,1-1l.35-4.56a1.05,1.05,0,0,0-1-1.13h-19.4a1.05,1.05,0,0,0-1,1l-.4,4.56A1.05,1.05,0,0,0,145.36,385.6Z" style="fill:#fff"/><path d="M147.61,373.42h19.45a1.11,1.11,0,0,0,1-1.09l.35-5.13a1.14,1.14,0,0,0-1-1.28H148a1.11,1.11,0,0,0-1,1.08l-.4,5.13A1.14,1.14,0,0,0,147.61,373.42Z" style="fill:#bdbdbd"/><path d="M147.61,372.76h19.45a1.11,1.11,0,0,0,1-1.09l.35-5.13a1.14,1.14,0,0,0-1-1.28H148a1.11,1.11,0,0,0-1,1.08l-.4,5.13A1.14,1.14,0,0,0,147.61,372.76Z" style="fill:#fff"/><path d="M170.95,386.18h18.73a1.35,1.35,0,0,0,1.35-1.35v-4a1.35,1.35,0,0,0-1.35-1.35H171.32a1.35,1.35,0,0,0-1.35,1.23l-.37,4A1.35,1.35,0,0,0,170.95,386.18Z" style="fill:#bdbdbd"/><path d="M170.95,385.6h18.73a1.35,1.35,0,0,0,1.35-1.35v-4a1.35,1.35,0,0,0-1.35-1.35H171.32a1.35,1.35,0,0,0-1.35,1.23l-.37,4A1.35,1.35,0,0,0,170.95,385.6Z" style="fill:#fff"/><path d="M166.35,341.35h83.32a1,1,0,0,0,1-1.24l-1.2-5.06a1,1,0,0,0-1-.78H166.95a1,1,0,0,0-1,.89l-.6,5.06A1,1,0,0,0,166.35,341.35Z" style="fill:#bdbdbd"/><path d="M166.35,340.35h82.92a1,1,0,0,0,1-1.24l-1.19-5.06a1,1,0,0,0-1-.78H166.94a1,1,0,0,0-1,.89l-.6,5.06A1,1,0,0,0,166.35,340.35Z" style="fill:#fff"/><path d="M171.61,373.42h18.73a1.45,1.45,0,0,0,1.35-1.52v-4.45a1.45,1.45,0,0,0-1.35-1.52H172a1.43,1.43,0,0,0-1.35,1.38l-.37,4.45A1.47,1.47,0,0,0,171.61,373.42Z" style="fill:#bdbdbd"/><path d="M171.61,372.76h18.73a1.45,1.45,0,0,0,1.35-1.52v-4.45a1.45,1.45,0,0,0-1.35-1.52H172a1.43,1.43,0,0,0-1.35,1.38l-.37,4.45A1.47,1.47,0,0,0,171.61,372.76Z" style="fill:#fff"/><path d="M115.69,386.18H96.22A1.22,1.22,0,0,1,95,384.81l.58-4.24a1.23,1.23,0,0,1,1.22-1.05h19.41a1.22,1.22,0,0,1,1.23,1.36l-.53,4.24A1.23,1.23,0,0,1,115.69,386.18Z" style="fill:#bdbdbd"/><path d="M115.31,385.6H96.2a1.21,1.21,0,0,1-1.2-1.38l.57-4.24a1.21,1.21,0,0,1,1.2-1.05h19.06a1.21,1.21,0,0,1,1.2,1.36l-.52,4.24A1.21,1.21,0,0,1,115.31,385.6Z" style="fill:#fff"/><path d="M117.69,373.55H98.23A1.33,1.33,0,0,1,97,372l.58-4.78A1.28,1.28,0,0,1,98.81,366h19.41a1.33,1.33,0,0,1,1.23,1.54l-.53,4.78A1.29,1.29,0,0,1,117.69,373.55Z" style="fill:#bdbdbd"/><path d="M117.32,372.9H98.21a1.32,1.32,0,0,1-1.2-1.55l.57-4.78a1.27,1.27,0,0,1,1.2-1.18h19.06a1.32,1.32,0,0,1,1.2,1.54l-.52,4.78A1.27,1.27,0,0,1,117.32,372.9Z" style="fill:#fff"/><path d="M140.32,386.18H120.46a1,1,0,0,1-1-1.17l.63-4.6a1,1,0,0,1,1-.9H140.9a1,1,0,0,1,1,1.16l-.58,4.6A1,1,0,0,1,140.32,386.18Z" style="fill:#bdbdbd"/><path d="M140,385.6H120.5a1,1,0,0,1-1-1.17l.62-4.6a1,1,0,0,1,1-.9h19.42a1,1,0,0,1,1,1.16l-.57,4.6A1,1,0,0,1,140,385.6Z" style="fill:#fff"/><path d="M142.67,373.42H122.8a1.13,1.13,0,0,1-1-1.32l.63-5.17a1.1,1.1,0,0,1,1-1h19.81a1.13,1.13,0,0,1,1,1.31l-.58,5.17A1.1,1.1,0,0,1,142.67,373.42Z" style="fill:#bdbdbd"/><path d="M142.32,372.76H122.85a1.13,1.13,0,0,1-1-1.32l.62-5.17a1.08,1.08,0,0,1,1-1h19.42a1.12,1.12,0,0,1,1,1.31l-.57,5.17A1.09,1.09,0,0,1,142.32,372.76Z" style="fill:#fff"/><path d="M278.26,362.45h18.35a1.34,1.34,0,0,0,1.18-1.77l-1.39-4.79a1.26,1.26,0,0,0-1.18-.94H277.34a1.33,1.33,0,0,0-1.21,1.63l.92,4.79A1.27,1.27,0,0,0,278.26,362.45Z" style="fill:#bdbdbd"/><path d="M278.82,361.8h17.83A1.34,1.34,0,0,0,297.8,360l-1.35-4.79a1.23,1.23,0,0,0-1.15-.94H277.93a1.32,1.32,0,0,0-1.18,1.63l.89,4.79A1.25,1.25,0,0,0,278.82,361.8Z" style="fill:#fff"/><path d="M256.08,362.45h18.14a1.45,1.45,0,0,0,1.32-1.82l-1-4.54a1.38,1.38,0,0,0-1.32-1.14H255.35a1.44,1.44,0,0,0-1.33,1.73l.73,4.54A1.39,1.39,0,0,0,256.08,362.45Z" style="fill:#bdbdbd"/><path d="M256.61,361.8h17.64a1.45,1.45,0,0,0,1.28-1.82l-1-4.54a1.36,1.36,0,0,0-1.28-1.14H255.91a1.44,1.44,0,0,0-1.29,1.73l.71,4.54A1.37,1.37,0,0,0,256.61,361.8Z" style="fill:#fff"/><path d="M232.72,362.33h18.72a1.5,1.5,0,0,0,1.39-1.74l-.52-4.21a1.45,1.45,0,0,0-1.39-1.33H232.24a1.49,1.49,0,0,0-1.4,1.73l.48,4.21A1.46,1.46,0,0,0,232.72,362.33Z" style="fill:#bdbdbd"/><path d="M232.92,361.69h18.72a1.5,1.5,0,0,0,1.39-1.74l-.52-4.21a1.45,1.45,0,0,0-1.39-1.33H232.44a1.49,1.49,0,0,0-1.4,1.73l.48,4.21A1.46,1.46,0,0,0,232.92,361.69Z" style="fill:#fff"/><path d="M208.33,362.18h19.59a1.14,1.14,0,0,0,1.07-1.32l-.62-4.92a1.11,1.11,0,0,0-1.07-1H207.82a1.14,1.14,0,0,0-1.07,1.29l.51,4.92A1.11,1.11,0,0,0,208.33,362.18Z" style="fill:#bdbdbd"/><path d="M208.55,361.55h19.39a1.13,1.13,0,0,0,1.06-1.32l-.61-4.92a1.1,1.1,0,0,0-1.06-1H208a1.13,1.13,0,0,0-1.06,1.29l.51,4.92A1.11,1.11,0,0,0,208.55,361.55Z" style="fill:#fff"/><path d="M185,362.33H204.9a1.08,1.08,0,0,0,1-1.26l-.65-5.17a1.06,1.06,0,0,0-1-1H185a1.07,1.07,0,0,0-1,1.11v5.17A1.07,1.07,0,0,0,185,362.33Z" style="fill:#bdbdbd"/><path d="M184.93,361.68h19.43a1.07,1.07,0,0,0,1-1.26l-.63-5.17a1,1,0,0,0-1-1H184.93a1.06,1.06,0,0,0-1,1.11v5.17A1.06,1.06,0,0,0,184.93,361.68Z" style="fill:#fff"/><path d="M137.58,362.45H157a1.11,1.11,0,0,0,1-1.09l.35-5.13a1.14,1.14,0,0,0-1-1.28H138a1.11,1.11,0,0,0-1,1.08l-.4,5.13A1.14,1.14,0,0,0,137.58,362.45Z" style="fill:#bdbdbd"/><path d="M137.58,361.8H157a1.11,1.11,0,0,0,1-1.09l.35-5.13a1.14,1.14,0,0,0-1-1.28H138a1.11,1.11,0,0,0-1,1.08l-.4,5.13A1.14,1.14,0,0,0,137.58,361.8Z" style="fill:#fff"/><path d="M161.58,362.45h18.73a1.45,1.45,0,0,0,1.35-1.52v-4.45a1.45,1.45,0,0,0-1.35-1.52H162a1.43,1.43,0,0,0-1.35,1.38l-.37,4.45A1.47,1.47,0,0,0,161.58,362.45Z" style="fill:#bdbdbd"/><path d="M161.58,361.8h18.73a1.45,1.45,0,0,0,1.35-1.52v-4.45a1.45,1.45,0,0,0-1.35-1.52H162a1.43,1.43,0,0,0-1.35,1.38l-.37,4.45A1.47,1.47,0,0,0,161.58,361.8Z" style="fill:#fff"/><path d="M109.8,362.46H90.21A1.33,1.33,0,0,1,89,360.91l1.14-4.57a2.15,2.15,0,0,1,1.79-1.4h18.43a1.33,1.33,0,0,1,1.23,1.54l-.54,4.78A1.29,1.29,0,0,1,109.8,362.46Z" style="fill:#bdbdbd"/><path d="M109.28,361.93H90.18a1.32,1.32,0,0,1-1.2-1.55l1.11-4.57a2.11,2.11,0,0,1,1.75-1.4h18a1.32,1.32,0,0,1,1.2,1.54l-.52,4.78A1.27,1.27,0,0,1,109.28,361.93Z" style="fill:#fff"/><path d="M133.64,362.45H113.77a1.13,1.13,0,0,1-1-1.32l.63-5.17a1.1,1.1,0,0,1,1-1h19.81a1.13,1.13,0,0,1,1,1.31l-.58,5.17A1.1,1.1,0,0,1,133.64,362.45Z" style="fill:#bdbdbd"/><path d="M133.29,361.8H113.82a1.13,1.13,0,0,1-1-1.32l.62-5.17a1.08,1.08,0,0,1,1-1h19.42a1.12,1.12,0,0,1,1,1.31l-.57,5.17A1.09,1.09,0,0,1,133.29,361.8Z" style="fill:#fff"/><path d="M263.42,351.52h17.64a1.45,1.45,0,0,0,1.28-1.82l-1-4.54a1.36,1.36,0,0,0-1.28-1.14H262.72a1.44,1.44,0,0,0-1.29,1.73l.71,4.54A1.37,1.37,0,0,0,263.42,351.52Z" style="fill:#bdbdbd"/><path d="M263.94,350.86H281.1a1.44,1.44,0,0,0,1.24-1.82l-.92-4.54a1.33,1.33,0,0,0-1.24-1.14H263.26A1.43,1.43,0,0,0,262,345.1l.69,4.54A1.35,1.35,0,0,0,263.94,350.86Z" style="fill:#fff"/><path d="M241.43,351.4h17.73a1.48,1.48,0,0,0,1.32-1.74l-.49-4.21a1.41,1.41,0,0,0-1.32-1.33H241a1.47,1.47,0,0,0-1.32,1.73l.46,4.21A1.41,1.41,0,0,0,241.43,351.4Z" style="fill:#bdbdbd"/><path d="M241.62,350.76h17.73a1.48,1.48,0,0,0,1.32-1.74l-.49-4.21a1.41,1.41,0,0,0-1.32-1.33H241.16a1.47,1.47,0,0,0-1.32,1.73l.46,4.21A1.41,1.41,0,0,0,241.62,350.76Z" style="fill:#fff"/><path d="M218.61,351.25h19.15a1.13,1.13,0,0,0,1-1.32L238.2,345a1.1,1.1,0,0,0-1-1h-19a1.13,1.13,0,0,0-1.05,1.29l.5,4.92A1.1,1.1,0,0,0,218.61,351.25Z" style="fill:#bdbdbd"/><path d="M218.82,350.62h19a1.13,1.13,0,0,0,1-1.32l-.6-4.92a1.09,1.09,0,0,0-1-1H218.32a1.12,1.12,0,0,0-1,1.29l.5,4.92A1.09,1.09,0,0,0,218.82,350.62Z" style="fill:#fff"/><path d="M196.72,351.4h19.16a1.07,1.07,0,0,0,1-1.26l-.62-5.17a1,1,0,0,0-1-1H196.72a1.05,1.05,0,0,0-1,1.11v5.17A1.05,1.05,0,0,0,196.72,351.4Z" style="fill:#bdbdbd"/><path d="M196.7,350.75h18.66a1.06,1.06,0,0,0,1-1.26l-.61-5.17a1,1,0,0,0-1-1H196.7a1,1,0,0,0-1,1.11v5.17A1,1,0,0,0,196.7,350.75Z" style="fill:#fff"/><path d="M150.38,351.52h19.45a1.11,1.11,0,0,0,1-1.09l.35-5.13a1.14,1.14,0,0,0-1-1.28h-19.4a1.11,1.11,0,0,0-1,1.08l-.4,5.13A1.14,1.14,0,0,0,150.38,351.52Z" style="fill:#bdbdbd"/><path d="M150.38,350.86h19.45a1.11,1.11,0,0,0,1-1.09l.35-5.13a1.14,1.14,0,0,0-1-1.28h-19.4a1.11,1.11,0,0,0-1,1.08l-.4,5.13A1.14,1.14,0,0,0,150.38,350.86Z" style="fill:#fff"/><path d="M173.39,351.52h18.73a1.45,1.45,0,0,0,1.35-1.52v-4.45a1.45,1.45,0,0,0-1.35-1.52H173.76a1.43,1.43,0,0,0-1.35,1.38l-.37,4.45A1.47,1.47,0,0,0,173.39,351.52Z" style="fill:#bdbdbd"/><path d="M173.39,350.86h18.73a1.45,1.45,0,0,0,1.35-1.52v-4.45a1.45,1.45,0,0,0-1.35-1.52H173.76a1.43,1.43,0,0,0-1.35,1.38L172,349.2A1.47,1.47,0,0,0,173.39,350.86Z" style="fill:#fff"/><path d="M124.61,351.53H105a1.33,1.33,0,0,1-1.23-1.55l1.14-4.57a2.15,2.15,0,0,1,1.79-1.4h18.43a1.33,1.33,0,0,1,1.23,1.54l-.54,4.78A1.29,1.29,0,0,1,124.61,351.53Z" style="fill:#bdbdbd"/><path d="M124.09,351H105a1.32,1.32,0,0,1-1.2-1.55l1.11-4.57a2.11,2.11,0,0,1,1.75-1.4h18a1.32,1.32,0,0,1,1.2,1.54l-.52,4.78A1.27,1.27,0,0,1,124.09,351Z" style="fill:#fff"/><path d="M147.44,351.52H127.58a1.13,1.13,0,0,1-1-1.32l.63-5.17a1.1,1.1,0,0,1,1-1H148a1.13,1.13,0,0,1,1,1.31l-.58,5.17A1.1,1.1,0,0,1,147.44,351.52Z" style="fill:#bdbdbd"/><path d="M147.09,350.86H127.63a1.13,1.13,0,0,1-1-1.32l.62-5.17a1.08,1.08,0,0,1,1-1h19.42a1.12,1.12,0,0,1,1,1.31l-.57,5.17A1.09,1.09,0,0,1,147.09,350.86Z" style="fill:#fff"/><path d="M118,334.85c2,3.61,0,5.44,1.17,15.3.32,2.71-.57,2.8-.43,4.63.49,6.1-.67,7.42.56,10.69.57,1.53,1.21,2.26.83,3.19-.54,1.35-2.82,2.2-4.44,1.67-3-1-3.57-6.59-3.89-9.72-.68-6.6,1.22-6.76.56-12.77-.38-3.42-1.11-4.47-2.22-11.8-.68-4.47-.65-5.75,0-6.11C111.28,329.26,116.2,331.68,118,334.85Z" style="fill:#f7d1c4"/><path d="M124.25,303.4c8.39-5.52,16.67-1.26,21.13,2-6.36-9.53-17.37-11.85-23.9.19" style="fill:#edbba9"/><path d="M125.21,331.7c2.41,4.33.79,7,2.17,18.83.38,3.25.49,3,.67,5.17.58,7.32-.81,8.9.67,12.83.69,1.84,1.45,2.71,1,3.83-.65,1.62-3.39,2.64-5.33,2-3.59-1.18-4.28-7.91-4.67-11.67-.81-7.92-.79-8-1.58-15.24-.45-4.1.91-5.47-.42-14.26-.81-5.37-.79-6.9,0-7.33C119.14,325.08,123.09,327.89,125.21,331.7Z" style="fill:#f7ccba"/><path d="M104.73,324.23c.07-.27.15-.54.22-.8C104.88,323.69,104.8,324,104.73,324.23Z" style="fill:#fdc"/><path d="M105.16,322.77c.06-.2.13-.39.19-.58C105.28,322.38,105.22,322.58,105.16,322.77Z" style="fill:#fdc"/><path d="M104.39,325.69c.07-.33.14-.64.22-1C104.53,325,104.45,325.36,104.39,325.69Z" style="fill:#fdc"/><path d="M165.63,337.52c-3.07-9.4-10-20-11.33-20.68-1.8-5.46-6.85-11.27-10.67-14.67-5-2.17-10.38-4.3-19.67-.65-6.74,2.64-10.93,12-12.17,13.49-4.5,5.5-6.23,7.1-7.4,10.68-.1.49-.19,1-.26,1.5-.89,6.44,1.43,8.27,1.5,16.33.06,6.53-1.45,7-.83,13.17.26,2.57,1,9.89,4.67,11a3,3,0,0,0,2.33-.17c2-1.27.89-5.57.67-11.33a53.39,53.39,0,0,1,.67-10.67l-.37-4.33a2.67,2.67,0,0,0,1.13,1.63,2.52,2.52,0,0,0,1.75.38c1-.19,1.14-1,2-1.12.64-.08.82.33,2,.88a6.86,6.86,0,0,0,3.41.78c1.35-.11,1.71-.77,2.59-.53a2.8,2.8,0,0,1,1.63,1.63c-.33,8.2,2,14.85,1.21,19.54-.2,1.2.5,12.41,4.67,12.33,2.31,0,4-3.44,4.5-4.5,1.94-3.94,1.12-7.34.5-14.5-.56-6.5-.94-9.77-.5-11.5,2.87-11.27,8.31-18.11,13.32-15.32,2.49,1.39,3.22,5.43,7.85,12,1.77,2.51,1.86,5.06,4.17,4.61s3.26,0,3.55-1C167.51,343.05,166.17,339.18,165.63,337.52Z" style="fill:#fdc"/><path d="M111.79,310.69" style="fill:#edbba9"/><path d="M107,341c.14-.08.56,1,1.67,1.42,1.51.58,2.58-.7,3.42-.25,1.07.58.33,3.26,0,7.42-.37,4.69.05,7.9-.17,7.92s-.26-1.76-.92-4.92a39.7,39.7,0,0,0-1.58-5.92C108.31,343.54,106.83,341.14,107,341Z" style="fill:#f7d1c4"/><path d="M159.79,324.74c-.78-.65-.72-1.57-1.5-2.22a10.28,10.28,0,0,0-2.5-1.33c-.56-.2-3.47-1.21-5.67-.33-1.93.77-2.53,2.7-3.83,5.67-.24.54-3.94,8.86-8.92,14.67a34.35,34.35,0,0,1-4.5,4.38,5.22,5.22,0,0,1-4.12.25,4.57,4.57,0,0,1-1.5-1c-.33,8.2,2,14.85,1.21,19.54-.2,1.2.5,12.41,4.67,12.33,2.31,0,4-3.44,4.5-4.5,1.94-3.94,1.12-7.34.5-14.5-.56-6.5-.94-9.77-.5-11.5,2.87-11.27,8.31-18.11,13.32-15.32,2.49,1.39,3.22,5.43,7.85,12,1.77,2.51,1.86,5.06,4.17,4.61s3.26,0,3.55-1c1.06-3.64-.89-9-.89-9C164.09,333.76,162.88,329.81,159.79,324.74Z" style="fill:#efc0af"/><path d="M299.89,334.85c-2,3.61,0,5.44-1.17,15.3-.32,2.71.57,2.8.43,4.63-.49,6.1.67,7.42-.56,10.69-.57,1.53-1.21,2.26-.83,3.19.54,1.35,2.82,2.2,4.44,1.67,3-1,3.57-6.59,3.89-9.72.68-6.6-1.22-6.76-.56-12.77.38-3.42,1.11-4.47,2.22-11.8.68-4.47.65-5.75,0-6.11C306.57,329.26,301.65,331.68,299.89,334.85Z" style="fill:#f7d1c4"/><path d="M293.6,303.4c-8.39-5.52-16.67-1.26-21.13,2,6.36-9.53,17.37-11.85,23.9.19" style="fill:#edbba9"/><path d="M292.64,331.7c-2.41,4.33-.79,7-2.17,18.83-.38,3.25-.49,3-.67,5.17-.58,7.32.81,8.9-.67,12.83-.69,1.84-1.45,2.71-1,3.83.65,1.62,3.39,2.64,5.33,2,3.59-1.18,4.28-7.91,4.67-11.67.81-7.92.79-8,1.58-15.24.45-4.1-.91-5.47.42-14.26.81-5.37.79-6.9,0-7.33C298.71,325.08,294.76,327.89,292.64,331.7Z" style="fill:#f7ccba"/><path d="M313.12,324.23c-.07-.27-.15-.54-.22-.8C313,323.69,313,324,313.12,324.23Z" style="fill:#fdc"/><path d="M312.69,322.77c-.06-.2-.13-.39-.19-.58C312.57,322.38,312.63,322.58,312.69,322.77Z" style="fill:#fdc"/><path d="M313.46,325.69c-.07-.33-.14-.64-.22-1C313.32,325,313.4,325.36,313.46,325.69Z" style="fill:#fdc"/><path d="M252.23,337.52c3.07-9.4,10-20,11.33-20.68,1.8-5.46,6.85-11.27,10.67-14.67,5-2.17,10.38-4.3,19.67-.65,6.74,2.64,10.93,12,12.17,13.49,4.5,5.5,6.23,7.1,7.4,10.68.1.49.19,1,.26,1.5.89,6.44-1.43,8.27-1.5,16.33-.06,6.53,1.45,7,.83,13.17-.26,2.57-1,9.89-4.67,11a3,3,0,0,1-2.33-.17c-2-1.27-.89-5.57-.67-11.33a53.39,53.39,0,0,0-.67-10.67l.38-4.33a2.67,2.67,0,0,1-1.12,1.63,2.52,2.52,0,0,1-1.75.38c-1-.19-1.14-1-2-1.12-.64-.08-.82.33-2,.88a6.86,6.86,0,0,1-3.41.78c-1.35-.11-1.71-.77-2.59-.53a2.8,2.8,0,0,0-1.62,1.63c.33,8.2-2,14.85-1.21,19.54.2,1.2-.5,12.41-4.67,12.33-2.31,0-4-3.44-4.5-4.5-1.94-3.94-1.12-7.34-.5-14.5.56-6.5.94-9.77.5-11.5-2.87-11.27-8.31-18.11-13.32-15.32-2.49,1.39-3.22,5.43-7.85,12-1.77,2.51-1.86,5.06-4.17,4.61s-3.26,0-3.55-1C250.34,343.05,251.68,339.18,252.23,337.52Z" style="fill:#fdc"/><path d="M306.06,310.69" style="fill:#edbba9"/><path d="M310.81,341c-.14-.08-.56,1-1.67,1.42-1.51.58-2.58-.7-3.42-.25-1.07.58-.33,3.26,0,7.42.37,4.69-.05,7.9.17,7.92s.26-1.76.92-4.92a39.7,39.7,0,0,1,1.58-5.92C309.54,343.54,311,341.14,310.81,341Z" style="fill:#f7d1c4"/><path d="M258.06,324.74c.78-.65.72-1.57,1.5-2.22a10.28,10.28,0,0,1,2.5-1.33c.56-.2,3.47-1.21,5.67-.33,1.93.77,2.53,2.7,3.83,5.67.24.54,3.94,8.86,8.92,14.67a34.35,34.35,0,0,0,4.5,4.38,5.22,5.22,0,0,0,4.13.25,4.57,4.57,0,0,0,1.5-1c.33,8.2-2,14.85-1.21,19.54.2,1.2-.5,12.41-4.67,12.33-2.31,0-4-3.44-4.5-4.5-1.94-3.94-1.12-7.34-.5-14.5.56-6.5.94-9.77.5-11.5-2.87-11.27-8.31-18.11-13.32-15.32-2.49,1.39-3.22,5.43-7.85,12-1.77,2.51-1.86,5.06-4.17,4.61s-3.26,0-3.55-1c-1.06-3.64.89-9,.89-9C253.76,333.76,255,329.81,258.06,324.74Z" style="fill:#efc0af"/></g></g></svg>