<svg xmlns="http://www.w3.org/2000/svg" viewBox="0 0 305.68 364.74"><title>internship</title><g id="7be26a72-5d80-4ba2-8769-83f2c658669d" data-name="Layer 2"><g id="2991c93a-dab0-49e5-ac8c-cd8a18ab1c92" data-name="Layer 1"><ellipse cx="156.54" cy="149.94" rx="39.7" ry="26.22" style="fill:#e53935"/><ellipse cx="156.39" cy="143.83" rx="31.44" ry="15.33" style="fill:#c62828"/><rect x="168.79" y="292.74" width="23.29" height="72" style="fill:#424242"/><rect x="119.49" y="292.74" width="23.29" height="72" style="fill:#424242"/><rect x="144.31" y="268.38" width="23.29" height="72" transform="translate(-148.43 460.34) rotate(-90)" style="fill:#424242"/><path d="M183.59,146.49a74,74,0,0,0-21-4.29v-24.1h-16v24.79a95.12,95.12,0,0,0-15.5,3.6A90.29,90.29,0,0,0,99.59,164l12.25,121.5h87.6l10.15-123A76.27,76.27,0,0,0,183.59,146.49Z" style="fill:#edbba9"/><path d="M208.16,61.21a8.14,8.14,0,0,0-3.14.63C200.93,34,180,12.77,154.75,12.77c-26.52,0-48.31,23.42-50.76,53.36a8.17,8.17,0,1,0,.41,15c3.89,28.12,24.95,49.6,50.35,49.6,26.61,0,48.45-23.58,50.78-53.66a8.16,8.16,0,1,0,2.63-15.89Z" style="fill:#fdc"/><path d="M194.5,66.24c-1.86-.1,2.57,28.65-9,42.6-11.74,14.15-30.47,14.42-30,16.5.41,1.86,15.54,3,27.5-5.5a36.64,36.64,0,0,0,11.5-14C201,92,196.2,66.33,194.5,66.24Z" style="fill:#efc3b6;opacity:0.42"/><circle cx="127.08" cy="95.9" r="11.51" style="fill:#ff958d"/><circle cx="186.46" cy="91.9" r="10.98" style="fill:#ff958d"/><path d="M147.44,100.71a29.14,29.14,0,0,0,25.07-4.27" style="fill:none;stroke:#6d5145;stroke-miterlimit:10"/><circle cx="133.75" cy="71.9" r="6.33" style="fill:#414042"/><circle cx="175.36" cy="70.57" r="6.33" style="fill:#414042"/><path d="M140.08,60.24c-.26-.32-3.92-4.63-9.67-4a11,11,0,0,0-9,7" style="fill:none;stroke:#414042;stroke-miterlimit:10"/><path d="M167.41,58.57c.22-.29,3.78-4.84,9.67-4.33a11,11,0,0,1,9,6.33" style="fill:none;stroke:#414042;stroke-miterlimit:10"/><path d="M197.44,54.2" style="fill:#6d6e71"/><path d="M105.84,72.65A26.12,26.12,0,0,1,109.45,56c4.94-7.77,12.86-10.13,18-11.68,6-1.81,11.86-2,12-1.32s-7.19,1.69-15.33,7c-3.3,2.15-8.5,5.53-11.67,11.33-5.75,10.52-1.24,22.4-2.67,22.67C108.85,84.17,106.39,78.57,105.84,72.65Z" style="fill:#efc3b6;opacity:0.45"/><path d="M104.5,71.77h2.67c-.17-1-.3-2.1-.39-3.22a41.32,41.32,0,0,1,2.39-17.22l5.67-7.83-9.16-1.67a62.72,62.72,0,0,1-.55,12.36c-.79,6.75-1.27,9.86-1,13.38Z" style="fill:#a7a9ac;opacity:0.81"/><path d="M204.38,65.57h-2.67c.17-1,.3-2.1.39-3.22a41.32,41.32,0,0,0-2.39-17.22L194,37.3l9.16-1.67A62.72,62.72,0,0,0,203.75,48c.79,6.75,1.27,9.86,1,13.38Z" style="fill:#a7a9ac;opacity:0.9400000000000001"/><path d="M105.68,48.56V22.34C107.73,19.92,125.52-.27,155.83,0c30.94.28,48.44,21.64,50.3,24L204,48.56,139.74,43l-2.87-5.65-2,7.44Z" style="fill:#58595b"/><path d="M183.45,145.66a73.51,73.51,0,0,0-13.53-3.48,3.94,3.94,0,0,1,.47,1.81c0,4-6.48,7.25-14.47,7.25S141.45,148,141.45,144a3.77,3.77,0,0,1,.19-1.11,100.08,100.08,0,0,0-10.69,2.78c-13.82,4.33-19.71,7.73-26.94,13.88l1.1,143.2,100.24,2,4.23-147.46C204.68,152.7,195.9,150.16,183.45,145.66Z" style="fill:#ef5350"/><path d="M103.84,162.16c4.69-.55,10.71,6.39,12.25,13,2.24,9.64-5.94,14.77-3.25,24.25,2.21,7.77,9.13,9.3,8.23,13.05-1.31,5.42-17.63,9.91-25.6,3.82C81.63,205.73,93,163.42,103.84,162.16Z" style="fill:#757575;opacity:0.4"/><path d="M208.84,162.16c-4.69-.55-10.71,6.39-12.25,13-2.24,9.64,5.94,14.77,3.25,24.25-2.21,7.77-9.13,9.3-8.23,13.05,1.31,5.42,17.63,9.91,25.6,3.82C231,205.73,219.71,163.42,208.84,162.16Z" style="fill:#757575;opacity:0.4"/><path d="M155.71,153.85c9.63,0,17.44-3.77,17.44-8.43a4.77,4.77,0,0,0-1-2.85c-.73-.14-1.46-.28-2.18-.4a3.94,3.94,0,0,1,.47,1.81c0,4-6.48,7.25-14.47,7.25S141.45,148,141.45,144a3.77,3.77,0,0,1,.19-1.11c-1,.2-2,.41-2.89.63a4.4,4.4,0,0,0-.47,1.92C138.27,150.08,146.08,153.85,155.71,153.85Z" style="fill:#e53935"/><path d="M181.73,187.6l-9.51-5.84-9.64-5.92a11.05,11.05,0,0,0-11.18-.38l-10,5.25-9.88,5.18a11.06,11.06,0,0,0-6.06,9.64l-.38,10.94-.38,10.94a11.06,11.06,0,0,0,5.38,10l9.51,5.84,9.64,5.92a11.05,11.05,0,0,0,11.18.38l10-5.25,9.89-5.18a11.06,11.06,0,0,0,6.06-9.64l.38-10.94.38-10.94A11.06,11.06,0,0,0,181.73,187.6Zm-15.44,3.66,3.67.13a1.52,1.52,0,0,1,1.46,1.57l-6.69-.23A1.52,1.52,0,0,1,166.29,191.26Zm-21.53-.35c1.92-.77,5.12.06,8.19,2.55s3.08,4.41,3.08,4.41-2.36-2-3.91-2.25-2.14-.35-3.13.65a4,4,0,0,0-.93,2.64l-4.1-.18a6.39,6.39,0,0,0-1.57-3c-1.09-.87-1.49-.73-1.49-.73l-.07-3.67A8.44,8.44,0,0,0,144.76,190.91Zm-6.71,4.2-.06-3.59,2.17,0,.06,3.59Zm28.89,30.55-1-2.07,2.21.08Zm1.76-3-.17.29-3-.1-.15-.3-1.55-3.1,3.31.11,3.31.11ZM172.77,211a17.57,17.57,0,0,1-2,.11l-.27,7.93-1.2,0,.27-7.86h-.72l-.27,7.82-2.91-.1.26-7.68h-.72l-.26,7.65-1.15,0,.26-7.6c-5.85.05-13,.06-15.64.06l.27,12.32s-.52.74-2.81.66-2.71-1.13-2.71-1.13l.41-12.44a6,6,0,0,1-3.61-3.36c-.38-1.57.78-2.88,1.72-2.33a3.08,3.08,0,0,0,2.07.27l.19-5.92,4.22.3.11,4.85,16,1.44.43-12.45,1.15,0L165.42,206l.72.06.43-12.55,2.91.1L169,206.32l.72.06.44-12.76,1.2,0L171,206.49l1.85.17s1.2-.08,1.66,1.49A2.2,2.2,0,0,1,172.77,211Z" style="fill:#fff"/><path d="M145.44,208.11c-2.87,1.45-3.83.15-3.83.15.24,1,.51,1.41,2.52,3s3.51,1.2,4.52-.2S148.31,206.66,145.44,208.11Z" style="fill:#fff"/><path d="M172.39,210l-16.93-1.35a1.61,1.61,0,0,1-.09,2.75l16.88.47a.76.76,0,0,0,.57-.23,1,1,0,0,0,.24-1.17A.78.78,0,0,0,172.39,210Z" style="fill:#fff"/><path d="M153.91,208.28l-4.31-.39a2.57,2.57,0,0,1-.16,3.73l-.06,0,4.41-.09a2,2,0,0,0,.11-3.31Z" style="fill:#fff"/><path d="M104.59,246.41l1.12,5.67,63.72-8.17,38,5.33,1.08-6.15-41.83-9.8Z" style="fill:#757575;opacity:0.4"/><rect x="167.45" y="173.92" width="17.01" height="114.98" rx="8.35" ry="8.35" transform="matrix(0.13, -0.99, 0.99, 0.13, -76.12, 376.21)" style="fill:#c62828"/><rect x="85.6" y="158.57" width="19.94" height="90.85" rx="8.35" ry="8.35" transform="translate(52.3 -17.08) rotate(14.03)" style="fill:#ef5350"/><path d="M124.21,244.89" style="fill:#edbba9"/><rect x="126.99" y="172.65" width="19.94" height="119.9" rx="8.35" ry="8.35" transform="translate(-75.4 399.23) rotate(-97.63)" style="fill:#ef5350"/><path d="M210.67,228c1.92-1.61,3.25-.64,9-2.45,1.58-.5,1.74,0,2.81-.28,3.58-1,4.5-.45,6.32-1.56.85-.52,1.21-1,1.81-.86a2.37,2.37,0,0,1,1.5,2.46c-.24,1.9-3.52,2.89-5.35,3.44-3.86,1.16-4.18.05-7.69,1.14-2,.62-2.54,1.18-6.79,2.68-2.59.92-3.35,1.05-3.65.7C208.11,232.65,209,229.44,210.67,228Z" style="fill:#f7d1c4"/><path d="M191.18,227.89c-4.26-4.37-2.67-9.8-1.23-12.84-5,4.89-5.07,11.73,2.86,14.24" style="fill:#edbba9"/><path d="M208,224.06c2.31-1.93,4.09-1.28,11-3.46,1.9-.6,1.72-.64,3-1,4.3-1.19,5.41-.54,7.58-1.87,1-.62,1.45-1.18,2.17-1a2.85,2.85,0,0,1,1.81,3c-.29,2.28-4.23,3.46-6.43,4.13-4.63,1.4-4.7,1.39-8.91,2.7-2.4.74-3.37.08-8.46,1.89-3.11,1.1-4,1.26-4.38.84C204.71,228.45,205.93,225.76,208,224.06Z" style="fill:#f7ccba"/><path d="M205.85,237.14l-.5,0Z" style="fill:#fdc"/><path d="M204.94,237.05l-.37,0Z" style="fill:#fdc"/><path d="M206.76,237.18l-.59,0Z" style="fill:#fdc"/><path d="M206.79,199.28c-5.25,2.91-10.79,8.25-11,9.14-3,1.7-5.94,5.38-7.53,8.05-.72,3.21-1.37,6.69,1.87,11.81,2.35,3.72,8.4,5.14,9.45,5.71,3.8,2.05,5,2.9,7.22,3.19.3,0,.61,0,.92,0,3.95-.21,4.77-1.8,9.57-2.77,3.89-.78,4.32.07,8-1,1.5-.45,5.79-1.73,6-4a1.81,1.81,0,0,0-.37-1.37c-1-1.07-3.43.11-6.84.9a32.44,32.44,0,0,1-6.44.83l-2.54.72a1.62,1.62,0,0,0,.84-.86,1.53,1.53,0,0,0,0-1.09c-.23-.59-.73-.56-.9-1.06s.1-.53.29-1.29a4.17,4.17,0,0,0,.08-2.13c-.22-.79-.65-.93-.62-1.48a1.7,1.7,0,0,1,.78-1.16c4.93-.74,8.63-2.9,11.52-3,.74,0,7.35-1.73,6.82-4.2-.29-1.37-2.51-2-3.2-2.17-2.57-.7-4.51.18-8.71,1.37-3.82,1.08-5.72,1.68-6.8,1.62-7.05-.42-11.76-2.88-10.67-6.19.54-1.65,2.87-2.55,6.25-6.06,1.29-1.35,2.81-1.69,2.27-3s-.36-1.95-1-2C209.87,197.52,207.72,198.76,206.79,199.28Z" style="fill:#fdc"/><path d="M197,234.48" style="fill:#edbba9"/><path d="M215.6,233.83c-.07-.07.53-.45.65-1.16.17-1-.72-1.46-.54-2,.22-.7,1.91-.57,4.43-.85,2.84-.32,4.71-.94,4.74-.81s-1,.35-2.83,1.11a24.12,24.12,0,0,0-3.35,1.62C217,232.78,215.7,233.94,215.6,233.83Z" style="fill:#f7d1c4"/><path d="M199.83,204.23c-.3.54-.85.61-1.15,1.15a6.25,6.25,0,0,0-.51,1.64,5.44,5.44,0,0,0,.45,3.42c.68,1.06,1.9,1.2,3.82,1.64a41.6,41.6,0,0,1,9.78,3.63,20.87,20.87,0,0,1,3.13,2.18,3.17,3.17,0,0,1,.62,2.43,2.78,2.78,0,0,1-.42,1c4.93-.74,8.63-2.9,11.52-3,.74,0,7.35-1.73,6.82-4.2-.29-1.37-2.51-2-3.2-2.17-2.57-.7-4.51.18-8.71,1.37-3.82,1.08-5.72,1.68-6.8,1.62-7.05-.42-11.76-2.88-10.67-6.19.54-1.65,2.87-2.55,6.25-6.06,1.29-1.35,2.81-1.69,2.27-3s-.36-1.95-1-2c-2.29-.21-5.25,1.56-5.25,1.56A45.71,45.71,0,0,0,199.83,204.23Z" style="fill:#efc0af"/><path d="M103.94,224.69c-1.71-1.84-3.14-1-8.61-3.57-1.5-.69-1.73-.2-2.75-.63-3.43-1.44-4.41-1-6.07-2.34-.77-.62-1.08-1.13-1.69-1.09a2.37,2.37,0,0,0-1.8,2.25c0,1.91,3.13,3.31,4.88,4.08,3.68,1.64,4.14.58,7.48,2.1,1.9.86,2.37,1.49,6.39,3.52,2.46,1.24,3.19,1.47,3.53,1.16C105.9,229.6,105.44,226.31,103.94,224.69Z" style="fill:#f7d1c4"/><path d="M123.29,227c4.78-3.8,3.88-9.38,2.84-12.58,4.3,5.48,3.55,12.27-4.64,13.77" style="fill:#edbba9"/><path d="M107.13,221.1c-2-2.21-3.9-1.78-10.46-4.82-1.81-.83-1.63-.85-2.86-1.36-4.12-1.72-5.29-1.22-7.28-2.81-.93-.75-1.29-1.35-2-1.3a2.85,2.85,0,0,0-2.16,2.7c0,2.29,3.76,4,5.85,4.9,4.42,2,4.48,2,8.5,3.8,2.28,1,3.33.51,8.16,2.94,2.95,1.49,3.83,1.76,4.23,1.39C109.8,225.86,108.93,223,107.13,221.1Z" style="fill:#f7ccba"/><path d="M107.57,234.34l.5,0Z" style="fill:#fdc"/><path d="M108.49,234.37h0Z" style="fill:#fdc"/><path d="M106.66,234.26l.59.05Z" style="fill:#fdc"/><path d="M114.81,199.6c4.84,3.55,4.82,7.24,6.41,7.52,2.81,2.07,5.21,6.09,6.45,8.94.31,3.28.52,6.81-3.35,11.48-2.8,3.39-9,4-10.09,4.47-4,1.55-5.28,2.25-7.57,2.25-.3,0-.6-.08-.92-.13-3.89-.7-4.5-2.39-9.15-4-3.76-1.27-4.29-.48-7.76-2-1.43-.63-5.52-2.44-5.47-4.78a1.81,1.81,0,0,1,.54-1.32c1.11-.93,3.38.54,6.67,1.76a32.44,32.44,0,0,0,6.29,1.63l2.43,1a1.62,1.62,0,0,1-.73-1,1.53,1.53,0,0,1,.11-1.08c.31-.56.8-.47,1-.94s0-.54-.13-1.32a4.17,4.17,0,0,1,.19-2.12c.32-.76.77-.84.8-1.39a1.7,1.7,0,0,0-.63-1.25c-4.8-1.36-8.2-4-11.06-4.4-.73-.11-7.07-2.64-6.24-5,.46-1.32,2.74-1.65,3.45-1.75,2.64-.37,4.45.75,8.47,2.46,3.65,1.55,5.47,2.39,6.55,2.47,7,.47,12-1.37,11.37-4.79Z" style="fill:#fdc"/><path d="M98.32,229.82c.07-.06-.47-.51-.5-1.23,0-1,.89-1.36.79-1.93-.13-.73-1.82-.81-4.28-1.4-2.78-.67-4.55-1.53-4.6-1.4s1,.48,2.67,1.46a24.12,24.12,0,0,1,3.12,2C97.09,228.61,98.2,229.92,98.32,229.82Z" style="fill:#f7d1c4"/><path d="M117.7,202.45c.23.57.77.71,1,1.29a6.25,6.25,0,0,1,.3,1.7,5.44,5.44,0,0,1-.88,3.34c-.81,1-2,.95-4,1.14A41.6,41.6,0,0,0,104,212.28a20.87,20.87,0,0,0-3.38,1.77,3.17,3.17,0,0,0-.93,2.33,2.78,2.78,0,0,0,.29,1.06c-4.8-1.36-8.2-4-11.06-4.4-.73-.11-7.07-2.64-6.24-5,.46-1.32,2.74-1.65,3.45-1.75,2.64-.37,4.45.75,8.47,2.46,3.65,1.55,5.47,2.39,6.55,2.47,7,.47,11-1,11.3-4.32-.58,0-2.19-2.35-2.19-2.35-1.11-1.5-5.18,2.25-6.2,3.25-2.56,2.5-7.49-1.82-3.79-5.32,1.67-1.58,9.29-5.55,9.29-5.55C112.3,197.33,115.35,199.7,117.7,202.45Z" style="fill:#efc0af"/><rect x="206.76" y="156.17" width="19.94" height="90.47" rx="8.35" ry="8.35" transform="translate(480.5 335.44) rotate(164.04)" style="fill:#ef5350"/><polygon points="104.54 209.24 107.62 196.9 99 197.34 97.59 207.17 103.34 210.17 104.54 209.24" style="fill:#ef5350"/><path d="M193.6,298.44l-.5-10.28A31.16,31.16,0,0,1,177.85,253H155.43v0H134.06a31.16,31.16,0,0,1-15.25,35.11l-.5,10.28h75.3Z" style="fill:#e53935"/><path d="M119.16,151c6,5.9,13.44,14.35,9.62,23.31-1.65,3.88-4.15,7.29-5.53,11.32a34.63,34.63,0,0,0-1.52,14.55c.25,2.64,4.93,1,4.71-1.44a31.56,31.56,0,0,1,3.86-18.37c1.8-3.34,3.87-6.58,4.27-10.44.91-8.79-5.9-16.42-11.67-22.13-1.71-1.69-5.66,1.31-3.74,3.21Z" style="fill:#ef9a9a"/><polygon points="181.69 301.91 204.57 301.91 207.41 249.24 164.25 301.91 181.69 301.91" style="fill:#757575;opacity:0.4"/><path d="M190.47,145.54c-1.52,7.33-1.92,14.74,0,22,1,3.87,3,7.49,3.74,11.41,1.07,5.71-.61,11.41-3.36,16.38-.94,1.69,1.93,5.71,2.93,3.91,3.89-7,5.47-14.77,3-22.56-1.2-3.84-2.92-7.43-3.61-11.43a44.26,44.26,0,0,1,.65-16.63c.37-1.78-2.83-5.51-3.32-3.14Z" style="fill:#ef9a9a"/><path d="M2.42,217H73.29a2.42,2.42,0,0,0,2.42-2.42V140.93L60,122.57H2.42A2.42,2.42,0,0,0,0,125v89.61A2.42,2.42,0,0,0,2.42,217Z" style="fill:#fff9c4"/><path d="M62.38,140.93H75.71L60,122.57v16A2.42,2.42,0,0,0,62.38,140.93Z" style="fill:#fdd835"/><text transform="translate(26.76 193.5)" style="font-size:60px;fill:#fbc02d;font-family:MyriadPro-Regular, Myriad Pro">?</text><path d="M224,347.31h68.14a2.32,2.32,0,0,0,2.32-2.32V274.17l-15.14-17.66H224a2.32,2.32,0,0,0-2.32,2.32V345A2.32,2.32,0,0,0,224,347.31Z" style="fill:#ffcdd2"/><path d="M281.6,274.17h12.81l-15.14-17.66v15.34A2.32,2.32,0,0,0,281.6,274.17Z" style="fill:#ef5350"/><text transform="translate(246.76 321.02)" style="font-size:60px;fill:#c6302b;font-family:MyriadPro-Regular, Myriad Pro">?</text><path d="M232.39,116.09h70.87a2.42,2.42,0,0,0,2.42-2.42V40L289.94,21.65H232.39A2.42,2.42,0,0,0,230,24.07v89.61A2.42,2.42,0,0,0,232.39,116.09Z" style="fill:#dcedc8"/><path d="M292.36,40h13.33L289.94,21.65v16A2.42,2.42,0,0,0,292.36,40Z" style="fill:#9ccc65"/><text transform="translate(256.02 90.8)" style="font-size:60px;fill:#439934;font-family:MyriadPro-Regular, Myriad Pro">?</text></g></g></svg>