<?xml version="1.0" encoding="UTF-8"?>
<svg width="128px" height="127px" viewBox="0 0 128 127" version="1.1" xmlns="http://www.w3.org/2000/svg" xmlns:xlink="http://www.w3.org/1999/xlink">
    <!-- Generator: Sketch 50.2 (55047) - http://www.bohemiancoding.com/sketch -->
    <title>Untitled 2</title>
    <desc>Created with Sketch.</desc>
    <defs>
        <circle id="path-1" cx="59.5" cy="59.5" r="59.5"></circle>
        <filter x="-5.5%" y="-4.6%" width="110.9%" height="110.9%" filterUnits="objectBoundingBox" id="filter-2">
            <feOffset dx="0" dy="1" in="SourceAlpha" result="shadowOffsetOuter1"></feOffset>
            <feGaussianBlur stdDeviation="2" in="shadowOffsetOuter1" result="shadowBlurOuter1"></feGaussianBlur>
            <feColorMatrix values="0 0 0 0 0   0 0 0 0 0   0 0 0 0 0  0 0 0 0.24 0" type="matrix" in="shadowBlurOuter1"></feColorMatrix>
        </filter>
        <filter x="-3.8%" y="-4.4%" width="107.7%" height="108.8%" filterUnits="objectBoundingBox" id="filter-3">
            <feOffset dx="0" dy="0" in="SourceAlpha" result="shadowOffsetOuter1"></feOffset>
            <feGaussianBlur stdDeviation="1" in="shadowOffsetOuter1" result="shadowBlurOuter1"></feGaussianBlur>
            <feColorMatrix values="0 0 0 0 0   0 0 0 0 0   0 0 0 0 0  0 0 0 0.42 0" type="matrix" in="shadowBlurOuter1" result="shadowMatrixOuter1"></feColorMatrix>
            <feMerge>
                <feMergeNode in="shadowMatrixOuter1"></feMergeNode>
                <feMergeNode in="SourceGraphic"></feMergeNode>
            </feMerge>
        </filter>
    </defs>
    <g id="Page-1" stroke="none" stroke-width="1" fill="none" fill-rule="evenodd">
        <g id="Group-17" transform="translate(4.000000, 3.000000)">
            <g id="Group-14" transform="translate(0.500000, 0.000000)">
                <g id="Oval-6">
                    <use fill="black" fill-opacity="1" filter="url(#filter-2)" xlink:href="#path-1"></use>
                    <use fill="#EEEEEE" fill-rule="evenodd" xlink:href="#path-1"></use>
                </g>
                <g id="order" filter="url(#filter-3)" transform="translate(21.000000, 26.000000)" fill-rule="nonzero">
                    <polygon id="Shape" fill="#8A6744" points="60 0 65 0 65 5 60 5"></polygon>
                    <polygon id="Shape" fill="#FFAA20" points="78 23 73.6236822 23 73.6236822 11.4964871 68 11.4964871 68 7 78 7"></polygon>
                    <polygon id="Shape" fill="#644B31" points="62 0 64 0 64 5 62 5"></polygon>
                    <polygon id="Shape" fill="#FF633E" points="70 4 70 61.0913701 66.5898111 68 58.4101889 68 55 61.0913701 55 4"></polygon>
                    <polygon id="Shape" fill="#E70020" points="70 4 70 61.0913701 66.3620365 68 62 68 62 4"></polygon>
                    <polygon id="Shape" fill="#DFCDBD" points="0 0 50 0 50 68 0 68"></polygon>
                    <polygon id="Shape" fill="#C8AD92" points="25 0 50 0 50 68 25 68"></polygon>
                    <polygon id="Shape" fill="#8A6744" points="70 53 70 61.1555923 66.5898111 68 58.4101889 68 55 61.1555923 55 53"></polygon>
                    <polygon id="Shape" fill="#FF633E" points="12.5337219 20 8 14.5922223 11.4324836 11.7281869 12.9951931 13.5923967 17.0132557 10 20 13.3244202"></polygon>
                    <polygon id="Shape" fill="#644B31" points="27 14 43 14 43 19 27 19"></polygon>
                    <polygon id="Shape" fill="#FF633E" points="12.5337219 33 8 27.5922222 11.4324836 24.7281869 12.9951931 26.5923966 17.0132557 23 20 26.3244201"></polygon>
                    <polygon id="Shape" fill="#644B31" points="27 26 43 26 43 31 27 31"></polygon>
                    <polygon id="Shape" fill="#FF633E" points="12.5337219 45 8 39.5928036 11.4324836 36.7281869 12.9951931 38.5923967 17.0132557 35 20 38.3244202"></polygon>
                    <polygon id="Shape" fill="#644B31" points="27 38 43 38 43 43 27 43"></polygon>
                    <polygon id="Shape" fill="#644B31" points="27 50 43 50 43 55 27 55"></polygon>
                    <polygon id="Shape" fill="#DFCDBD" points="55 19 70 19 70 24 55 24"></polygon>
                    <polygon id="Shape" fill="#C8AD92" points="62 19 70 19 70 24 62 24"></polygon>
                    <polygon id="Shape" fill="#644B31" points="62 53 70 53 70 61.1555923 66.3620365 68 62 68"></polygon>
                </g>
            </g>
        </g>
    </g>
</svg>