<?xml version="1.0" encoding="UTF-8"?>
<svg width="127px" height="127px" viewBox="0 0 127 127" version="1.1" xmlns="http://www.w3.org/2000/svg" xmlns:xlink="http://www.w3.org/1999/xlink">
    <!-- Generator: Sketch 50.2 (55047) - http://www.bohemiancoding.com/sketch -->
    <title>Untitled 2</title>
    <desc>Created with Sketch.</desc>
    <defs>
        <circle id="path-1" cx="59.5" cy="59.5" r="59.5"></circle>
        <filter x="-5.5%" y="-4.6%" width="110.9%" height="110.9%" filterUnits="objectBoundingBox" id="filter-2">
            <feOffset dx="0" dy="1" in="SourceAlpha" result="shadowOffsetOuter1"></feOffset>
            <feGaussianBlur stdDeviation="2" in="shadowOffsetOuter1" result="shadowBlurOuter1"></feGaussianBlur>
            <feColorMatrix values="0 0 0 0 0   0 0 0 0 0   0 0 0 0 0  0 0 0 0.24 0" type="matrix" in="shadowBlurOuter1"></feColorMatrix>
        </filter>
        <filter x="-3.7%" y="-3.7%" width="107.4%" height="107.4%" filterUnits="objectBoundingBox" id="filter-3">
            <feOffset dx="0" dy="0" in="SourceAlpha" result="shadowOffsetOuter1"></feOffset>
            <feGaussianBlur stdDeviation="1" in="shadowOffsetOuter1" result="shadowBlurOuter1"></feGaussianBlur>
            <feColorMatrix values="0 0 0 0 0   0 0 0 0 0   0 0 0 0 0  0 0 0 0.416355299 0" type="matrix" in="shadowBlurOuter1" result="shadowMatrixOuter1"></feColorMatrix>
            <feMerge>
                <feMergeNode in="shadowMatrixOuter1"></feMergeNode>
                <feMergeNode in="SourceGraphic"></feMergeNode>
            </feMerge>
        </filter>
    </defs>
    <g id="Page-1" stroke="none" stroke-width="1" fill="none" fill-rule="evenodd">
        <g id="Group-19" transform="translate(4.000000, 3.000000)">
            <g id="Group-15">
                <g id="Oval-6">
                    <use fill="black" fill-opacity="1" filter="url(#filter-2)" xlink:href="#path-1"></use>
                    <use fill="#EEEEEE" fill-rule="evenodd" xlink:href="#path-1"></use>
                </g>
                <g id="cash" filter="url(#filter-3)" transform="translate(19.000000, 19.000000)" fill-rule="nonzero">
                    <rect id="Rectangle-path" fill="#31978C" transform="translate(41.500000, 33.500000) rotate(149.650359) translate(-41.500000, -33.500000) " x="7" y="16" width="69" height="35"></rect>
                    <path d="M58.3042675,8 L11.3984228,35.5271694 C12.4186331,37.2734875 11.7923056,39.5418687 10,40.5936842 L20.6026791,58.7428604 C22.3951479,57.6910448 24.6753589,58.2536819 25.695406,60 L72.601414,32.4728306 C71.5812036,30.7265125 72.2072047,28.4582949 74,27.4063158 L63.3969945,9.25713962 C61.6043624,10.3092824 59.3244779,9.7463181 58.3042675,8 Z" id="Shape" fill="#44C4A1"></path>
                    <g id="Group" transform="translate(27.000000, 18.000000)" fill="#31978C">
                        <ellipse id="Oval" transform="translate(14.299712, 15.870030) rotate(-120.349641) translate(-14.299712, -15.870030) " cx="14.2997116" cy="15.8700301" rx="11.9256195" ry="9.5321088"></ellipse>
                        <ellipse id="Oval" cx="37.3243902" cy="2.23081779" rx="2.13121951" ry="2.15629268"></ellipse>
                    </g>
                    <circle id="Oval" fill="#3EA69B" cx="18" cy="47" r="2"></circle>
                    <path d="M45.7687293,42 L44.9142158,40.5676434 C42.9780664,41.4346843 40.9126669,41.6642889 38.7202935,41.2559788 L39.1613694,38.7103826 C40.8503993,39.0220003 42.3414083,38.928499 43.6386235,38.4295596 L41.367562,34.6229727 C39.6504061,35.1357937 38.2701131,35.3050852 37.227171,35.1314856 C36.1842288,34.9578859 35.3251631,34.3054513 34.650299,33.1741816 C33.9754349,32.0429118 33.8252122,30.8865915 34.2025573,29.702827 C34.5803902,28.5197008 35.3958848,27.524694 36.6503418,26.7160516 L36.064896,25.7349264 L37.3437399,25 L37.9405662,26.0004317 C39.4692934,25.2634311 41.1479183,24.9570788 42.9774161,25.0829704 L42.7543581,27.6351085 C41.5073797,27.52613 40.3293346,27.693826 39.2164836,28.1393133 L41.416986,31.827827 L41.4771401,31.7932028 C43.2207963,31.2661811 44.6314915,31.0965704 45.7092255,31.2845303 C46.7890731,31.4723307 47.6697617,32.1391256 48.352267,33.28316 C49.03526,34.4279922 49.1783293,35.5980346 48.7804992,36.7915321 C48.3836447,37.9866252 47.5258796,39.0058849 46.2047653,39.8529809 L47.0474106,41.2652331 L45.7687293,42 Z M36.8023529,30.1459209 C36.6376607,30.6351273 36.6870846,31.0988042 36.9485111,31.5371114 C37.2099376,31.9754186 37.5502148,32.245232 37.9688549,32.3465517 C38.3865195,32.4496264 39.0402483,32.4030354 39.9276027,32.2094909 L37.9023602,28.814884 C37.3334974,29.2125038 36.9667199,29.6559168 36.8023529,30.1459209 Z M46.1441235,36.3305677 C46.3375921,35.8163106 46.2984106,35.3294977 46.0251159,34.8712457 C45.7521463,34.4137915 45.3891081,34.1347237 44.9361639,34.0346805 C44.481594,33.9355947 43.7849443,33.9983012 42.8455648,34.2218426 L44.9522592,37.7530316 C45.55315,37.3209472 45.9495168,36.8465798 46.1441235,36.3305677 Z" id="Shape" fill="#44C4A1"></path>
                    <rect id="Rectangle-path" fill="#F6C358" transform="translate(41.500000, 33.500000) rotate(149.650359) translate(-41.500000, -33.500000) " x="35" y="16" width="13" height="35"></rect>
                    <g id="Group" transform="translate(28.000000, 16.000000)" fill="#FFFFFF">
                        <rect id="Rectangle-path" transform="translate(9.378260, 20.421602) rotate(149.650359) translate(-9.378260, -20.421602) " x="8.86661684" y="3.07530218" width="1.02328653" height="34.6925996"></rect>
                        <rect id="Rectangle-path" transform="translate(18.332123, 15.230168) rotate(149.650359) translate(-18.332123, -15.230168) " x="17.8204801" y="-2.11613158" width="1.02328653" height="34.6925996"></rect>
                    </g>
                    <rect id="Rectangle-path" fill="#3EA69B" transform="translate(41.500000, 45.500000) rotate(169.117070) translate(-41.500000, -45.500000) " x="7" y="28" width="69" height="35"></rect>
                    <path d="M12.6948576,63.9944641 L8,39.1742091 C9.34941725,38.9106996 10.2329932,37.5855811 9.97367053,36.2143772 L67.3923383,25 C67.651661,26.3712039 68.9558871,27.2690453 70.3051424,27.0055359 L75,51.8257909 C73.6505827,52.0893004 72.7670068,53.4144189 73.0263295,54.7856228 L15.6076617,66 C15.348339,64.6287961 14.0442749,63.7307901 12.6948576,63.9944641 Z" id="Shape" fill="#44C4A1"></path>
                    <g id="Group" transform="translate(13.000000, 32.000000)" fill="#3EA69B">
                        <ellipse id="Oval" transform="translate(28.484580, 13.667273) rotate(-100.882930) translate(-28.484580, -13.667273) " cx="28.4845805" cy="13.6672731" rx="11.978618" ry="9.45207129"></ellipse>
                        <ellipse id="Oval" cx="54.8054772" cy="8.61545203" rx="2.14082747" ry="2.13832358"></ellipse>
                        <ellipse id="Oval" cx="2.16679768" cy="18.7218737" rx="2.14082747" ry="2.13832358"></ellipse>
                    </g>
                    <path d="M42.5389743,55 L42.2215519,53.3513697 C40.1131104,53.5376173 38.0987798,53.0731281 36.180824,51.9582247 L37.4542328,49.6766107 C38.9328423,50.5326396 40.3626176,50.9369293 41.7476013,50.8902867 L40.9038366,46.508626 C39.1204175,46.4295434 37.7689063,46.1341941 36.8494647,45.6235464 C35.9300231,45.1128987 35.3449827,44.2065152 35.0941818,42.9042344 C34.8433809,41.6021151 35.0932116,40.4497685 35.8469079,39.4455808 C36.6007659,38.4423614 37.7016379,37.7632194 39.151141,37.4070248 L38.9336509,36.2775961 L40.3810518,36 L40.6027462,37.1515396 C42.2852628,36.9544787 43.9629284,37.2178722 45.6359045,37.9431726 L44.5646241,40.3032236 C43.4320584,39.7867658 42.2707096,39.556942 41.0768585,39.6134296 L41.8944274,43.8590359 L41.9625042,43.845963 C43.7755149,43.9203653 45.1556475,44.2253982 46.102902,44.7612232 C47.0520968,45.2976938 47.6526607,46.224897 47.9062105,47.5418645 C48.1599221,48.859639 47.8989339,50.0227989 47.1227609,51.0292461 C46.3469113,52.0376301 45.1981753,52.7258102 43.6731571,53.09653 L43.9862136,54.7222425 L42.5389743,55 Z M38.1351629,40.7286558 C37.8154767,41.1406923 37.7051954,41.59921 37.802217,42.1037248 C37.8994004,42.6082395 38.1272395,42.9781525 38.4855727,43.2133022 C38.8422888,43.449743 39.4713123,43.6216267 40.3687624,43.7307284 L39.616198,39.8232406 C38.9485275,40.0141686 38.4546874,40.3156509 38.1351629,40.7286558 Z M44.8060463,49.7176046 C45.1611454,49.2912041 45.2888905,48.8139647 45.1873412,48.2865322 C45.0859536,47.7599066 44.8396804,47.3736929 44.4486833,47.1283755 C44.0559074,46.8835422 43.3814454,46.7127883 42.4251356,46.6151455 L43.2079384,50.6798301 C43.9173282,50.4664685 44.4493301,50.1452962 44.8060463,49.7176046 Z" id="Shape" fill="#44C4A1"></path>
                    <path d="M28,74.9494547 C28,78.2909784 21.73204,81 14,81 C6.26795999,81 0,78.2909784 0,74.9494547 L0,70 L28,70 L28,74.9494547 Z" id="Shape" fill="#F6C358"></path>
                    <ellipse id="Oval" fill="#FCD462" cx="14" cy="71" rx="14" ry="6"></ellipse>
                    <g id="Group" transform="translate(2.000000, 66.000000)" fill="#DC8744">
                        <path d="M12.2647433,0.146829268 C5.57342668,0.146829268 0.148900933,2.21133777 0.148900933,4.75812639 C0.148900933,7.304915 5.57342668,9.3694235 12.2647433,9.3694235 C18.9560599,9.3694235 24.3805857,7.304915 24.3805857,4.75812639 C24.3805857,2.21133777 18.9560599,0.146829268 12.2647433,0.146829268 Z M12.2647433,8.85695122 C6.31696025,8.85695122 1.49515959,7.02174427 1.49515959,4.75796748 C1.49515959,2.49419069 6.31696025,0.65898374 12.2647433,0.65898374 C18.2125263,0.65898374 23.034327,2.49419069 23.034327,4.75796748 C23.034327,7.02190318 18.2125263,8.85695122 12.2647433,8.85695122 Z" id="Shape"></path>
                        <path d="M11.8211156,7.94355876 L11.8211156,7.3824612 C9.97571515,7.31079453 8.31919226,7.03159645 6.85348916,6.54502587 L8.32744655,5.87650776 C9.4579607,6.2505728 10.621492,6.4732003 11.8211156,6.54502587 L11.8211156,5.05400961 C10.2994128,4.91576127 9.18524541,4.73381375 8.47861337,4.50832594 C7.77198133,4.28283814 7.41866531,3.94849963 7.41866531,3.50546933 C7.41866531,3.06228012 7.8245822,2.69997413 8.63965297,2.41775684 C9.45472373,2.13601626 10.5146718,1.98251293 11.8211156,1.95677014 L11.8211156,1.5723762 L13.1126694,1.5723762 L13.1126694,1.96423873 C14.5932626,2.00555432 15.9934169,2.19751293 17.3129705,2.54090909 L16.0000527,3.24804139 C15.111017,3.0072986 14.1496349,2.85872136 13.1128312,2.80215078 L13.1128312,4.24692535 L13.1736864,4.24692535 C14.7216087,4.3854915 15.8587587,4.57252402 16.5851363,4.80786401 C17.3131323,5.04368071 17.6763211,5.38580562 17.6763211,5.83392092 C17.6763211,6.28235403 17.258913,6.64767923 16.4240967,6.929102 C15.5892803,7.21116038 14.4866042,7.36466371 13.1128312,7.3904065 L13.1128312,7.94355876 L11.8211156,7.94355876 Z M10.3963603,2.98298596 C10.052917,3.098034 9.88200467,3.24168514 9.88200467,3.41330377 C9.88200467,3.58492239 10.0168248,3.72078714 10.2863031,3.82042129 C10.5541629,3.92053215 11.0669,4.01651146 11.8211156,4.10867701 L11.8211156,2.77895048 C11.214668,2.79960828 10.7398035,2.8676201 10.3963603,2.98298596 Z M14.6474819,6.35274945 C15.0237805,6.23515891 15.2128199,6.08658167 15.2128199,5.90717664 C15.2128199,5.72793052 15.0648901,5.58570953 14.7691923,5.48067258 C14.4717141,5.37563562 13.9196477,5.27711382 13.1128312,5.18478936 L13.1128312,6.56790835 C13.7584463,6.54264228 14.2695649,6.4706578 14.6474819,6.35274945 Z" id="Shape"></path>
                    </g>
                    <path d="M28,69.9494547 C28,73.2909784 21.73204,76 14,76 C6.26795999,76 0,73.2911462 0,69.9494547 L0,65 L28,65 L28,69.9494547 Z" id="Shape" fill="#F6C358"></path>
                    <ellipse id="Oval" fill="#FCD462" cx="14" cy="65" rx="14" ry="6"></ellipse>
                    <g id="Group" transform="translate(2.000000, 60.000000)" fill="#DC8744">
                        <path d="M12.2647433,0.0150960828 C5.57342668,0.0150960828 0.148900933,2.07960458 0.148900933,4.6263932 C0.148900933,7.17318182 5.57342668,9.23769032 12.2647433,9.23769032 C18.9560599,9.23769032 24.3805857,7.17318182 24.3805857,4.6263932 C24.3805857,2.07960458 18.9560599,0.0150960828 12.2647433,0.0150960828 Z M12.2647433,8.72521803 C6.31696025,8.72521803 1.49515959,6.89001109 1.49515959,4.62623429 C1.49515959,2.3624575 6.31696025,0.527250554 12.2647433,0.527250554 C18.2125263,0.527250554 23.034327,2.3624575 23.034327,4.62623429 C23.034327,6.89016999 18.2125263,8.72521803 12.2647433,8.72521803 Z" id="Shape"></path>
                        <path d="M11.8211156,7.81182557 L11.8211156,7.25072801 C9.97571515,7.17906135 8.31919226,6.89986327 6.85348916,6.41329268 L8.32744655,5.74477458 C9.4579607,6.11883962 10.621492,6.34146711 11.8211156,6.41329268 L11.8211156,4.92227642 C10.2994128,4.78402809 9.18524541,4.60208056 8.47861337,4.37659276 C7.77198133,4.15110495 7.41866531,3.81676644 7.41866531,3.37373614 C7.41866531,2.93054693 7.8245822,2.56824095 8.63965297,2.28602365 C9.45472373,2.00428307 10.5146718,1.85077975 11.8211156,1.82503695 L11.8211156,1.44064302 L13.1126694,1.44064302 L13.1126694,1.83250554 C14.5932626,1.87382114 15.9934169,2.06577975 17.3129705,2.40917591 L16.0000527,3.1163082 C15.111017,2.87556541 14.1496349,2.72698817 13.1128312,2.67041759 L13.1128312,4.11519217 L13.1736864,4.11519217 C14.7216087,4.25375831 15.8587587,4.44079084 16.5851363,4.67628973 C17.3131323,4.91210643 17.6763211,5.25423134 17.6763211,5.70234664 C17.6763211,6.15077975 17.258913,6.51610495 16.4240967,6.79752772 C15.5892803,7.0795861 14.4866042,7.23308943 13.1128312,7.25883222 L13.1128312,7.81198448 L11.8211156,7.81198448 L11.8211156,7.81182557 Z M10.3963603,2.85125277 C10.052917,2.96630081 9.88200467,3.10995196 9.88200467,3.28157058 C9.88200467,3.45318921 10.0168248,3.58905395 10.2863031,3.6886881 C10.5541629,3.78879897 11.0669,3.88477827 11.8211156,3.97694383 L11.8211156,2.64721729 C11.214668,2.668034 10.7398035,2.73588692 10.3963603,2.85125277 Z M14.6474819,6.22101626 C15.0237805,6.10342572 15.2128199,5.95484848 15.2128199,5.77544346 C15.2128199,5.59619734 15.0648901,5.45397635 14.7691923,5.34893939 C14.4717141,5.24390244 13.9196477,5.14538064 13.1128312,5.05305617 L13.1128312,6.43617517 C13.7584463,6.41090909 14.2695649,6.33892461 14.6474819,6.22101626 Z" id="Shape"></path>
                    </g>
                    <path d="M28,63.9494547 C28,67.2909784 21.73204,70 14,70 C6.26795999,70 0,67.2911462 0,63.9494547 L0,59 L28,59 L28,63.9494547 Z" id="Shape" fill="#F6C358"></path>
                    <ellipse id="Oval" fill="#FCD462" cx="14" cy="59" rx="14" ry="6"></ellipse>
                    <g id="Group" transform="translate(2.000000, 54.000000)" fill="#DC8744">
                        <path d="M12.2647433,0.0422690318 C5.57342668,0.0422690318 0.148900933,2.10677753 0.148900933,4.65356615 C0.148900933,7.20035477 5.57342668,9.26486327 12.2647433,9.26486327 C18.9560599,9.26486327 24.3805857,7.20035477 24.3805857,4.65356615 C24.3805857,2.10677753 18.9560599,0.0422690318 12.2647433,0.0422690318 Z M12.2647433,8.75254989 C6.31696025,8.75254989 1.49515959,6.91734294 1.49515959,4.65356615 C1.49515959,2.38978936 6.31696025,0.554582409 12.2647433,0.554582409 C18.2125263,0.554582409 23.034327,2.38978936 23.034327,4.65356615 C23.034327,6.91734294 18.2125263,8.75254989 12.2647433,8.75254989 Z" id="Shape"></path>
                        <path d="M11.8211156,7.83915743 L11.8211156,7.27805987 C9.97571515,7.2063932 8.31919226,6.92719512 6.85348916,6.44062454 L8.32744655,5.77210643 C9.4579607,6.14617147 10.621492,6.36879897 11.8211156,6.44062454 L11.8211156,4.94960828 C10.2994128,4.81135994 9.18524541,4.62941242 8.47861337,4.40392461 C7.77198133,4.17843681 7.41866531,3.8440983 7.41866531,3.401068 C7.41866531,2.95803769 7.8245822,2.5955728 8.63965297,2.31335551 C9.45472373,2.03161493 10.5146718,1.8781116 11.8211156,1.85236881 L11.8211156,1.46797487 L13.1126694,1.46797487 L13.1126694,1.8598374 C14.5932626,1.90115299 15.9934169,2.0931116 17.3129705,2.43650776 L16.0000527,3.14364006 C15.111017,2.90289727 14.1496349,2.75432003 13.1128312,2.69774945 L13.1128312,4.14252402 L13.1736864,4.14252402 C14.7216087,4.28109017 15.8587587,4.46812269 16.5851363,4.70362158 C17.3131323,4.93943829 17.6763211,5.28156319 17.6763211,5.72967849 C17.6763211,6.1781116 17.258913,6.54343681 16.4240967,6.82485957 C15.5892803,7.10691796 14.4866042,7.26042129 13.1128312,7.28616408 L13.1128312,7.83931633 L11.8211156,7.83931633 L11.8211156,7.83915743 Z M10.3963603,2.87842572 C10.052917,2.99347376 9.88200467,3.13712491 9.88200467,3.30874353 C9.88200467,3.48036216 10.0168248,3.616068 10.2863031,3.71586105 C10.5541629,3.81597191 11.0669,3.91195122 11.8211156,4.00411678 L11.8211156,2.67439024 C11.214668,2.69520695 10.7398035,2.76305987 10.3963603,2.87842572 Z M14.6474819,6.24834812 C15.0237805,6.13075758 15.2128199,5.98218034 15.2128199,5.80277531 C15.2128199,5.62352919 15.0648901,5.4813082 14.7691923,5.37627125 C14.4717141,5.27123429 13.9196477,5.17271249 13.1128312,5.08038803 L13.1128312,6.46350702 C13.7584463,6.43808204 14.2695649,6.36609756 14.6474819,6.24834812 Z" id="Shape"></path>
                    </g>
                    <path d="M28,57.9494547 C28,61.2909784 21.73204,64 14,64 C6.26795999,64 0,61.2911462 0,57.9494547 L0,53 L28,53 L28,57.9494547 Z" id="Shape" fill="#F6C358"></path>
                    <ellipse id="Oval" fill="#FCD462" cx="14" cy="53" rx="14" ry="6"></ellipse>
                    <g id="Group" transform="translate(2.000000, 48.000000)" fill="#DC8744">
                        <path d="M12.2647433,0.0694419808 C5.57342668,0.0694419808 0.148900933,2.13395048 0.148900933,4.6807391 C0.148900933,7.22752772 5.57342668,9.29203622 12.2647433,9.29203622 C18.9560599,9.29203622 24.3805857,7.22752772 24.3805857,4.6807391 C24.3805857,2.13395048 18.9560599,0.0694419808 12.2647433,0.0694419808 Z M12.2647433,8.77972284 C6.31696025,8.77972284 1.49515959,6.94451589 1.49515959,4.6807391 C1.49515959,2.41696231 6.31696025,0.581755358 12.2647433,0.581755358 C18.2125263,0.581755358 23.034327,2.41696231 23.034327,4.6807391 C23.034327,6.94451589 18.2125263,8.77972284 12.2647433,8.77972284 Z" id="Shape"></path>
                        <path d="M11.8211156,7.86633038 L11.8211156,7.30523282 C9.97571515,7.23356615 8.31919226,6.95436807 6.85348916,6.46779749 L8.32744655,5.79912047 C9.4579607,6.17318551 10.621492,6.39581301 11.8211156,6.46779749 L11.8211156,4.97678123 C10.2994128,4.83853289 9.18524541,4.65658537 8.47861337,4.43109756 C7.77198133,4.20560976 7.41866531,3.87127125 7.41866531,3.42824095 C7.41866531,2.98521064 7.8245822,2.62274575 8.63965297,2.34052846 C9.45472373,2.05878788 10.5146718,1.90528455 11.8211156,1.87954176 L11.8211156,1.49514782 L13.1126694,1.49514782 L13.1126694,1.88701035 C14.5932626,1.92832594 15.9934169,2.12028455 17.3129705,2.46368071 L16.0000527,3.17081301 C15.111017,2.93007021 14.1496349,2.78149298 13.1128312,2.72492239 L13.1128312,4.16969697 L13.1736864,4.16969697 C14.7216087,4.30826312 15.8587587,4.49529564 16.5851363,4.73079453 C17.3131323,4.96661123 17.6763211,5.30873614 17.6763211,5.75685144 C17.6763211,6.20528455 17.258913,6.57060976 16.4240967,6.85203252 C15.5892803,7.13409091 14.4866042,7.28759424 13.1128312,7.31333703 L13.1128312,7.86648928 L11.8211156,7.86648928 L11.8211156,7.86633038 Z M10.3963603,2.90559867 C10.052917,3.02064671 9.88200467,3.16429786 9.88200467,3.33591648 C9.88200467,3.50753511 10.0168248,3.64324095 10.2863031,3.743034 C10.5541629,3.84314486 11.0669,3.93912417 11.8211156,4.03128973 L11.8211156,2.70156319 C11.214668,2.7223799 10.7398035,2.79023282 10.3963603,2.90559867 Z M14.6474819,6.27552106 C15.0237805,6.15793052 15.2128199,6.00935329 15.2128199,5.82994826 C15.2128199,5.65070214 15.0648901,5.50848115 14.7691923,5.4034442 C14.4717141,5.29840724 13.9196477,5.19988544 13.1128312,5.10756098 L13.1128312,6.49067997 C13.7584463,6.46525499 14.2695649,6.39342942 14.6474819,6.27552106 Z" id="Shape"></path>
                    </g>
                    <path d="M57,74.9494547 C57,78.2909784 50.73204,81 43,81 C35.26796,81 29,78.2911462 29,74.9494547 L29,70 L57,70 L57,74.9494547 Z" id="Shape" fill="#F6C358"></path>
                    <ellipse id="Oval" fill="#FCD462" cx="43" cy="71" rx="14" ry="6"></ellipse>
                    <g id="Group" transform="translate(31.000000, 66.000000)" fill="#DC8744">
                        <path d="M12.245807,0.146829268 C5.55449036,0.146829268 0.129964619,2.21133777 0.129964619,4.75812639 C0.129964619,7.304915 5.55449036,9.3694235 12.245807,9.3694235 C18.9371236,9.3694235 24.3616494,7.304915 24.3616494,4.75812639 C24.3616494,2.21133777 18.9372855,0.146829268 12.245807,0.146829268 Z M12.245807,8.85695122 C6.29802394,8.85695122 1.47622328,7.02174427 1.47622328,4.75796748 C1.47622328,2.49419069 6.29802394,0.65898374 12.245807,0.65898374 C18.19359,0.65898374 23.0153907,2.49419069 23.0153907,4.75796748 C23.0153907,7.02190318 18.19359,8.85695122 12.245807,8.85695122 Z" id="Shape"></path>
                        <path d="M11.8021793,7.94355876 L11.8021793,7.3824612 C9.95677883,7.31079453 8.30025595,7.03159645 6.83455285,6.54502587 L8.30851024,5.87650776 C9.43902439,6.2505728 10.6025557,6.4732003 11.8021793,6.54502587 L11.8021793,5.05400961 C10.2804765,4.91576127 9.16630909,4.73381375 8.45967706,4.50832594 C7.75304502,4.28283814 7.399729,3.94849963 7.399729,3.50546933 C7.399729,3.06228012 7.80564589,2.69997413 8.62071665,2.41775684 C9.43578741,2.13601626 10.4957355,1.98251293 11.8021793,1.95677014 L11.8021793,1.5723762 L13.0937331,1.5723762 L13.0937331,1.96423873 C14.5743263,2.00555432 15.9744806,2.19751293 17.2940342,2.54090909 L15.9811164,3.24804139 C15.0920807,3.0072986 14.1306986,2.85872136 13.0938949,2.80215078 L13.0938949,4.24692535 L13.1547501,4.24692535 C14.7026724,4.3854915 15.8398223,4.57252402 16.5661999,4.80786401 C17.294196,5.04368071 17.6573848,5.38580562 17.6573848,5.83392092 C17.6573848,6.28235403 17.2399767,6.64767923 16.4051603,6.929102 C15.570344,7.21116038 14.4676679,7.36466371 13.0938949,7.3904065 L13.0938949,7.94355876 L11.8021793,7.94355876 Z M10.377424,2.98298596 C10.0339807,3.098034 9.86306835,3.24168514 9.86306835,3.41330377 C9.86306835,3.58492239 9.99788844,3.72078714 10.2673668,3.82042129 C10.5352266,3.92053215 11.0479637,4.01651146 11.8021793,4.10867701 L11.8021793,2.77895048 C11.1957317,2.79960828 10.7208672,2.8676201 10.377424,2.98298596 Z M14.6287075,6.35274945 C15.005006,6.23515891 15.1940455,6.08658167 15.1940455,5.90717664 C15.1940455,5.72793052 15.0461156,5.58570953 14.7504178,5.48067258 C14.4529396,5.37563562 13.9008732,5.27711382 13.0940568,5.18478936 L13.0940568,6.56790835 C13.7396718,6.54264228 14.2506286,6.4706578 14.6287075,6.35274945 Z" id="Shape"></path>
                    </g>
                    <path d="M57,69.9494547 C57,73.2909784 50.73204,76 43,76 C35.26796,76 29,73.2911462 29,69.9494547 L29,65 L57,65 L57,69.9494547 Z" id="Shape" fill="#F6C358"></path>
                    <ellipse id="Oval" fill="#FCD462" cx="43" cy="65" rx="14" ry="6"></ellipse>
                    <g id="Group" transform="translate(31.000000, 60.000000)" fill="#DC8744">
                        <path d="M12.245807,0.0150960828 C5.55449036,0.0150960828 0.129964619,2.07960458 0.129964619,4.6263932 C0.129964619,7.17318182 5.55449036,9.23769032 12.245807,9.23769032 C18.9371236,9.23769032 24.3616494,7.17318182 24.3616494,4.6263932 C24.3616494,2.07960458 18.9372855,0.0150960828 12.245807,0.0150960828 Z M12.245807,8.72521803 C6.29802394,8.72521803 1.47622328,6.89001109 1.47622328,4.62623429 C1.47622328,2.3624575 6.29802394,0.527250554 12.245807,0.527250554 C18.19359,0.527250554 23.0153907,2.3624575 23.0153907,4.62623429 C23.0153907,6.89016999 18.19359,8.72521803 12.245807,8.72521803 Z" id="Shape"></path>
                        <path d="M11.8021793,7.81182557 L11.8021793,7.25072801 C9.95677883,7.17906135 8.30025595,6.89986327 6.83455285,6.41329268 L8.30851024,5.74477458 C9.43902439,6.11883962 10.6025557,6.34146711 11.8021793,6.41329268 L11.8021793,4.92227642 C10.2804765,4.78402809 9.16630909,4.60208056 8.45967706,4.37659276 C7.75304502,4.15110495 7.399729,3.81676644 7.399729,3.37373614 C7.399729,2.93054693 7.80564589,2.56824095 8.62071665,2.28602365 C9.43578741,2.00428307 10.4957355,1.85077975 11.8021793,1.82503695 L11.8021793,1.44064302 L13.0937331,1.44064302 L13.0937331,1.83250554 C14.5743263,1.87382114 15.9744806,2.06577975 17.2940342,2.40917591 L15.9811164,3.1163082 C15.0920807,2.87556541 14.1306986,2.72698817 13.0938949,2.67041759 L13.0938949,4.11519217 L13.1547501,4.11519217 C14.7026724,4.25375831 15.8398223,4.44079084 16.5661999,4.67628973 C17.294196,4.91210643 17.6573848,5.25423134 17.6573848,5.70234664 C17.6573848,6.15077975 17.2399767,6.51610495 16.4051603,6.79752772 C15.570344,7.0795861 14.4676679,7.23308943 13.0938949,7.25883222 L13.0938949,7.81198448 L11.8021793,7.81198448 L11.8021793,7.81182557 Z M10.377424,2.85125277 C10.0339807,2.96630081 9.86306835,3.10995196 9.86306835,3.28157058 C9.86306835,3.45318921 9.99788844,3.58905395 10.2673668,3.6886881 C10.5352266,3.78879897 11.0479637,3.88477827 11.8021793,3.97694383 L11.8021793,2.64721729 C11.1957317,2.668034 10.7208672,2.73588692 10.377424,2.85125277 Z M14.6287075,6.22101626 C15.005006,6.10342572 15.1940455,5.95484848 15.1940455,5.77544346 C15.1940455,5.59619734 15.0461156,5.45397635 14.7504178,5.34893939 C14.4529396,5.24390244 13.9008732,5.14538064 13.0940568,5.05305617 L13.0940568,6.43617517 C13.7396718,6.41090909 14.2506286,6.33892461 14.6287075,6.22101626 Z" id="Shape"></path>
                    </g>
                </g>
            </g>
        </g>
    </g>
</svg>