<?xml version="1.0" encoding="UTF-8"?>
<svg width="127px" height="127px" viewBox="0 0 127 127" version="1.1" xmlns="http://www.w3.org/2000/svg" xmlns:xlink="http://www.w3.org/1999/xlink">
    <!-- Generator: Sketch 50.2 (55047) - http://www.bohemiancoding.com/sketch -->
    <title>Untitled 2</title>
    <desc>Created with Sketch.</desc>
    <defs>
        <circle id="path-1" cx="59.5" cy="59.5" r="59.5"></circle>
        <filter x="-5.5%" y="-4.6%" width="110.9%" height="110.9%" filterUnits="objectBoundingBox" id="filter-2">
            <feOffset dx="0" dy="1" in="SourceAlpha" result="shadowOffsetOuter1"></feOffset>
            <feGaussianBlur stdDeviation="2" in="shadowOffsetOuter1" result="shadowBlurOuter1"></feGaussianBlur>
            <feColorMatrix values="0 0 0 0 0   0 0 0 0 0   0 0 0 0 0  0 0 0 0.24 0" type="matrix" in="shadowBlurOuter1"></feColorMatrix>
        </filter>
        <filter x="-3.6%" y="-3.0%" width="107.5%" height="106.0%" filterUnits="objectBoundingBox" id="filter-3">
            <feOffset dx="0" dy="0" in="SourceAlpha" result="shadowOffsetOuter1"></feOffset>
            <feGaussianBlur stdDeviation="1" in="shadowOffsetOuter1" result="shadowBlurOuter1"></feGaussianBlur>
            <feColorMatrix values="0 0 0 0 0   0 0 0 0 0   0 0 0 0 0  0 0 0 0.42 0" type="matrix" in="shadowBlurOuter1" result="shadowMatrixOuter1"></feColorMatrix>
            <feMerge>
                <feMergeNode in="shadowMatrixOuter1"></feMergeNode>
                <feMergeNode in="SourceGraphic"></feMergeNode>
            </feMerge>
        </filter>
    </defs>
    <g id="Page-1" stroke="none" stroke-width="1" fill="none" fill-rule="evenodd">
        <g id="Group-16" transform="translate(4.000000, 3.000000)">
            <g id="Oval-6">
                <use fill="black" fill-opacity="1" filter="url(#filter-2)" xlink:href="#path-1"></use>
                <use fill="#EEEEEE" fill-rule="evenodd" xlink:href="#path-1"></use>
            </g>
            <g id="promotion" filter="url(#filter-3)" transform="translate(18.000000, 10.000000)" fill-rule="nonzero">
                <path d="M39.4628392,80.3895616 C39.385595,80.2555324 39.2450939,80.1805846 39.1006263,80.1805846 C39.0300626,80.1805846 38.9584551,80.1985386 38.8926931,80.2363257 C38.6146138,80.3964509 38.2979123,80.4810021 37.9772443,80.4810021 C37.3146138,80.4810021 36.6991649,80.1277662 36.3707724,79.5590814 L35.4336117,77.9356994 C34.9244259,77.0532359 35.2277662,75.9210856 36.1100209,75.411691 C36.3098121,75.2964509 36.3780793,75.0411273 36.2628392,74.8413361 C36.185595,74.7073069 36.0453027,74.6323591 35.9008351,74.6323591 C35.8300626,74.6323591 35.7582463,74.6503132 35.6924843,74.6885177 C35.4139875,74.8492693 35.0966597,74.934238 34.7749478,74.934238 C34.1123173,74.934238 33.4966597,74.5810021 33.1682672,74.0121086 L32.2311065,72.3889353 C31.7219207,71.5066806 32.0250522,70.3743215 32.9070981,69.8649269 C33.1066806,69.7496868 33.1751566,69.4943633 33.0597077,69.294572 C32.9822547,69.1605428 32.8421712,69.0858038 32.6977035,69.0858038 C32.6269311,69.0858038 32.5551148,69.1037578 32.4893528,69.1419624 L31.6022965,69.654071 C31.325261,69.8139875 31.008977,69.8985386 30.6876827,69.8985386 C30.5956159,69.8985386 30.5025052,69.8916493 30.4108559,69.8778706 C30.3903967,69.8749478 30.3697286,69.8734864 30.3494781,69.8734864 C30.2127349,69.8734864 30.082881,69.9409186 30.0043841,70.0561587 C29.9141962,70.1887265 29.9079332,70.3609603 29.9881002,70.4997912 L30.5924843,71.5463466 C31.0951983,72.417119 30.7956159,73.5346555 29.9250522,74.0375783 L27.4409186,75.4718163 C27.1661795,75.6304802 26.8530271,75.714405 26.5356994,75.714405 C25.8816284,75.714405 25.2741127,75.365762 24.9498956,74.8043841 L24.1321503,73.3881002 L23.7784969,73.5922756 L33.02881,89.6141962 L39.102714,86.1075157 C38.9386221,85.9709812 38.7954071,85.8083507 38.6862213,85.6192067 L37.7490605,83.9960334 C37.239666,83.1135699 37.5430063,81.9812109 38.4254697,81.4716075 L39.3104384,80.9607516 C39.5093946,80.8446764 39.5778706,80.5893528 39.4628392,80.3895616 Z" id="Shape" fill="#FFE2B8"></path>
                <path d="M64.8803758,33.2394572 L69.8340292,30.3795407 C70.3311065,30.0924843 70.5031315,29.4509395 70.2160752,28.9536534 L61.6444676,14.1073069 C61.3574113,13.6100209 60.7156576,13.4382046 60.2185804,13.725261 L55.2651357,16.5849687 L64.8803758,33.2394572 Z" id="Shape" fill="#FFFFFF"></path>
                <path d="M24.7841336,63.3227557 C25.4382046,63.3227557 26.0457203,63.6713987 26.3697286,64.2327766 L27.2778706,65.805428 C27.3528184,65.9352818 27.491023,66.0141962 27.6394572,66.0141962 C27.6496868,66.0141962 27.6601253,66.0137787 27.6703549,66.0131524 C27.8302714,66.0012526 27.9691023,65.8989562 28.0277662,65.7498956 C28.182881,65.3565762 28.4559499,65.0384134 28.8173278,64.8298539 L36.2096033,60.5620042 C36.2240084,60.5536534 36.239666,60.5480167 36.2542797,60.5400835 L31.3331942,52.0164927 L21.1202505,57.9129436 L24.2851775,63.3949896 C24.4469729,63.3484342 24.6146138,63.3227557 24.7841336,63.3227557 Z" id="Shape" fill="#445EA0"></path>
                <g id="Group" transform="translate(21.085595, 56.158664)" fill="#293D7C">
                    <path d="M3.69853862,7.16409186 C4.3526096,7.16409186 4.96012526,7.51273486 5.28413361,8.07411273 L6.19227557,9.64676409 C6.26722338,9.77661795 6.40542797,9.85553236 6.55386221,9.85553236 C6.56409186,9.85553236 6.57453027,9.85511482 6.58475992,9.85448852 C6.74467641,9.84258873 6.88350731,9.74029228 6.94217119,9.59123173 C7.09728601,9.19791232 7.37035491,8.87974948 7.73173278,8.67118998 L7.80020877,8.63173278 L2.88100209,0.111064718 L0.0346555324,1.75427975 L3.19958246,7.23632568 C3.36137787,7.18977035 3.52901879,7.16409186 3.69853862,7.16409186 Z" id="Shape"></path>
                    <path d="M16.6628392,27.8363257 C16.1534447,26.9538622 16.456785,25.8215031 17.3392484,25.3118998 L17.4077244,25.2724426 L16.8578288,24.319833 C16.208142,24.3077244 15.6079332,23.9588727 15.2851775,23.4002088 L14.3480167,21.7768267 C14.011691,21.1939457 14.0317328,20.5031315 14.336952,19.9538622 L13.6553236,18.7732777 C13.0058455,18.7611691 12.4052192,18.4125261 12.0824635,17.8534447 L11.1453027,16.2302714 C10.8087683,15.6473904 10.82881,14.9561587 11.134238,14.4068894 L10.5851775,13.4557411 L10.5167015,13.4951983 C10.239666,13.6551148 9.92338205,13.739666 9.60208768,13.739666 C9.51002088,13.739666 9.41691023,13.7327766 9.32526096,13.7189979 C9.30480167,13.7160752 9.28413361,13.7146138 9.26388309,13.7146138 C9.12713987,13.7146138 8.99728601,13.7820459 8.91878914,13.897286 C8.82860125,14.0298539 8.8223382,14.2020877 8.90250522,14.3409186 L9.50688935,15.3874739 C9.93402923,16.1275574 9.78016701,17.0446764 9.19018789,17.6125261 L15.0709812,27.7983299 C15.3580376,28.2954071 15.9997912,28.4674322 16.4968685,28.1803758 L16.7705637,28.022547 L16.6628392,27.8363257 Z" id="Shape"></path>
                </g>
                <path d="M10.9098121,46.9450939 L5.37453027,50.1411273 C4.87745303,50.4281837 4.70542797,51.0697286 4.99248434,51.5670146 L9.44906054,59.2860125 C9.73611691,59.7832985 10.3778706,59.9551148 10.8749478,59.6680585 L16.4104384,56.4722338 L10.9098121,46.9450939 Z" id="Shape" fill="#FFFFFF"></path>
                <path d="M8.11064718,51.0139875 L11.9718163,48.7845511 L10.9098121,46.9450939 L5.37453027,50.1411273 C4.87745303,50.4281837 4.70542797,51.0697286 4.99248434,51.5670146 L9.44906054,59.2860125 C9.73611691,59.7832985 10.3778706,59.9551148 10.8749478,59.6680585 L11.6450939,59.223382 L7.72881002,52.4400835 C7.44154489,51.9427975 7.61356994,51.3010438 8.11064718,51.0139875 Z" id="Shape" fill="#D9EAFC"></path>
                <polygon id="Shape" fill="#FFFFFF" points="43.5008351 8.08935282 25.4526096 35.7052192 33.4156576 49.4979123 66.3559499 47.6755741"></polygon>
                <polygon id="Shape" fill="#D9EAFC" points="43.5008351 8.08935282 25.4526096 35.7052192 27.8812109 39.9118998 45.9294363 12.2958246"></polygon>
                <path d="M34.4200418,49.6206681 C34.7070981,50.1179541 34.5350731,50.759499 34.0379958,51.0465553 L18.9279749,59.7703549 C18.4308977,60.0574113 17.7891441,59.8853862 17.5020877,59.388309 L8.93048017,44.5419624 C8.6434238,44.0448852 8.81544885,43.4031315 9.3125261,43.1160752 L24.422547,34.3922756 C24.9196242,34.1052192 25.5613779,34.2770355 25.8484342,34.7743215 L34.4200418,49.6206681 Z" id="Shape" fill="#FE3745"></path>
                <path d="M12.9665971,45.6553236 C12.6795407,45.1582463 12.8515658,44.5164927 13.348643,44.2294363 L26.8177453,36.4532359 L25.8484342,34.7743215 C25.5613779,34.2770355 24.9196242,34.1052192 24.422547,34.3922756 L9.3125261,43.1160752 C8.81544885,43.4031315 8.6434238,44.0448852 8.93048017,44.5419624 L17.5020877,59.388309 C17.7891441,59.8853862 18.4308977,60.0574113 18.9279749,59.7703549 L20.5688935,58.8229645 L12.9665971,45.6553236 Z" id="Shape" fill="#B7092B"></path>
                <path d="M74.3638831,48.9419624 C74.6509395,49.4392484 74.4789144,50.0807933 73.9818372,50.3678497 L69.888309,52.7311065 C69.3912317,53.0181628 68.7494781,52.8463466 68.4624217,52.3490605 L40.5066806,3.92818372 C40.2196242,3.4308977 40.3916493,2.78935282 40.8887265,2.50229645 L44.9822547,0.139039666 C45.4793319,-0.148016701 46.1210856,0.0237995825 46.408142,0.521085595 L74.3638831,48.9419624 Z" id="Shape" fill="#FE3745"></path>
                <path d="M44.0572025,5.11169102 C43.7701461,4.61440501 43.9421712,3.97286013 44.4392484,3.68580376 L47.2862213,2.04217119 L46.4079332,0.521085595 C46.1208768,0.0237995825 45.4791232,-0.148016701 44.9820459,0.139039666 L40.8885177,2.50229645 C40.3914405,2.78935282 40.2194154,3.4308977 40.5064718,3.92818372 L68.4622129,52.3490605 C68.7492693,52.8463466 69.391023,53.0181628 69.8881002,52.7311065 L71.1344468,52.0114823 L44.0572025,5.11169102 Z" id="Shape" fill="#B7092B"></path>
                <path d="M15.543215,78.939666 L0.0780793319,87.868476 C3.97703549,92.6920668 8.73402923,96.7924843 14.1185804,99.9373695 L24.2795407,94.0709812 L15.543215,78.939666 Z" id="Shape" fill="#D9EAFC"></path>
                <path d="M15.543215,78.939666 L0.0780793319,87.868476 C0.811691023,88.7759916 1.57578288,89.6578288 2.36847599,90.5127349 L17.2609603,81.9146138 L15.543215,78.939666 Z" id="Shape" fill="#AEC1ED"></path>
                <path d="M27.6492693,75.8327766 C26.5818372,76.4490605 25.2041754,76.0799582 24.5878914,75.0123173 L20.3653445,67.6991649 C19.7490605,66.6317328 20.1181628,65.254071 21.185595,64.6375783 L23.6697286,63.2033403 C24.7371608,62.5870564 26.1148225,62.9561587 26.7311065,64.0235908 L30.9536534,71.3367432 C31.5699374,72.4043841 31.2008351,73.7818372 30.1334029,74.3981211 L27.6492693,75.8327766 Z" id="Shape" fill="#FFE2B8"></path>
                <path d="M30.9538622,71.3371608 L26.7313152,64.0240084 C26.3052192,63.2862213 25.5158664,62.8826722 24.7162839,62.9066806 L28.9365344,70.2164927 C29.5528184,71.2839248 29.1837161,72.6615866 28.1162839,73.2780793 L25.6321503,74.7121086 C25.3025052,74.9025052 24.943215,74.9983299 24.5858038,75.0091858 L24.5878914,75.0125261 C25.2041754,76.0799582 26.5818372,76.4492693 27.6492693,75.8329854 L30.1334029,74.3987474 C31.2008351,73.7822547 31.5699374,72.4045929 30.9538622,71.3371608 Z" id="Shape" fill="#FFC987"></path>
                <path d="M73.068476,26.0862213 C72.5273486,26.0862213 72.0010438,25.805428 71.7110647,25.3031315 C71.2787056,24.5542797 71.5352818,23.5966597 72.2841336,23.1643006 C74.1532359,22.0851775 74.7958246,19.6866388 73.7167015,17.8175365 C72.6373695,15.9482255 70.2388309,15.3058455 68.3699374,16.3847599 C67.6210856,16.817119 66.6634656,16.5605428 66.2311065,15.811691 C65.7987474,15.0628392 66.0553236,14.1052192 66.8041754,13.6728601 C70.1688935,11.7302714 74.4864301,12.8872651 76.42881,16.2517745 C78.37119,19.6162839 77.214405,23.9338205 73.8498956,25.8762004 C73.6033403,26.0183716 73.3340292,26.0860125 73.068476,26.0862213 Z" id="Shape" fill="#FFAF10"></path>
                <path d="M76.1997912,31.5098121 C75.6586639,31.5098121 75.1323591,31.2290188 74.84238,30.7267223 C74.4100209,29.9778706 74.6665971,29.0202505 75.4154489,28.5878914 C80.2751566,25.7822547 81.9461378,19.5457203 79.140501,14.6860125 C77.7814196,12.3319415 75.5868476,10.6480167 72.9609603,9.94446764 C70.3350731,9.24112735 67.5926931,9.60187891 65.2386221,10.9611691 C64.4897704,11.393737 63.5321503,11.136952 63.0997912,10.3881002 C62.6674322,9.63924843 62.9240084,8.68162839 63.6728601,8.24926931 C66.751357,6.47181628 70.3379958,5.99979123 73.7716075,6.91983299 C77.2052192,7.83987474 80.0751566,10.0419624 81.8526096,13.1204593 C85.5217119,19.4755741 83.3363257,27.6308977 76.9814196,31.3 C76.7346555,31.4421712 76.4653445,31.5098121 76.1997912,31.5098121 Z" id="Shape" fill="#FFD00D"></path>
                <path d="M40.0323591,62.6528184 C40.6553236,63.7317328 40.2822547,65.1244259 39.2031315,65.7473904 L31.8110647,70.0150313 C30.7321503,70.6379958 29.3394572,70.2649269 28.7164927,69.1858038 L27.7795407,67.5624217 C27.1565762,66.4832985 27.5296451,65.0908142 28.6085595,64.4678497 L36.0008351,60.2 C37.0797495,59.5770355 38.4724426,59.9501044 39.0954071,61.0292276 L40.0323591,62.6528184 Z" id="Shape" fill="#FFE2B8"></path>
                <path d="M30.9820459,69.865762 L30.0448852,68.24238 C29.4219207,67.1634656 29.7949896,65.7707724 30.8741127,65.1480167 L38.2663883,60.880167 C38.4448852,60.7770355 38.6323591,60.7037578 38.8231733,60.654071 C38.1237996,59.8722338 36.9430063,59.656785 36.0008351,60.2006263 L28.6085595,64.468476 C27.5296451,65.0914405 27.1565762,66.4839248 27.7795407,67.563048 L28.7164927,69.1864301 C29.2363257,70.0870564 30.291858,70.4933194 31.254071,70.2419624 C31.1526096,70.1279749 31.0611691,70.002714 30.9820459,69.865762 Z" id="Shape" fill="#FFC987"></path>
                <path d="M44.122547,67.6876827 C44.7455115,68.7665971 44.3724426,70.1590814 43.2933194,70.7822547 L35.9010438,75.0501044 C34.8221294,75.6730689 33.4296451,75.3 32.8064718,74.2208768 L31.8693111,72.5977035 C31.2463466,71.5185804 31.6194154,70.126096 32.6983299,69.5031315 L40.0906054,65.2352818 C41.1695198,64.6123173 42.5622129,64.9853862 43.1851775,66.0645094 L44.122547,67.6876827 Z" id="Shape" fill="#FFE2B8"></path>
                <path d="M35.0718163,74.9002088 L34.1346555,73.2768267 C33.511691,72.1977035 33.8847599,70.805428 34.9638831,70.1824635 L42.3559499,65.9146138 C42.5344468,65.8114823 42.7219207,65.7382046 42.9129436,65.6885177 C42.2137787,64.9068894 41.0327766,64.6912317 40.0906054,65.2350731 L32.6985386,69.5029228 C31.6194154,70.1258873 31.2465553,71.5185804 31.8695198,72.5974948 L32.8064718,74.2206681 C33.3263048,75.1212944 34.3818372,75.5275574 35.3440501,75.2759916 C35.2425887,75.1624217 35.1509395,75.0371608 35.0718163,74.9002088 Z" id="Shape" fill="#FFC987"></path>
                <g id="Group" transform="translate(34.655532, 70.354906)" fill="#FFE2B8">
                    <path d="M12.6695198,2.87954071 C13.2924843,3.95845511 12.9194154,5.35093946 11.8402923,5.97411273 L4.44822547,10.2419624 C3.36931106,10.8649269 1.97661795,10.491858 1.35365344,9.41294363 L0.416492693,7.78956159 C-0.206263048,6.71064718 0.166597077,5.31816284 1.24572025,4.69519833 L8.63799582,0.427348643 C9.717119,-0.195615866 11.1096033,0.177453027 11.7325678,1.25636743 L12.6695198,2.87954071 Z" id="Shape"></path>
                    <path d="M14.9843424,8.9388309 C15.6073069,10.0179541 15.234238,11.4104384 14.1551148,12.0334029 L6.76304802,16.3012526 C5.68413361,16.9242171 4.2914405,16.5511482 3.66847599,15.4720251 L2.73131524,13.8488518 C2.10835073,12.7699374 2.48141962,11.3772443 3.5605428,10.754071 L10.9526096,6.48643006 C12.031524,5.86325678 13.4242171,6.23632568 14.0471816,7.31565762 L14.9843424,8.9388309 Z" id="Shape"></path>
                </g>
                <g id="Group" transform="translate(34.655532, 70.354906)" fill="#FFC987">
                    <path d="M3.61899791,10.0924843 L2.68183716,8.4691023 C2.05887265,7.38997912 2.43194154,5.99749478 3.51106472,5.37453027 L10.9033403,1.10668058 C11.0818372,1.00354906 11.2693111,0.930480167 11.4601253,0.880584551 C10.7609603,0.0989561587 9.57995825,-0.116701461 8.63778706,0.427139875 L1.24551148,4.69498956 C0.166597077,5.3177453 -0.206471816,6.71043841 0.416283925,7.78935282 L1.35344468,9.41294363 C1.87327766,10.3133612 2.92881002,10.7196242 3.89102296,10.4682672 C3.78977035,10.3546973 3.69812109,10.2294363 3.61899791,10.0924843 Z" id="Shape"></path>
                    <path d="M5.93382046,16.1517745 L4.99665971,14.5283925 C4.3736952,13.4492693 4.74676409,12.0569937 5.82588727,11.4340292 L13.2179541,7.16617954 C13.3964509,7.06304802 13.5839248,6.98977035 13.774739,6.93987474 C13.0753653,6.15824635 11.894572,5.94279749 10.9524008,6.48663883 L3.56033403,10.7542797 C2.48121086,11.3772443 2.10814196,12.7697286 2.73110647,13.8488518 L3.66826722,15.4722338 C4.18810021,16.3726514 5.24363257,16.7789144 6.20584551,16.5275574 C6.1045929,16.4139875 6.01294363,16.2887265 5.93382046,16.1517745 Z" id="Shape"></path>
                </g>
                <path d="M33.5569937,90.5290188 C33.8440501,91.0263048 33.6720251,91.6678497 33.1749478,91.9549061 L25.9860125,96.105428 C25.4889353,96.3924843 24.8471816,96.2206681 24.5601253,95.723382 L14.131524,77.6605428 C13.8444676,77.1632568 14.0164927,76.5217119 14.5135699,76.2346555 L21.7025052,72.0841336 C22.1995825,71.7970772 22.8413361,71.9688935 23.1283925,72.4661795 L33.5569937,90.5290188 Z" id="Shape" fill="#52BBEF"></path>
                <path d="M24.1265136,74.1949896 L18.0626305,77.6960334 C17.5655532,77.9830898 17.3935282,78.6246347 17.6805846,79.1219207 L27.1110647,95.4559499 L33.1749478,91.9549061 C33.6720251,91.6678497 33.8440501,91.0263048 33.5569937,90.5290188 L24.1265136,74.1949896 Z" id="Shape" fill="#69CDFF"></path>
                <circle id="Oval" fill="#FFFFFF" cx="27.0480167" cy="89.4300626" r="1.565762"></circle>
            </g>
        </g>
    </g>
</svg>