<svg xmlns="http://www.w3.org/2000/svg" viewBox="0 0 369.6 389.45"><title>GDP</title><g id="4ba7f728-880a-4ac9-ae3a-7f224ef18e85" data-name="Layer 2"><g id="d601bf38-5387-463c-bd00-de6f87a6a75e" data-name="Layer 1"><path d="M.49,241.89,33,297.2a3.25,3.25,0,0,0,3.64,1.54L135.3,272.5a3.5,3.5,0,0,0,1.84-5.4l-33.27-46.91a3.24,3.24,0,0,0-3.23-1.35L2.74,236.69A3.48,3.48,0,0,0,.49,241.89Z" style="fill:#616161"/><path d="M.49,241,33,296.3a3.25,3.25,0,0,0,3.64,1.54L135.3,271.6a3.5,3.5,0,0,0,1.84-5.4l-33.27-46.91a3.24,3.24,0,0,0-3.23-1.35L2.74,235.78A3.48,3.48,0,0,0,.49,241Z" style="fill:#757575"/><polygon points="17 236.19 46.15 285.85 131.19 263.24 101.13 220.85 17 236.19" style="fill:#424242"/><path d="M28.89,263.86a5.26,5.26,0,0,1-2.64,6.79,4.89,4.89,0,0,1-6.5-2.75,5.26,5.26,0,0,1,2.64-6.79A4.89,4.89,0,0,1,28.89,263.86Z" style="fill:#424242"/><polygon points="24.32 274.68 35.5 271.57 36.45 273.23 25.34 276.37 24.32 274.68" style="fill:#424242"/><polygon points="26.17 278.2 37.34 275.1 38.3 276.76 27.19 279.89 26.17 278.2" style="fill:#424242"/><polygon points="28.24 281.81 39.42 278.71 40.37 280.37 29.26 283.5 28.24 281.81" style="fill:#424242"/><polygon points="10.71 251.2 20.94 248.35 21.81 249.88 11.64 252.75 10.71 251.2" style="fill:#424242"/><polygon points="12.39 254.43 22.62 251.58 23.5 253.1 13.33 255.97 12.39 254.43" style="fill:#424242"/><polygon points="14.29 257.73 24.52 254.89 25.4 256.41 15.23 259.28 14.29 257.73" style="fill:#424242"/><path d="M94.55,242l-4.16,10.8a.78.78,0,0,0,.28.59.69.69,0,0,0,.8,0l4-11a.63.63,0,0,0-.28-.42.58.58,0,0,0-.5,0Z" style="fill:#f5f5f5"/><path d="M91.38,243.9,90.62,252a1.17,1.17,0,0,0,.38.59,1.1,1.1,0,0,0,.84.22l5-6.1Z" style="fill:#616161"/><path d="M115.67,184.23l-9.46,24.56a1.76,1.76,0,0,0,.65,1.35,1.56,1.56,0,0,0,1.81,0l9.07-25a1.43,1.43,0,0,0-.65-.94,1.32,1.32,0,0,0-1.13-.08Z" style="fill:#616161"/><path d="M113.6,185.42l-22.44,58.4A4.2,4.2,0,0,0,92.69,247a3.7,3.7,0,0,0,4.3,0l21.52-59.36a3.4,3.4,0,0,0-1.54-2.25,3.13,3.13,0,0,0-2.69-.2Z" style="fill:#757575"/><path d="M89.49,147.68c-5.61,1-11,.74-15.54-1.86-25.37-14.42-6.23-87-7.83-87.2-1.84-.24-30.38,96.08.19,114.16,4.95,2.93,10.82,3.42,17.42,2.29A182.56,182.56,0,0,0,89.49,147.68Z" style="fill:#f0f4c3"/><path d="M131.28,127c-3.6,2.5-7.45,5-11.6,7.33-13.57,7.79-31.8,18.25-44.65,12.09,3.16,1.63,6.39,4,6.58,7,.31,4.83-7.46,7.28-7.47,12.09,0,2.48,2.05,5.72,10.12,9.54,11.78-2.16,25.88-9.4,41.34-17.33,5.09-2.61,9.88-5.3,14.42-8-.58-1.91-1.2-3.84-1.86-5.77A161.27,161.27,0,0,0,131.28,127Z" style="fill:#dce775"/><path d="M118.44,135c-.8,2.66-1.41,6.17.4,8.15,2.14,2.35,5.95.66,8.41,2.92,1.36,1.25,2.51,3.88,1.14,10.09a274.36,274.36,0,0,0,43.71-29.12,197,197,0,0,1,9.71-26.74A190.87,190.87,0,0,1,220.9,44.17q-2.06.26-4.08.6C171.53,52.55,139.49,94.38,118.44,135Z" style="fill:#c0ca33"/><path d="M212,101.43c7,3.75,4.93,19.77,2.89,36a138.5,138.5,0,0,1-2.42,13.83,14.37,14.37,0,0,0,9.34-2.35c9.07-6.59,1.68-22.2,10.44-31.1,7.58-7.7,20.44-3.45,32.46-1.1,9.79-16.87,19.38-27.71,15.65-41-5.5-19.6-37.71-36-63.56-31a41.57,41.57,0,0,0-15.77,6.58c-5.54,4.68-13.11,12.47-17.28,24-4.73,13-1.47,20.82-5.81,34.22-2.23,6.88-6.9,16.59-17.94,26.78h0C188.74,115.36,203.32,96.77,212,101.43Z" style="fill:#f9a825"/><path d="M358.91,267.62,296,260.83c-19.86,22.74-47.41,25.69-50,45.72-.89,6.81,1.28,14.38,5.88,19.13,13.79,14.2,50,3.66,70.73-10.62C338.91,303.82,351.05,286.5,358.91,267.62Z" style="fill:#0277bd"/><path d="M223,207.74c6.6-6.45-1.89-17,4.47-26.93,4.2-6.54,11.56-7.58,20.14-8.22.25-4.66.65-8.12.71-8.6,4.56-37,23.31-55.21,30.24-71.26-17.53-1.49-42.16,5.86-61.83,20,.39,6.81-.74,15.73-1.87,24.73-4.2,33.47-16,42.2-19.58,66-.21,1.4-.39,2.84-.54,4.32C205.17,212.64,217.66,213,223,207.74Z" style="fill:#fdd835"/><path d="M333.52,218.34c-7.41,3.68-14.57,7.47-21.65,11.82-1,7.06-6.58,17.28-7,18a73.24,73.24,0,0,1-17.26,20.9c5-1.11,10.28-1.23,15.12,1.11,11.22,5.43,10.79,19.56,19.81,20.67,8.81,1.08,12.58-12,22.33-11.92a11.21,11.21,0,0,1,7.17,2.78c14.46-25.61,20.11-56.86,16.48-80.23C359.43,205.48,347.92,211.19,333.52,218.34Z" style="fill:#0288d1"/><path d="M353.77,172.12c-7.67-5.66-18.94-7.34-30.72-6.25-4.55,6.53-8.76,14-12.92,21.4-6.67,11.85-17.36,30.85-17.22,44.91,8.53-6.49,15-10.36,17.85-7.87,4.8,4.22-5.31,22.86-5.88,23.88-.1.18-.21.35-.31.52,11,3.93,27.22,1.23,35.82-7.35,9-9,4.15-18.9,12.4-25.42,4.73-3.75,10.68-3.91,16.77-2.77C369.06,194.9,363.86,179.56,353.77,172.12Z" style="fill:#29b6f6"/><path d="M344.29,188.19c3.67-4.77,5.54-11.24,6-18.24-16.23-8.56-43.63-3.67-61.61,6.61-19.63,11.23-27.09,28.35-34.53,25.64-2.17-.79-3.67-3-4.69-6-9.17,14.88-11.55,23.36-28.3,42.9-7.68,9-14.06,15.21-18.54,20.1,3.17,6,7.3,10.59,12.49,12.9,23.52,10.47,62.15-29.35,82.93-43.61,1.66-8.23,3.25-15.57,11-22.83C323,192.63,335.43,199.72,344.29,188.19Z" style="fill:#81d4fa"/><path d="M224.08,273.79c2.21-8.36,4.59-18.64,14.87-26,15.1-10.87,30.72-3.61,37.17-14.92,5.59-9.8-.84-24.54-1.85-26.86a40,40,0,0,0-7.53-11.26c-5.2,5.29-8.9,8.84-12.6,7.5-9.81-3.57-6-36.64-5.76-38.21.48-3.92,1.12-7.63,1.89-11.14-6.82-8.48-11.12-9.56-13.79-9-6.14,1.36-6.68,12.28-14.09,14.37-4.08,1.15-8.24-.93-11-2.73-5.28,19.68-13.25,29.08-16.1,47.89-3.65,24.12,1.58,60.54,19.77,68.64A21,21,0,0,0,224.08,273.79Z" style="fill:#fff176"/><rect x="239.31" y="189.34" width="19.94" height="132.8" rx="8.35" ry="8.35" transform="translate(536.27 468.3) rotate(170.79)" style="fill:#424242"/><rect x="119.03" y="189.82" width="19.94" height="132.8" rx="8.35" ry="8.35" transform="translate(42.66 -17.34) rotate(9.21)" style="fill:#424242"/><rect x="146.8" y="326.4" width="24.42" height="63.04" style="fill:#757575"/><rect x="202.42" y="326.38" width="24.42" height="60.72" transform="translate(-14.19 8.93) rotate(-2.31)" style="fill:#757575"/><rect x="156.85" y="318.38" width="59.79" height="35.33" style="fill:#757575"/><path d="M219,172.39a74,74,0,0,0-21-4.29V144H182v24.79a95.12,95.12,0,0,0-15.5,3.6c-13.82,4.33-18.28,22.84-25.51,29l-6,110H238.4l-.09-110.68C233.39,196.13,231.49,176.9,219,172.39Z" style="fill:#edbba9"/><path d="M219,172.6a63.92,63.92,0,0,0-13.53-4.17,5.47,5.47,0,0,1,.47,2.17c0,4.79-6.48,8.68-14.47,8.68S177,175.39,177,170.6a5.33,5.33,0,0,1,.19-1.33A86.68,86.68,0,0,0,135,193.56V339H238.4L245,191.76A75.91,75.91,0,0,0,219,172.6Z" style="fill:#424242"/><path d="M141,339H238.4L245,191.76a77.28,77.28,0,0,0-22.3-17.41,420.75,420.75,0,0,1-31,86.75A375.74,375.74,0,0,1,141,339Z" style="fill:#231f20;opacity:0.18"/><path d="M151.65,31.49C148.71,33,141.76,26.92,139,19.86c-2.32-6-4.44-17.2-3.71-19.86,2.19.75,12.31,9,15.83,16.07C154,21.84,154.4,30.09,151.65,31.49Z" style="fill:#bdbdbd"/><ellipse cx="190.45" cy="41.91" rx="43.13" ry="38.5" style="fill:#414042"/><path d="M149.37,30.16a27.89,27.89,0,0,0-2.05,11.75c0,18.5,14.62,33.95,34.1,37.65,2.65.19,5.36.29,8.12.29,3.83,0,7.58-.19,11.2-.55,18.85-4.12,32.84-19.29,32.84-37.39,0-4.18-.15-6.42-1.53-10.19-10.57-5.59-25.54-11.86-42-11.86C174.7,19.86,159.76,25.23,149.37,30.16Z" style="fill:#da544f"/><ellipse cx="190.04" cy="55.52" rx="58.09" ry="29.5" style="fill:#58595b"/><path d="M243.11,81.41A8.14,8.14,0,0,0,240,82C235.89,54.18,214.94,33,189.7,33c-26.52,0-48.31,23.42-50.76,53.36a8.17,8.17,0,1,0,.41,15c3.89,28.12,24.95,49.6,50.35,49.6,26.61,0,48.45-23.58,50.78-53.66a8.16,8.16,0,1,0,2.63-15.89Z" style="fill:#fdc"/><path d="M229.46,86.43c-1.86-.1,2.57,28.65-9,42.6-11.74,14.15-30.47,14.42-30,16.5.41,1.86,15.54,3,27.5-5.5a36.64,36.64,0,0,0,11.5-14C236,112.21,231.15,86.52,229.46,86.43Z" style="fill:#efc3b6;opacity:0.42"/><circle cx="162.04" cy="110.1" r="11.51" style="fill:#ff958d"/><circle cx="221.41" cy="109.1" r="10.98" style="fill:#ff958d"/><path d="M196.1,124.11a15.64,15.64,0,0,0,6.6,1.36,12.77,12.77,0,0,0,6.16-1.73,13,13,0,0,0,4.56-4.51,15.88,15.88,0,0,0,2.13-6.4,11.15,11.15,0,0,1-.74,7.12,12.16,12.16,0,0,1-4.93,5.51,12,12,0,0,1-7.24,1.56A11.08,11.08,0,0,1,196.1,124.11Z" style="fill:#6d5145"/><circle cx="168.7" cy="89.1" r="6.33" style="fill:#414042"/><circle cx="210.31" cy="88.76" r="6.33" style="fill:#414042"/><path d="M175,80.43c-.26-.32-3.92-4.63-9.67-4a11,11,0,0,0-9,7" style="fill:none;stroke:#414042;stroke-miterlimit:10"/><path d="M202.37,78.76c.22-.29,3.78-4.84,9.67-4.33a11,11,0,0,1,9,6.33" style="fill:none;stroke:#414042;stroke-miterlimit:10"/><path d="M232.4,74.39" style="fill:#6d6e71"/><path d="M140.79,92.84a26.12,26.12,0,0,1,3.62-16.66c4.94-7.77,12.86-10.13,18-11.68,6-1.81,11.86-2,12-1.32s-7.19,1.69-15.33,7c-3.3,2.15-8.5,5.53-11.67,11.33-5.75,10.52-1.24,22.4-2.67,22.67C143.81,104.36,141.35,98.76,140.79,92.84Z" style="fill:#efc3b6;opacity:0.45"/><path d="M186.79,42.4a53.76,53.76,0,0,1-16.94,25.24A54.92,54.92,0,0,1,140,79.9c1.14-5.76,3.18-14.28,8.78-22.56a69,69,0,0,1,9.34-12Z" style="fill:none;stroke:#58595b;stroke-miterlimit:10;stroke-width:2px"/><path d="M184.59,43a47.62,47.62,0,0,1-15.78,22.44A52.6,52.6,0,0,1,141,76.37a51.8,51.8,0,0,1,8.18-20.06,61.8,61.8,0,0,1,8.7-10.71Z" style="fill:none;stroke:#58595b;stroke-miterlimit:10"/><path d="M182.09,41.91a44.3,44.3,0,0,1-14.5,20.87A48,48,0,0,1,142,72.9a48.47,48.47,0,0,1,7.52-18.65,57.33,57.33,0,0,1,8-10Z" style="fill:none;stroke:#58595b;stroke-miterlimit:10;stroke-width:2px"/><path d="M179.46,41.91a39.17,39.17,0,0,1-13.31,18.48,45,45,0,0,1-23.44,9,42.06,42.06,0,0,1,6.9-16.51A51.16,51.16,0,0,1,157,44Z" style="fill:none;stroke:#58595b;stroke-miterlimit:10"/><path d="M175.9,43a33.23,33.23,0,0,1-11.43,15.68,39,39,0,0,1-20.13,7.61,35.46,35.46,0,0,1,5.93-14,43.54,43.54,0,0,1,6.3-7.48Z" style="fill:none;stroke:#58595b;stroke-miterlimit:10;stroke-width:2px"/><path d="M171.89,44.76a25.77,25.77,0,0,1-9.17,12.15,31.94,31.94,0,0,1-16.14,5.9A27,27,0,0,1,151.34,52a34.07,34.07,0,0,1,5.05-5.8Z" style="fill:none;stroke:#58595b;stroke-miterlimit:10"/><path d="M168,45.6a21.07,21.07,0,0,1-7.48,9.94,26,26,0,0,1-13.17,4.82,22.1,22.1,0,0,1,3.88-8.88,27.84,27.84,0,0,1,4.12-4.74Z" style="fill:none;stroke:#58595b;stroke-miterlimit:10;stroke-width:2px"/><path d="M165.09,44.76a18.33,18.33,0,0,1-5.89,8.62,19.28,19.28,0,0,1-10.36,4.18,20.23,20.23,0,0,1,3.05-7.7,23.61,23.61,0,0,1,3.25-4.11Z" style="fill:none;stroke:#58595b;stroke-miterlimit:10"/><path d="M161.59,46A12.37,12.37,0,0,1,157,51.85a16.66,16.66,0,0,1-8.13,2.82,12.58,12.58,0,0,1,2.39-5.19,16.59,16.59,0,0,1,2.55-2.77Z" style="fill:none;stroke:#58595b;stroke-miterlimit:10;stroke-width:2px"/><path d="M189.7,32c-16,0-30.32,8.57-39.67,21.95,9.59-5.28,18.4-11.33,39.76-10.71,22.26.64,33.43,8.54,41.94,14.37C222.54,42.1,207.15,32,189.7,32Z" style="fill:#58595b"/><path d="M186.79,40.7A28.46,28.46,0,0,0,208,53a31,31,0,0,0,19.82-5.17l-18-6Z" style="fill:none;stroke:#58595b;stroke-miterlimit:10;stroke-width:2px"/><path d="M188,39.7A27,27,0,0,0,208.1,50.89a30.23,30.23,0,0,0,18.75-4.69l-17-5.4Z" style="fill:none;stroke:#58595b;stroke-miterlimit:10"/><path d="M187.9,37.38A27,27,0,0,0,208,48.57a30.23,30.23,0,0,0,18.75-4.69l-17-5.4Z" style="fill:none;stroke:#58595b;stroke-miterlimit:10;stroke-width:2px"/><path d="M188,35.05A27,27,0,0,0,208.1,46.24a30.23,30.23,0,0,0,18.75-4.69l-17-5.4Z" style="fill:none;stroke:#58595b;stroke-miterlimit:10"/><path d="M245.29,60.36c.46-.21-1.29-9.81-8.17-17.33-10.38-11.36-26.68-11.69-26.83-11.17s14.45,1.55,25.33,13C242.67,52.27,244.86,60.56,245.29,60.36Z" style="fill:#6d6e71"/><path d="M145.21,59.53C152,48.2,166.79,41.91,187.13,41.91,212,43,223,50.94,233,57.57,233.78,56.36,226.42,48,217,43c-1.79-.94-29.58-14.75-51.75-2.75C156.37,44.76,151.09,49.9,145.21,59.53Z" style="fill:#414042"/><path d="M114.48,290.33l-5.37,12.93-1.18,7.26a10,10,0,0,0,19.69,3.19l3-18.72Z" style="fill:#757575"/><line x1="149.79" y1="252.26" x2="149.44" y2="264.6" style="fill:none;stroke:#ef9a9a;stroke-miterlimit:10;stroke-width:2px"/><path d="M154,178.67c-4.84,3.32-5.31,7.15-4.52,11.48,2.09,11.37,1.42,27.83,3,52.82L144.24,244c-.53-19.3-1.06-33.57-1.59-52.87-.19-1.33,3.72-8.45,7.15-11.37Z" style="fill:#616161;stroke:#d32f2f;stroke-miterlimit:10"/><polygon points="143.1 242.66 147.81 254.37 150.81 254.37 154.31 239.31 143.1 242.66" style="fill:#757575"/><line x1="222.13" y1="245.56" x2="222.49" y2="257.91" style="fill:none;stroke:#ef9a9a;stroke-miterlimit:10;stroke-width:2px"/><path d="M218,172c4.84,3.32,5.31,7.15,4.52,11.48-2.09,11.37-1.42,27.83-3,52.82l8.19,1.07c.53-19.3,1.06-33.57,1.59-52.87.19-1.33-3.72-8.45-7.15-11.37Z" style="fill:#616161;stroke:#d32f2f;stroke-miterlimit:10"/><polygon points="228.83 235.97 224.11 247.67 221.11 247.67 217.61 232.62 228.83 235.97" style="fill:#757575"/><path d="M223.74,298.48a2.86,2.86,0,0,0,3.26-2.23s1.23-29.76.71-32.63-1.6-4.26-2.95-4.92c-2.12-1-4.86-.78-11.55-2-5.59-1-6.58-2.37-6.93-3-1.35-2.31-1.36-4.57-2.89-6.79-1-1.51-1.21-2.12-2.69-2.3H182c-1.36.28-2,.76-3,2.3-1.53,2.25-1.47,4.7-2.78,6.93-.72,1.22-2.27,2.56-6,3l-15.23.38a9.17,9.17,0,0,0-4.53,1.63,9.9,9.9,0,0,0-3.63,4.93v34.73a10.44,10.44,0,0,0,7.25,3.58,10.56,10.56,0,0,0,8.16-3.65l48,.3Z" style="fill:#bdbdbd;opacity:0.84"/><path d="M201.68,298l21.21-.45a3.7,3.7,0,0,0,3.26-2.23s1.22-30.64.54-33.45c-.58-2.43-1.56-3.5-2.78-4.1-2.12-1-4.86-.78-11.55-2-5.59-1-6.58-2.37-6.93-3-1.35-2.31-1.36-4.57-2.89-6.79-1-1.51-1.21-2.12-2.69-2.3H181.19c-1.36.28-2,.76-3,2.3-1.53,2.25-1.47,4.7-2.78,6.93-.72,1.22-2.27,2.56-6,3l-15.23.38a9.17,9.17,0,0,0-4.53,1.63,9.9,9.9,0,0,0-3.63,4.93v34.73a10.44,10.44,0,0,0,7.25,3.58,10.56,10.56,0,0,0,8.16-3.65l40.25.45" style="fill:#616161"/><path d="M160.45,256.06l-.33-2.88a1.67,1.67,0,0,0-1.56.75,1.51,1.51,0,0,0-.19.9v1.46Z" style="fill:#bdbdbd;opacity:0.84"/><path d="M160.18,256.44l-.33-2.88a1.67,1.67,0,0,0-1.56.75,1.51,1.51,0,0,0-.19.9v1.46Z" style="fill:#424242"/><path d="M160.8,252.93v3.68H171v-3.68a13.17,13.17,0,0,0-9.24-.38Z" style="fill:#bdbdbd;opacity:0.84"/><path d="M160.45,253.23v3.68h10.24v-3.68a13.17,13.17,0,0,0-9.24-.38Z" style="fill:#424242"/><circle cx="166.54" cy="265.02" r="1.6" style="fill:#fff59d"/><path d="M219.52,263.6a8.48,8.48,0,0,0-6.32-1.41,7.64,7.64,0,0,0-2.83,1.23L211,293.7a9.32,9.32,0,0,1,8.08.07Z" style="fill:#424242;opacity:0.36"/><path d="M172.38,263.47a14.36,14.36,0,0,0-8.46-1.41,12.2,12.2,0,0,0-3.79,1.23l.79,30.28a16.33,16.33,0,0,1,6-.87c2.16.09,10-.23,11,.13Z" style="fill:#424242;opacity:0.24"/><path d="M166.54,266.62a1.6,1.6,0,0,0,1-2.84l-2,2.5A1.59,1.59,0,0,0,166.54,266.62Z" style="fill:#fff;opacity:0.46"/><path d="M163.22,265.87a2.64,2.64,0,0,0-.54-1.92,2.38,2.38,0,0,0-1.36-.82l-5.89.57a15.18,15.18,0,0,1-9.25-1.2c-.06.17-.12.31-.15.43v34.73a10.44,10.44,0,0,0,7.25,3.58,10.23,10.23,0,0,0,7.13-2.62l-.08-27.09a3,3,0,0,1,.45-1.32,3.17,3.17,0,0,1,2.46-1.32Z" style="fill:#757575"/><rect x="210.28" y="287.83" width="9.99" height="5" rx="2.5" ry="2.5" style="fill:#fff"/><rect x="183.61" y="247.89" width="2.62" height="3.85" style="fill:#f5f5f5"/><rect x="186.8" y="249.58" width="2.16" height="2.16" style="fill:#f5f5f5"/><rect x="211.5" y="289.25" width="7.27" height="2.16" style="fill:#bdbdbd"/><rect x="189.52" y="249.58" width="2.16" height="2.16" style="fill:#f5f5f5"/><rect x="192.19" y="249.58" width="2.16" height="2.16" style="fill:#f5f5f5"/><rect x="194.74" y="249.58" width="2.16" height="2.16" style="fill:#f5f5f5"/><path d="M149.26,259.17c-1.21.62-2,1.39-1.76,2.33.31,1.42,3.78,1.71,5.15,1.82,4.43.37,7.83-1,7.79-1.13s-5-.19-7.79-.31C150.76,261.79,147.35,260.57,149.26,259.17Z" style="fill:#757575"/><path d="M160.3,261.58l-9.77,0a.73.73,0,0,1-.66-1.06l1.3-2.59a.73.73,0,0,1,.65-.4l8.48-.08a.73.73,0,0,1,.74.73v2.64A.73.73,0,0,1,160.3,261.58Z" style="fill:#424242"/><ellipse cx="157.77" cy="259.58" rx="2.36" ry="1.78" style="fill:#212121"/><ellipse cx="157.77" cy="259.26" rx="2.36" ry="1.78" style="fill:#616161"/><path d="M179.93,249.68c-1.13.74.06,2.58-1.51,6.28-1.21,2.87-2.56,3.26-2.77,5.15-.31,2.84,2.35,5.3,3.27,6.16,6.84,6.35,22.08,6,25.26-.25,1.1-2.15,1.38-6.21-.5-8.55-.85-1.05-1.61-1.1-2.51-2.51-1.61-2.51-.85-4.9-1.63-5.15-1.06-.34-1.93,4.19-4.78,5.28C189.79,258,182.62,247.92,179.93,249.68Z" style="fill:#757575;opacity:0.28"/><circle cx="213.78" cy="277.09" r="4.02" style="fill:#757575"/><circle cx="192.19" cy="278.94" r="21.18" style="fill:#424242"/><circle cx="192.15" cy="279.46" r="17.81" style="fill:#616161"/><circle cx="192.15" cy="279.46" r="16.94" style="fill:#e0e0e0"/><circle cx="192.15" cy="279.46" r="14.24" style="fill:#616161"/><circle cx="192.15" cy="279.46" r="11.5" style="fill:#424242"/><circle cx="192.15" cy="279.46" r="8.57" style="fill:#ab47bc;opacity:0.31"/><circle cx="192.15" cy="279.46" r="3.81" style="fill:#616161"/><circle cx="195.97" cy="281.64" r="2.7" style="fill:#fafafa;opacity:0.49"/><circle cx="192.15" cy="279.46" r="7.63" style="fill:#fafafa;opacity:0.1"/><circle cx="187.69" cy="277.19" r="1.75" style="fill:#fafafa;opacity:0.49"/><path d="M199.58,270.69A11.49,11.49,0,0,0,184,287.57Z" style="fill:#fafafa;opacity:0.26"/><path d="M176.21,268.14a18,18,0,0,1,12.32-7.67" style="fill:none;stroke:#fafafa;stroke-miterlimit:10;stroke-width:2px"/><path d="M191.55,259.88a16.5,16.5,0,0,1,4.27.21,22,22,0,0,1,3.33,1" style="fill:#424242;stroke:#fafafa;stroke-miterlimit:10;stroke-width:2px"/><path d="M202,262.11a20.64,20.64,0,0,1,6.41,5.91,20.4,20.4,0,0,1,2.58,5.06" style="fill:#424242;stroke:#fafafa;stroke-miterlimit:10;stroke-width:2px"/><path d="M184.64,297.3a20.72,20.72,0,0,0,17.6-1.26" style="fill:none;stroke:#fafafa;stroke-miterlimit:10;stroke-width:2px"/><path d="M201.23,244.75c-.33.08-.06,2.06.28,4.62s.53,3.9,1,4.52c1.81,2.24,6,1.75,6.13,1.32s-2.49-.26-4.05-2.26c-1-1.28-.61-2.15-1.89-5.37C202.46,246.86,201.59,244.66,201.23,244.75Z" style="fill:#424242"/><path d="M179.12,245.84c.33.08.06,2.06-.28,4.62s-.53,3.9-1,4.52c-1.81,2.24-6,1.75-6.13,1.32s2.49-.26,4.05-2.26c1-1.28.61-2.15,1.89-5.37C177.9,247.95,178.77,245.75,179.12,245.84Z" style="fill:#424242"/><path d="M139.57,308.37c2.79-1,3.85.65,10.94,1,2,.11,1.91.75,3.21.87,4.37.4,5.15,1.38,7.61.91,1.15-.22,1.74-.58,2.36-.2a2.79,2.79,0,0,1,.63,3.34c-1.06,2-5.09,1.71-7.34,1.56-4.74-.33-4.63-1.68-8.95-1.95-2.46-.15-3.29.24-8.6.13-3.24-.07-4.14-.24-4.31-.74C134.81,312.41,137.12,309.23,139.57,308.37Z" style="fill:#f7d1c4"/><path d="M118.14,300.1c-2.87-6.59,1.14-11.91,4-14.66-7.5,3.33-10.48,10.82-2.78,16.89" style="fill:#edbba9"/><path d="M138.23,302.87c3.35-1.17,5,.3,13.56.77,2.34.13,2.16,0,3.73.16,5.24.48,6.19,1.66,9.14,1.09,1.38-.26,2.09-.69,2.83-.24,1.06.66,1.45,2.71.76,4-1.27,2.39-6.11,2.06-8.8,1.87-5.69-.39-5.76-.42-10.95-.74-3-.18-3.75-1.31-10.12-1.44-3.89-.08-5-.29-5.18-.89C132.82,306.35,135.29,303.9,138.23,302.87Z" style="fill:#f7ccba"/><path d="M130.46,316.41l-.54-.26Z" style="fill:#fdc"/><path d="M129.48,315.94l-.39-.21Z" style="fill:#fdc"/><path d="M131.45,316.83l-.64-.27Z" style="fill:#fdc"/><path d="M147.27,275.06c-7,1-15.34,4.6-16,5.47-4.07.61-8.79,3.46-11.65,5.74-2.13,3.24-4.3,6.8-2.86,13.8,1,5.08,7.12,9.17,8,10.23,3.33,3.84,4.25,5.26,6.64,6.53.33.13.67.25,1,.37,4.44,1.41,6,0,11.71.93,4.62.76,4.73,1.87,9.19,2.19,1.84.13,7.1.51,8.33-2a2.13,2.13,0,0,0,.17-1.67c-.65-1.59-3.82-1.31-7.92-1.85a38.26,38.26,0,0,1-7.45-1.77l-3.1-.26a1.91,1.91,0,0,0,1.28-.6,1.8,1.8,0,0,0,.48-1.19c0-.75-.58-.93-.55-1.55,0-.46.33-.54.86-1.3a4.91,4.91,0,0,0,1-2.31c.08-1-.33-1.3-.06-1.89a2,2,0,0,1,1.35-.95c5.75,1.24,10.72.4,13.94,1.53.82.29,8.82,1.16,9.28-1.79.25-1.63-1.94-3.23-2.63-3.72-2.54-1.85-5-1.68-10.17-2.12-4.66-.4-7-.53-8.18-1-7.6-3.4-11.77-8.08-9.19-11.27,1.29-1.59,4.22-1.61,9.42-4.07,2-.94,3.8-.7,3.76-2.38s.41-2.3-.26-2.63C151.41,274.41,148.51,274.88,147.27,275.06Z" style="fill:#fdc"/><path d="M121.76,309.78" style="fill:#edbba9"/><path d="M142.58,316.83c0-.11.77-.27,1.2-1,.59-1-.18-1.91.24-2.44.54-.68,2.34.17,5.24.9,3.27.83,5.59.93,5.57,1.08s-1.27,0-3.58,0a28.45,28.45,0,0,0-4.37.4C144.53,316.24,142.65,317,142.58,316.83Z" style="fill:#f7d1c4"/><path d="M137.54,277.62c-.55.47-1.19.32-1.75.79a7.37,7.37,0,0,0-1.25,1.6,6.41,6.41,0,0,0-.93,4c.31,1.45,1.59,2.11,3.53,3.4a49,49,0,0,1,9.26,8.08,24.59,24.59,0,0,1,2.54,3.71,3.74,3.74,0,0,1-.33,2.94,3.27,3.27,0,0,1-.89.94c5.75,1.24,10.72.4,13.94,1.53.82.29,8.82,1.16,9.28-1.79.25-1.63-1.94-3.23-2.63-3.72-2.54-1.85-5-1.68-10.17-2.12-4.66-.4-7-.53-8.18-1-7.6-3.4-11.77-8.08-9.19-11.27,1.29-1.59,4.22-1.61,9.42-4.07,2-.94,3.8-.7,3.76-2.38s.41-2.3-.26-2.63c-2.44-1.19-6.44-.47-6.44-.47A53.91,53.91,0,0,0,137.54,277.62Z" style="fill:#efc0af"/><path d="M262.8,290.86l5.37,12.93,1.18,7.26a10,10,0,0,1-19.69,3.19l-3-18.72Z" style="fill:#757575"/><path d="M238.71,307.9c-2.79-1-3.85.65-10.94,1-2,.11-1.91.75-3.21.87-4.37.4-5.15,1.38-7.61.91-1.15-.22-1.74-.58-2.36-.2a2.79,2.79,0,0,0-.63,3.34c1.06,2,5.09,1.71,7.34,1.56,4.74-.33,4.63-1.68,8.95-1.95,2.46-.15,3.29.24,8.6.13,3.24-.07,4.14-.24,4.31-.74C243.47,311.93,241.16,308.75,238.71,307.9Z" style="fill:#f7d1c4"/><path d="M260.14,299.62c2.87-6.59-1.14-11.91-4-14.66,7.5,3.33,10.48,10.82,2.78,16.89" style="fill:#edbba9"/><path d="M240,302.4c-3.35-1.17-5,.3-13.56.77-2.34.13-2.16,0-3.73.16-5.24.48-6.19,1.66-9.14,1.09-1.38-.26-2.09-.69-2.83-.24-1.06.66-1.45,2.71-.76,4,1.27,2.39,6.11,2.06,8.8,1.87,5.69-.39,5.76-.42,10.95-.74,3-.18,3.75-1.31,10.12-1.44,3.89-.08,5-.29,5.18-.89C245.46,305.87,243,303.42,240,302.4Z" style="fill:#f7ccba"/><path d="M247.82,315.94l.54-.26Z" style="fill:#fdc"/><path d="M248.8,315.46l.39-.21Z" style="fill:#fdc"/><path d="M246.84,316.36l.64-.27Z" style="fill:#fdc"/><path d="M231,274.59c7,1,15.34,4.6,16,5.47,4.07.61,8.79,3.46,11.65,5.74,2.13,3.24,4.3,6.8,2.86,13.8-1,5.08-7.12,9.17-8,10.23-3.33,3.84-4.25,5.26-6.64,6.53-.33.13-.67.25-1,.37-4.44,1.41-6,0-11.71.93-4.62.76-4.73,1.87-9.19,2.19-1.84.13-7.1.51-8.33-2a2.13,2.13,0,0,1-.17-1.67c.65-1.59,3.82-1.31,7.92-1.85a38.26,38.26,0,0,0,7.45-1.77l3.1-.26a1.91,1.91,0,0,1-1.28-.6,1.8,1.8,0,0,1-.48-1.19c0-.75.58-.93.55-1.55,0-.46-.33-.54-.86-1.3a4.91,4.91,0,0,1-1-2.31c-.08-1,.33-1.3.06-1.89a2,2,0,0,0-1.35-.95c-5.75,1.24-10.72.4-13.94,1.53-.82.29-8.82,1.16-9.28-1.79-.25-1.63,1.94-3.23,2.63-3.72,2.54-1.85,5-1.68,10.17-2.12,4.66-.4,7-.53,8.18-1,7.6-3.4,11.77-8.08,9.19-11.27-1.29-1.59-4.22-1.61-9.42-4.07-2-.94-3.8-.7-3.76-2.38s-.41-2.3.26-2.63C226.87,273.93,229.77,274.4,231,274.59Z" style="fill:#fdc"/><path d="M256.52,309.3" style="fill:#edbba9"/><path d="M235.7,316.35c0-.11-.77-.27-1.2-1-.59-1,.18-1.91-.24-2.44-.54-.68-2.34.17-5.24.9-3.27.83-5.59.93-5.57,1.08s1.27,0,3.58,0a28.45,28.45,0,0,1,4.37.4C233.75,315.76,235.63,316.52,235.7,316.35Z" style="fill:#f7d1c4"/><path d="M240.75,277.14c.55.47,1.19.32,1.75.79a7.37,7.37,0,0,1,1.25,1.6,6.41,6.41,0,0,1,.93,4c-.31,1.45-1.59,2.11-3.53,3.4a49,49,0,0,0-9.26,8.08,24.59,24.59,0,0,0-2.54,3.71,3.74,3.74,0,0,0,.33,2.94,3.27,3.27,0,0,0,.89.94c-5.75,1.24-10.72.4-13.94,1.53-.82.29-8.82,1.16-9.28-1.79-.25-1.63,1.94-3.23,2.63-3.72,2.54-1.85,5-1.68,10.17-2.12,4.66-.4,7-.53,8.18-1,7.6-3.4,11.77-8.08,9.19-11.27-1.29-1.59-4.22-1.61-9.42-4.07-2-.94-3.8-.7-3.76-2.38s-.41-2.3.26-2.63c2.44-1.19,6.44-.47,6.44-.47A53.91,53.91,0,0,1,240.75,277.14Z" style="fill:#efc0af"/></g></g></svg>